<?xml version="1.0" encoding="UTF-8"?>
<svg width="190px" height="74px" viewBox="0 0 190 74" version="1.1" xmlns="http://www.w3.org/2000/svg" xmlns:xlink="http://www.w3.org/1999/xlink">
    <!-- Generator: Sketch 61.2 (89653) - https://sketch.com -->
    <title>logo_default_bk</title>
    <desc>Created with Sketch.</desc>
    <g id="logo_default_bk" stroke="none" stroke-width="1" fill="none" fill-rule="evenodd">
        <polygon id="Fill-4" fill="#00B398" points="51.2857 30.4606 45.4007 40.6526 42.1357 34.9956 36.8957 34.9956 45.4007 49.7256 53.9047 34.9956"></polygon>
        <path d="M156.1256,29.2003 L160.5366,41.0463 L165.2376,29.2003 L170.4136,29.2003 L161.7756,48.8093 C160.1356,52.5273 157.9846,54.2403 154.5956,54.2403 C153.5746,54.2403 152.3716,54.0583 151.4236,53.8033 L151.4236,49.6843 C152.2626,49.7573 152.9546,49.8303 153.5386,49.8303 C155.1056,49.8303 156.3816,49.4293 157.2926,47.3883 L157.8386,46.1493 L150.9136,29.2003 L156.1256,29.2003 Z M45.4005,20.2666 L48.6665,25.9236 L46.0485,30.4596 L42.7815,24.8016 L31.0115,24.8016 L25.1255,34.9956 L31.0115,45.1896 L37.5435,45.1896 L40.1615,49.7256 L28.3925,49.7256 L19.8885,34.9956 L28.3925,20.2666 L45.4005,20.2666 Z M114.9004,24.6446 L114.9004,29.2006 L120.0034,29.2006 L120.0034,33.3556 L114.9004,33.3556 L114.9004,40.4636 C114.9004,42.5406 115.9944,43.2696 118.2544,43.2696 C118.8374,43.2696 119.6394,43.1966 120.5874,43.1236 L120.5874,47.2426 C119.5664,47.4976 118.4734,47.6796 117.1974,47.6796 C112.7504,47.6796 109.9814,45.5286 109.9814,40.9006 L109.9814,33.3556 L107.1384,33.3556 L107.1384,29.2006 L109.9814,29.2006 L109.9814,24.6446 L114.9004,24.6446 Z M90.7361,29.2 L90.7361,39.697 C90.7361,41.812 92.2301,43.16 94.1621,43.16 C96.0211,43.16 97.5161,41.812 97.5161,39.697 L97.5161,29.2 L102.4361,29.2 L102.4361,39.297 C102.4361,44.4 98.8641,47.679 94.1621,47.679 C89.3871,47.679 85.8151,44.4 85.8151,39.297 L85.8151,29.2 L90.7361,29.2 Z M72.1823,22.7492 L82.8983,47.2422 L77.6143,47.2422 L76.2643,44.1072 L66.4233,44.1072 L65.0743,47.2422 L59.7893,47.2422 L70.5423,22.7492 L72.1823,22.7492 Z M130.975,29.2004 L130.975,47.2424 L126.054,47.2424 L126.054,29.2004 L130.975,29.2004 Z M145.4819,19.4692 C146.6119,19.4692 147.4869,19.6512 148.1789,19.8692 L148.1789,23.9882 C147.6319,23.9152 147.1959,23.8792 146.7209,23.8792 C144.5349,23.8792 143.4409,24.6072 143.4409,26.6852 L143.4409,29.2002 L147.4139,29.2002 L147.4139,33.3552 L143.4409,33.3552 L143.4409,47.2422 L138.5199,47.2422 L138.5199,33.3552 L135.9689,33.3552 L135.9689,29.2002 L138.5199,29.2002 L138.5199,26.2482 C138.5199,21.6192 141.2909,19.4692 145.4819,19.4692 Z M71.3443,31.9342 L68.1363,40.0622 L74.5513,40.0622 L71.3443,31.9342 Z M128.5155,19.5781 C130.2565,19.5781 131.6685,20.9901 131.6685,22.7311 C131.6685,24.4731 130.2565,25.8841 128.5155,25.8841 C126.7725,25.8841 125.3615,24.4731 125.3615,22.7311 C125.3615,20.9901 126.7725,19.5781 128.5155,19.5781 Z" id="Fill-6" fill="#000000"></path>
    </g>
</svg>