<svg id="レイヤー_1" data-name="レイヤー 1" xmlns="http://www.w3.org/2000/svg" viewBox="0 0 2000 316.52"><path fill="#111" d="M200 360.87V360c0-87 65.57-158.26 159.57-158.26 57.71 0 92.25 19.24 120.66 47.22l-42.84 49.4c-23.61-21.42-47.66-34.54-78.26-34.54-51.59 0-88.75 42.84-88.75 95.31v.87c0 52.46 36.29 96.18 88.75 96.18 35 0 56.4-14 80.44-35.85l42.85 43.28c-31.48 33.66-66.45 54.65-125.48 54.65-90.05 0-156.94-69.51-156.94-157.39zM540.54 207h67.33v121.1H732V207h67.33v306H732V390.17H607.87V513h-67.33zM863.6 360.87V360c0-87 68.64-158.26 163.07-158.26s162.19 70.39 162.19 157.39v.87c0 87-68.64 158.26-163.07 158.26S863.6 447.87 863.6 360.87zm254.87 0V360c0-52.46-38.47-96.18-92.68-96.18S934 306.66 934 359.13v.87c0 52.46 38.47 96.18 92.68 96.18s91.79-42.84 91.79-95.31zM1253.1 207h72.58l80.44 129.4 80.44-129.4h72.57v306h-66.89V313.22l-86.12 130.72h-1.75l-85.25-129.41V513h-66zM1636.92 207h125c73 0 117.16 43.28 117.16 105.8v.87c0 70.82-55.08 107.54-123.72 107.54h-51.15V513h-67.33zm120.67 154.32c33.66 0 53.33-20.11 53.33-46.34v-.87c0-30.17-21-46.34-54.65-46.34h-52v93.55zM2015.07 392.35L1897.47 207h78.69l73 122.84L2123.49 207H2200l-117.6 184v122h-67.33z" transform="translate(-200 -201.74)"/></svg>
