<svg viewBox="0 0 697 192" xmlns="http://www.w3.org/2000/svg"><g fill="#0c8"><path d="m96 156-60-21.84 60-23.85 60 23.85z" opacity=".5"/><path d="m156 78.85c0-10.09-4.98-17.19-12.62-19.85-.3-.12-59-21.48-59.27-21.57 7.22 2.85 11.89 9.82 11.89 19.58v53.29l60 23.86z" opacity=".5"/><path d="m66 37.93c-16.57 6.03-30 24.35-30 40.92v55.31l60-23.86v-53.29c0-16.57-13.43-25.11-30-19.08z" opacity=".3"/><path d="m36 78.85c0-16.57 13.43-34.89 30-40.92 6.81-2.48 13.08-2.49 18.11-.5.25.09 59 21.47 59.27 21.57-4.9-1.71-10.9-1.59-17.38.77-16.57 6.03-30 24.35-30 40.92z" opacity=".5"/><path d="m96 100.69-60-21.84v4.2l60 21.83z" opacity=".2"/><path d="m96 104.88 60-21.83v-4.2l-60 21.84z" opacity=".5"/><path d="m36 83.05v51.11l60 21.84v-51.12z" opacity=".5"/><path d="m96 104.88v51.12l60-21.84v-51.11z"/><path d="m126 59.77c-16.57 6.03-30 24.35-30 40.92l60-21.84c0-16.57-13.43-25.11-30-19.08z"/></g><g fill="#212423"><path d="m321 83.27v24.73c0 6.4-1.6 8-8 8h-2v20h4c22 0 26-4 26-26v-34z"/><path d="m309 116c-6.4 0-8-1.6-8-8v-24.72l-20-7.28v34c0 22 4 26 26 26h5v-20z" opacity=".8"/><path d="m471 120h27v16h-27z"/><path d="m501 102c0-22-4-26-26-26h-4v16h2c6.4 0 8 1.6 8 5v1h-10v16h30z"/><path d="m467 136h5v-16h-3c-6.4 0-8-1.6-8-5v-1h11v-16h-11v-1c0-3.4 1.6-5 8-5h3v-16h-5c-22 0-26 4-26 26v8c0 22 4 26 26 26z" opacity=".8"/><path d="m661 102c0-22-4-26-26-26h-4v16h2c6.4 0 8 1.6 8 5v1h-10v16h10v6h-10v16h30s0-34 0-34z"/><path d="m604 92v-16h28v16zm23 44h5v-16h-9c-1.66 0-3-1.34-3-3s1.34-3 3-3h9v-16h-5c-22 0-26 4-26 19s4 19 26 19z" opacity=".8"/><path d="m421 102c0-22-4-26-26-26h-4v20h2c6.4 0 8 1.6 8 8v4.03c0 6.37-1.6 7.97-8 7.97h-2v20h4c22 0 26-4 26-26z"/><path d="m381 116v-20h11v-20h-11v-15l-20 7.28v67.72h31v-20z" opacity=".8"/><path d="m581 102c0-22-4-26-26-26h-4v20h2c6.4 0 8 1.6 8 8v24.72l20 7.28z"/><path d="m541 104c0-6.4 1.6-8 8-8h3v-20h-5c-22 0-26 4-26 26v34l20-7.28z" opacity=".8"/><path d="m186 110c0 22 4 26 26 26h12.5v-20h-10.5c-6.4 0-8-1.6-8-8v-19c0-6.4 1.6-8 8-8h10.5v-20h-12.5c-22 0-26 4-26 26z" opacity=".8"/><path d="m261 87c0-22-4-26-26-26h-11.5v20h9.5c6.4 0 8 1.6 8 8v16.23l-6.66-6.66-20.74 7.55 9.9 9.9v19.98h11.5c22 0 26-4 26-26z"/></g><path d="m0 0h697v192h-697z" fill="none"/></svg>