<?xml version="1.0" encoding="UTF-8"?>
<svg id="_レイヤー_2" data-name="レイヤー 2" xmlns="http://www.w3.org/2000/svg" viewBox="0 0 697 192">
  <defs>
    <style>
      .cls-1 {
        fill: none;
      }

      .cls-2, .cls-3, .cls-4, .cls-5 {
        fill: #0c8;
      }

      .cls-6, .cls-7 {
        fill: #212423;
      }

      .cls-3 {
        opacity: .2;
      }

      .cls-8, .cls-4 {
        opacity: .5;
      }

      .cls-7 {
        opacity: .8;
      }

      .cls-5 {
        opacity: .3;
      }
    </style>
  </defs>
  <g id="_レイヤー_1-2" data-name="レイヤー 1">
    <g>
      <g>
        <g>
          <polygon class="cls-4" points="96 156 36 134.16 96 110.31 156 134.16 96 156"/>
          <path class="cls-4" d="M156,78.85c0-10.09-4.98-17.19-12.62-19.85-.3-.12-59-21.48-59.27-21.57,7.22,2.85,11.89,9.82,11.89,19.58v53.29l60,23.86v-55.31h0Z"/>
          <path class="cls-5" d="M66,37.93c-16.57,6.03-30,24.35-30,40.92v55.31l60-23.86V57.01c0-16.57-13.43-25.11-30-19.08Z"/>
          <g class="cls-8">
            <path class="cls-2" d="M36,78.85c0-16.57,13.43-34.89,30-40.92,6.81-2.48,13.08-2.49,18.11-.5,.25,.09,59,21.47,59.27,21.57-4.9-1.71-10.9-1.59-17.38,.77-16.57,6.03-30,24.35-30,40.92l-60-21.84Z"/>
          </g>
          <polygon class="cls-3" points="96 100.69 36 78.85 36 83.05 96 104.88 96 100.69"/>
          <polygon class="cls-4" points="96 104.88 156 83.05 156 78.85 96 100.69 96 104.88"/>
          <polygon class="cls-4" points="36 83.05 36 134.16 96 156 96 104.88 36 83.05"/>
          <g>
            <polygon class="cls-2" points="96 104.88 96 156 156 134.16 156 83.05 96 104.88"/>
            <path class="cls-2" d="M126,59.77c-16.57,6.03-30,24.35-30,40.92l60-21.84c0-16.57-13.43-25.11-30-19.08Z"/>
          </g>
        </g>
        <g>
          <path class="cls-6" d="M321,83.27v24.73c0,6.4-1.6,8-8,8h-2v20h4c22,0,26-4,26-26v-34l-20,7.27Z"/>
          <path class="cls-7" d="M309,116c-6.4,0-8-1.6-8-8v-24.72l-20-7.28v34c0,22,4,26,26,26h5v-20h-3Z"/>
        </g>
        <g>
          <g>
            <rect class="cls-6" x="471" y="120" width="27" height="16"/>
            <path class="cls-6" d="M501,102c0-22-4-26-26-26h-4v16h2c6.4,0,8,1.6,8,5v1h-10v16h30v-12Z"/>
          </g>
          <path class="cls-7" d="M467,136h5v-16h-3c-6.4,0-8-1.6-8-5v-1h11v-16h-11v-1c0-3.4,1.6-5,8-5h3v-16h-5c-22,0-26,4-26,26v8c0,22,4,26,26,26Z"/>
        </g>
        <g>
          <path class="cls-6" d="M661,102c0-22-4-26-26-26h-4v16h2c6.4,0,8,1.6,8,5v1h-10v16h10v6h-10v16h30s0-34,0-34Z"/>
          <path class="cls-7" d="M604,92v-16h28v16h-28Zm23,44h5v-16h-9c-1.66,0-3-1.34-3-3s1.34-3,3-3h9v-16h-5c-22,0-26,4-26,19s4,19,26,19Z"/>
        </g>
        <g>
          <path class="cls-6" d="M421,102c0-22-4-26-26-26h-4v20h2c6.4,0,8,1.6,8,8v4.03c0,6.37-1.6,7.97-8,7.97h-2v20h4c22,0,26-4,26-26v-8Z"/>
          <polygon class="cls-7" points="381 116 381 96 392 96 392 76 381 76 381 61 361 68.28 361 136 392 136 392 116 381 116"/>
        </g>
        <g>
          <path class="cls-6" d="M581,102c0-22-4-26-26-26h-4v20h2c6.4,0,8,1.6,8,8v24.72l20,7.28v-34Z"/>
          <path class="cls-7" d="M541,104c0-6.4,1.6-8,8-8h3v-20h-5c-22,0-26,4-26,26v34l20-7.28v-24.72Z"/>
        </g>
        <g>
          <path class="cls-7" d="M186,110c0,22,4,26,26,26h12.5v-20h-10.5c-6.4,0-8-1.6-8-8v-19c0-6.4,1.6-8,8-8h10.5v-20h-12.5c-22,0-26,4-26,26v23Z"/>
          <path class="cls-6" d="M261,87c0-22-4-26-26-26h-11.5v20h9.5c6.4,0,8,1.6,8,8v16.23l-6.66-6.66-20.74,7.55,9.9,9.9v19.98h11.5c22,0,26-4,26-26v-23Z"/>
        </g>
      </g>
      <rect class="cls-1" width="697" height="192"/>
    </g>
  </g>
</svg>