<?xml version="1.0" encoding="UTF-8" standalone="no"?>
<!-- Created with Inkscape (http://www.inkscape.org/) -->

<svg
   version="1.1"
   id="svg2"
   xml:space="preserve"
   width="1145.1973"
   height="816.37732"
   viewBox="0 0 1145.1973 816.37732"
   sodipodi:docname="DeNA_logo_RGB.ai"
   xmlns:inkscape="http://www.inkscape.org/namespaces/inkscape"
   xmlns:sodipodi="http://sodipodi.sourceforge.net/DTD/sodipodi-0.dtd"
   xmlns="http://www.w3.org/2000/svg"
   xmlns:svg="http://www.w3.org/2000/svg"><defs
     id="defs6"><clipPath
       clipPathUnits="userSpaceOnUse"
       id="clipPath16"><path
         d="M 0,612.283 H 858.898 V 0 H 0 Z"
         id="path14" /></clipPath></defs><sodipodi:namedview
     id="namedview4"
     pagecolor="#ffffff"
     bordercolor="#666666"
     borderopacity="1.0"
     inkscape:pageshadow="2"
     inkscape:pageopacity="0.0"
     inkscape:pagecheckerboard="0" /><g
     id="g8"
     inkscape:groupmode="layer"
     inkscape:label="DeNA_logo_RGB"
     transform="matrix(1.3333333,0,0,-1.3333333,0,816.37733)"><g
       id="g10"><g
         id="g12"
         clip-path="url(#clipPath16)"><g
           id="g18"
           transform="translate(209.417,346.0178)"><path
             d="M 0,0 C 0.651,0 1.313,-0.026 1.965,-0.094 6.021,-0.492 10.1,-2.338 12.84,-5.401 24.128,-17.987 -2.872,-34.059 -13.564,-26.061 -18.5,-22.366 -19.469,-14.669 -16.973,-9.424 -14.031,-3.237 -6.64,0 0,0"
             style="fill:#000000;fill-opacity:1;fill-rule:nonzero;stroke:none"
             id="path20" /></g><g
           id="g22"
           transform="translate(216.7266,294.2932)"><path
             d="m 0,0 c 9.708,-3.402 14.325,-18.292 3.832,-23.657 -7.908,-4.044 -19.445,1.708 -18.696,11.292 0.217,2.773 1.527,5.351 3.332,7.412 1.777,2.025 3.995,4.178 6.689,4.84 C -3.503,0.217 -1.333,0.446 0,0"
             style="fill:#000000;fill-opacity:1;fill-rule:nonzero;stroke:none"
             id="path24" /></g><g
           id="g26"
           transform="translate(422.3896,338.1311)"><path
             d="m 0,0 c 3.352,-1.57 6.381,-3.86 9.545,-6.74 9.533,-8.689 13.166,-20.755 9.455,-33.224 -4.989,-16.753 -24.39,-21.858 -39.49,-25.804 -4.528,-0.673 -8.812,-1.052 -10.285,-1.593 2.425,-13.043 23.103,-12.41 32.229,-9.147 4.307,1.545 8.579,3.211 12.723,5.156 1.915,0.896 9.241,6.313 10.975,4.221 3.114,-3.726 2.974,-12.367 0.789,-16.626 -1.147,-2.234 -4.218,-4.373 -6.298,-5.4 -15.516,-7.648 -37.376,-10.489 -52.072,0.472 -4.351,3.246 -9.09,7.7 -12.144,12.213 -2.411,3.571 -4.475,7.777 -5.782,11.889 -4.088,12.812 -4.975,28.647 1.223,40.94 4.295,8.497 12.085,16.839 20.521,21.367 4.795,2.581 12.796,4.905 18.289,4.702 C -6.381,2.274 -3.055,1.435 0,0 m -17.326,-20.54 c -2.793,-1.188 -5.454,-3.026 -7.414,-4.692 -8.461,-7.241 -10.959,-13.856 -10.098,-25.054 0.082,-1.107 6.984,1.606 9.239,2.484 8.217,3.221 26.22,10.775 20.849,23.405 -2.557,6.024 -7.753,5.909 -12.576,3.857"
             style="fill:#000000;fill-opacity:1;fill-rule:nonzero;stroke:none"
             id="path28" /></g><g
           id="g30"
           transform="translate(562.4238,283.1643)"><path
             d="m 0,0 c -0.036,-0.335 -0.073,-0.678 -0.109,-1.018 -1.005,-9.882 -1.634,-19.813 -3.027,-29.653 -0.713,-4.994 -1.209,-10.008 -2.02,-14.983 -0.618,-3.749 -1.126,-7.665 -3.151,-10.96 -6.318,-10.286 -15.297,-5.252 -21.426,3.294 0,0 -20.241,29.498 -29.28,46.205 -12.021,22.213 -19.314,35.676 -24.229,45.585 -0.099,-1.424 -0.003,-1.385 0.188,-4.235 1.044,-15.496 2.198,-35.789 3.026,-51.297 0.449,-8.425 0.907,-16.861 1.395,-25.288 0.43,-7.395 1.589,-15.426 -1.785,-22.352 -2.974,-6.067 -8.552,-4.744 -12.7,-0.936 -2.482,2.276 -5.809,5.61 -7.206,10.245 -1.309,4.346 -1.405,7.704 -2.041,12.155 -4.698,32.73 -5.549,66.93 -5.268,99.954 0.084,10.589 -0.048,53.284 8.835,51.471 3.128,-0.639 8.363,-1.684 10.533,-3.955 3.322,-3.471 5.235,-8.508 6.917,-12.879 5.806,-15.082 12.007,-29.584 19.518,-45.869 5.622,-12.192 11.86,-23.905 18.209,-35.711 3.916,-7.282 8.085,-14.423 12.343,-21.507 1.145,-1.902 2.381,-3.756 3.677,-5.557 0.635,-0.88 1.118,-0.987 1.092,-1.23 0.936,8.268 0.582,16.764 0.818,25.037 0.558,19.62 1.058,39.26 3.598,58.745 1.785,13.698 3.184,27.851 7.762,40.959 1.664,4.762 3.428,10.703 8.097,13.368 2.893,1.653 6.936,2.324 10.237,2.329 2.875,0 5.867,-0.834 8.42,-2.117 4.617,-2.324 3.741,-7.699 3.017,-11.74 -0.522,-2.868 -1.276,-8.002 -1.828,-11.477 C 12.64,90.452 12.013,87.233 10.996,81.107 9.804,73.871 8.618,66.642 7.583,59.38 6.156,49.385 4.888,39.361 3.599,29.343 2.345,19.575 1.017,9.8 0,0"
             style="fill:#000000;fill-opacity:1;fill-rule:nonzero;stroke:none"
             id="path32" /></g><g
           id="g34"
           transform="translate(623.0186,390.6848)"><path
             d="m 0,0 c 0.586,-0.695 1.292,-2.167 2.147,-4.19 7.298,-17.253 23.75,-76.15 23.915,-76.674 0,0 8.374,0.768 10.516,0.698 6.131,0.473 10.645,0.514 9.822,-7.178 -0.724,-6.703 -1.355,-10.589 -5.296,-11.318 -5.932,-0.827 -10.309,-1.237 -11.679,-1.286 0.135,-0.396 10.042,-46.493 10.6,-50.982 0.41,-3.3 0.92,-6.457 0.612,-9.713 -0.289,-3.028 -1.324,-5.07 -3.433,-7.551 -2.187,-2.581 -3.501,-5.076 -7.029,-3.299 -2.282,1.153 -5.06,2.138 -6.951,3.893 -1.937,1.79 -2.614,4.423 -3.708,6.753 -1.62,3.463 -9.882,44.982 -10.881,51.093 -0.449,2.732 -1.659,7.451 -1.659,7.451 -4.888,0 -9.747,-0.594 -14.609,-1.009 -3.779,-0.317 -11.111,-0.782 -12.944,-1.569 -1.86,-1.125 -2.625,-9.374 -2.976,-11.324 -3.225,-17.649 -3.658,-35.623 -4.468,-53.502 -0.102,-2.231 0.428,-5.817 -2.458,-6.328 -3.099,-0.556 -8.733,4.153 -10.978,6.008 -2.356,1.945 -5.312,6.369 -6.238,10.602 -3.412,15.612 0.731,30.836 3.908,46.108 5.492,26.406 12.621,52.452 20.704,78.176 2.684,8.545 5.476,17.063 8.62,25.453 1.053,2.807 1.942,5.65 3.423,8.276 1.181,2.095 2.852,4.334 5.54,4.034 C -4.492,2.51 -3.525,2.153 -2.624,1.699 -1.738,1.25 -0.648,0.77 0,0 m -6.505,-86.312 c 3.018,0.397 10.457,1.045 10.457,1.045 -0.792,8.06 -2.212,12.931 -3.548,20.927 -0.757,4.468 -2.108,12.281 -4.36,16.273 -1.507,2.665 -4.171,-4.586 -4.508,-5.456 -2.142,-5.602 -3.767,-11.214 -5.149,-17.028 -0.457,-1.932 -2.365,-7.661 -3.821,-17.448 0,0 4.599,0.811 10.929,1.687"
             style="fill:#000000;fill-opacity:1;fill-rule:nonzero;stroke:none"
             id="path36" /></g><g
           id="g38"
           transform="translate(303.5967,253.091)"><path
             d="m 0,0 c -4.426,-2.523 -9.076,-4.666 -13.789,-6.51 -2.737,-1.07 -15.445,-6.4 -14.674,0.967 1.146,10.917 2.414,25.028 2.625,36.008 0.342,17.386 -0.233,34.838 -2.018,52.144 -0.486,4.671 -1.249,9.938 -1.904,14.586 -1.171,6.916 -2.654,14.54 -3.868,20.558 -1.409,6.989 8.669,4.819 12.516,3.932 7.802,-1.803 16.138,-5.558 22.86,-9.864 13.807,-8.846 25.737,-22.092 28.856,-38.4 C 35.169,49.549 29.869,23.022 10.612,7.236 7.301,4.521 3.73,2.126 0,0 m 40.275,110.763 c -7.265,9.016 -16.827,16.098 -26.579,22.208 -21.222,13.294 -37.906,18.764 -68.71,17.045 -5.774,-0.323 -13.182,-1.799 -17.269,-3.11 -2.289,-0.736 -3.139,-2.652 -3.462,-4.197 -0.359,-1.713 -0.457,-3.518 -0.499,-5.258 -0.121,-5.865 -0.281,-13.781 6.318,-16.195 2.603,-0.957 6.519,1.77 7.687,-2.309 0.244,-0.835 0.426,-1.685 0.637,-2.535 1.754,-7.007 3.439,-14.033 4.727,-21.139 1.283,-7.117 2.164,-14.294 2.74,-21.502 0.615,-7.754 0.906,-15.533 1.047,-23.31 0.154,-8.939 0.079,-17.879 -0.154,-26.823 -0.126,-4.91 -0.303,-9.825 -0.497,-14.736 -0.241,-5.844 -0.216,-11.77 -1.21,-17.548 -0.09,-0.481 -0.188,-2.902 -0.525,-3.045 -10.027,-4.241 -25.08,6.779 -26.251,-10.943 -0.103,-1.557 1.637,-15.195 4.731,-19.032 2.718,-3.369 8.025,-4.197 14.23,-4.42 3.899,-0.143 7.815,-0.314 11.725,-0.319 6.611,0 13.141,0.596 19.578,2.161 6.314,1.539 12.447,3.796 18.404,6.384 5.37,2.327 10.589,4.985 15.586,8.023 5.047,3.069 9.941,6.483 14.645,10.058 12.526,9.531 24.426,21.135 31.66,35.29 4.25,8.315 6.628,19.448 7.956,28.645 3.329,22.984 -1.746,48.288 -16.515,66.607"
             style="fill:#000000;fill-opacity:1;fill-rule:nonzero;stroke:none"
             id="path40" /></g></g></g></g></svg>
