<?xml version="1.0" encoding="UTF-8"?>
<svg id="_レイヤー_2" data-name="レイヤー 2" xmlns="http://www.w3.org/2000/svg" viewBox="0 0 556.7 153.4">
  <g id="Artwork">
    <rect fill="none" width="556.7" height="153.4"/>
    <g>
      <path fill="#0c00c5" d="M397.86,57.13c-16.34,0-29.28,12.09-29.28,29.28,0,17.19,12.94,29.28,29.28,29.28,7.35,0,14-2.46,19.1-6.72l1.32,6.08h8.85s0-11.42,0-28.64c0-17.22-12.23-29.28-29.28-29.28Zm0,47.74c-8.85,0-17.19-7.64-17.19-18.46,0-10.82,8.34-18.46,17.19-18.46,8.85,0,17.02,7.64,17.02,18.46,0,10.82-8.17,18.46-17.02,18.46Z"/>
      <path fill="#0c00c5" d="M67.63,57.13c-16.03,0-29.28,12.09-29.28,29.28,0,17.19,13.25,29.28,29.98,29.28,14.64,0,23.01-7.64,27.19-17.19h-13.25c-2.09,2.55-6.27,6.36-13.94,6.36-9.06,0-16.37-6.36-17.07-13.37h44.96s.7-2.55,.7-5.09c0-17.19-13.25-29.28-29.28-29.28Zm-16.37,24.82c1.39-8.28,8.01-14,16.37-14,9.76,0,16.03,5.73,17.43,14H51.26Z"/>
      <path fill="#0c00c5" d="M198.15,57.13c-16.03,0-29.28,12.09-29.28,29.28,0,17.19,13.25,29.28,29.98,29.28,14.64,0,23.01-7.64,27.19-17.19h-13.25c-2.09,2.55-6.27,6.36-13.94,6.36-9.06,0-16.37-6.36-17.07-13.37h44.96s.7-2.55,.7-5.09c0-17.19-13.25-29.28-29.28-29.28Zm-16.37,24.82c1.39-8.28,8.01-14,16.37-14,9.76,0,16.04,5.73,17.43,14h-33.8Z"/>
      <path fill="#0c00c5" d="M267.95,67.95c7.76,0,12.7,4.46,14.82,10.82h13.4c-2.82-12.09-13.4-21.64-28.22-21.64-16.93,0-30.34,12.09-30.34,29.28,0,17.19,13.4,29.28,30.34,29.28,14.82,0,25.4-9.55,28.22-21.64h-13.4c-2.12,6.37-7.06,10.82-14.82,10.82-9.17,0-17.81-7.64-17.81-18.46,0-10.82,8.64-18.46,17.81-18.46Z"/>
      <g>
        <path fill="#0c00c5" d="M446.72,34.85c-4.39,0-8.05,3.66-8.05,8.05,0,4.39,3.66,8.05,8.05,8.05,4.39,0,8.05-3.66,8.05-8.05,0-4.39-3.66-8.05-8.05-8.05Z"/>
        <rect fill="#0c00c5" x="440.99" y="57.76" width="11.46" height="57.29"/>
      </g>
      <path fill="#0c00c5" d="M133.46,57.15c-15.34,0-25.89,6.09-25.89,6.09v51.81s11.46,0,11.46,0v-43.88s6.58-2.72,13.58-2.72c9.27,0,14.13,5.66,14.13,13.75v32.84s11.46,0,11.46,0v-33.08c0-15.28-9.83-24.82-24.74-24.82Z"/>
      <path fill="#0c00c5" d="M493.61,57.15c-15.34,0-25.89,6.09-25.89,6.09v51.81s11.46,0,11.46,0v-43.88s6.58-2.72,13.58-2.72c9.27,0,14.13,5.66,14.13,13.75v32.84s11.46,0,11.46,0v-33.08c0-15.28-9.83-24.82-24.74-24.82Z"/>
      <path fill="#0c00c5" d="M333.18,57.15c-5.53,0-10.42,.79-14.43,1.81v-20.6s-11.46,0-11.46,0V115.05s11.46,0,11.46,0v-43.88s6.58-2.72,13.58-2.72c9.27,0,14.13,5.66,14.13,13.75v32.84s11.46,0,11.46,0v-33.08c0-15.28-9.83-24.82-24.74-24.82Z"/>
    </g>
  </g>
</svg>
