<svg xmlns="http://www.w3.org/2000/svg" viewBox="0 0 172.63 52.62"><g id="logo-data"><path fill="#002b69" fill-rule="evenodd" d="M13.32,2.44h0m-.64.25.17.09.09.05.09,0v0h.05l0-.06h0v0l.24,0v0h.05l.08-.08.1-.07.11-.05.12,0v.09h0V3L14,3v.09l-.2,0v0l.08.11.05.05H14v0h.09v0l.2,0,.1,0,0,0,0,0h-.1l-.24,0v0h.05l0,.08.09,0,.24.06.21,0,.08,0,0,0v.24l0,.11,0,0h0v0h.05l.06.09,0,.08V4.5H15v0l.71-.16v0h.05v.09h-.1v0l-.38,0v0h0v0l.34.06v.05h-.05l-.24.5v0h.1l.06,0,.16.13.14.15,0,.06,0,.06-.09.12-.08.18,0,.09v.07l0,0,0,0h.08v.05h0l.07.08,0,0v0h0l-.08.12,0,.12-.05.12-.09.1-.07,0h-.07l-.13,0-.07,0H15.1L15,7,15,7.08l0,.07,0,.09h0v0l.27-.12.08.14.06.06h.08v0l.65-.2.3.06v0l-.14.06-.11.09-.07.11,0,.15v.07h0l0,.11,0,.09L16,8l0,.07.13.13.14.15h0v0l-.37.12v0l.08.08,0,.05,0,0-.24-.06-.2,0v.05l0,0h0l0,.1v0h0L15.5,9l0,.05v.07h0l0,0h.19l.1,0,.09.05.06.07.08.14,0,0,0,0v0l.14,0v0l0-.05V9.37l.19,0V9.35l0,.14v.07l0,0h0l0-.15-.58.48L16,10l0,.12.25,0,.12,0,0,0v0h0l.13.07.05,0h0v0l-.08.12,0,.06-.05,0v.11l0,.11,0,.1v.11l-.7.39-.1.1,0,0-.05,0v.05h.05l.11.16.06.08,0,0h0v0h.09v0l.56-.15,0,.19-.06.06,0,0h0v0h.05l0,.06,0,0h0V12h0v0L16.35,12h-.11l-.11.16-.07.07h0v0h-.25l-.28,0h-.12l-.11,0,0,0,0,0,0,.12v.2l0,.09,0,0h0l.63-.15.31-.09.1,0h0v0h0l.08.26.3.38.16.24,0,.07v0h0l-.13.06-.17.07-.14.08,0,.05v.07l-.14-.05-.15,0,0,.19.11,0,.11,0,.09.08,0,.05,0,.06h-.05l-.06.07,0,0h-.05v.07h.05l.34.53-.53.12-.25.12-.08.08,0,.11v.08l0,.06,0,.05,0,.07.17,0h.16l.09-.12.1-.08.11-.06.16,0v-.05l0-.15,0-.06,0,0h0v0h.09v.05H17V15h-.05l-.15.37-.12.19-.07.07-.07,0,0,.11-.05.1-.09.07-.1,0v.14h.05l.27.11.16,0h.15l.24-.08v-.05h.05v.05h0l0,.14h-.05v0l-.8.13v.09l.24.1.12.08,0,.05,0,.06,0,.07V17l.08.2.11.22.06.2.18-.07v.05h-.05l-.06.09v.1l-.12,0-.06,0h-.06v.05l0,0,0,0h-.07l0,0v0l-.1-.06h-.05v0l-.22.14-.11.07-.08.1,0,.1v.21h0l.17-.1.17-.06.18,0h.22l.25,0-.1.14-.08.15,0,.16v.19h-.05l-.19.09-.18.11-.07.06-.05.09,0,.1v.12l.24,0v-.05l.21-.1.11-.08,0,0v0h.05v.05l.08.08.07.12.05.12,0,.12-.11.08-.12,0v.09H17l.19.12.11.06.1,0v.09l-.19,0H17l-.05.14-.08.13-.11.09-.15.05v.18l0,.08,0,0-.05,0V21l.33,0,.29,0V21h0l-.05.07,0,0,0,0,.07.08,0,0v.19l0,.11,0,.08-.07.06-.19.06-.25,0,.13.28-.15.12-.05.09v.09l.54.18.05-.06.07-.05.17-.06h.08l.08,0,.05.05,0,.09h0l-.1.15-.05.08-.06,0,.07.11,0,.05v0h0l-.08.21-.06.09,0,0h0l.38,1-.1.13,0,.15v.35L17.1,25V25h-.05v.09l.13.06.11.09.08.1,0,.12v.12l-.05.1-.09.07-.16,0-.14.25-.08.13,0,.12h.05v0l.16,0,.13,0,.13-.05.14,0v.05h0v.05H17.5v.05h0v0l-.12.06,0,0,0,.06.1.2,0,.12v0l0,0h-.09v.09l.11.05.06.07,0,.08v.09l0,.15v.05h0v.09H17.3l0,0-.05,0-.07.12,0,.1,0,0h0l.33.18.15.14.05.07,0,.07-.05.34-.11.29.24.5-.09,0,0,0v0l.13.19.08.08.05,0H18l-.06.34-.12.08,0,0,0,.07.05.08,0,.11v.1l0,0h-.05l.06.06,0,0h.05v.1l0,.11.06.27v.12l0,.1,0,.05,0,0-.14,0v.05h.05v.05l.1.16.05.07,0,0h0l-.06.09v0h0l.05.4.1.19-.11,0-.1,0-.1.06-.11,0v0l.09,0,.08,0,.12.12.12.1.06,0h.09l-.17.3-.05.15v.19l-.52.09-.17-.22-.11-.09-.07,0H17.1v0h0v0l.06-.09v-.11l.15-.06.05,0,0,0,0-.12v-.17h-.08v0l-.21.14-.11.06-.13,0v.05h-.05l.07.09,0,0H17l0,.2,0,.15,0,.09,0,0,.12,0h.07v0h.05v0h-.05l-.09.16,0,.08v.1h-.05l.15,0h.15l.33,0v.05l-.17.09-.08,0-.07,0v0h-.05v.09h.19l.2,0,.09-.05.07-.06,0-.08v-.11l.24,0,0,.22,0,.11v0l0,0-.09,0,0,0v0h.19v0l0,.09,0,0,0,0V35l-.09,0,0,0v.26l-.06.1L18,35.5l-.06.1v.14l.28.09.12.1,0,.06,0,.08-.2,0v.09l.1.07.06.06,0,.07v.07l0,.07-.05.06-.13.13-.32.17-.12,0h0l0,0-.07-.05,0,0v0h-.05v0l-.05.09,0,.11h.14V37h0v0l-.34,0v0h0l0,.07,0,.07v.18h.05v0l.2-.06.18-.06h.38l.28,0v0l0,0v-.06l.14,1-.18.2-.05.11,0,.13h.1l0,0v.1l0,.19h.38l-.12.32v.35l-.24.07-.27,0-.61.18V40h.09l.14,0,.12,0,.27-.05V40h-.05l-.05.16v.09l0,0h0v0h.05v0h.1l0-.2.48.1v.09l-.14.05h-.08v0h-.1l.11.12.07,0h.08v.14h-.17l-.08,0,0,0v0l0,0v.06l.24,0v0h.05v.07l0,0,.05,0h.07v0h0l0,.11,0,.13v.06l0,0h0l-.07.07,0,0v.05l.15.28,0,.21,0,.21.11.25-.09,0,0,0v0l-.16,0-.13,0-.13.06-.14,0v.14l.2,0,0,.14h.15l0-.05.05,0H19l.12,0h.13l.16.7.07.11,0,0,.05,0v.09l-.23.1-.1.08,0,.05v0l0,.08,0,.06.07,0,.09,0h.19l.16,0,.09,0h0l0,0H20l-.06-.21V44h0l.13-.11.16-.08.33-.14.12-.1.06,0,.06,0-.05-.16v-.15l0-.14v-.16l.2,0,.1,0,.09-.05.08-.08.07-.12.07-.11,0,0,0,0v-.14h-.1l-.24,0v-.09h.05l.06-.07,0,0v-.24l0-.09,0,0,0,0v0l.2,0,.09,0,0,0v0l.05-.16,0-.13,0-.21-.07-.22-.06-.26.11-.07.12-.05-.06-.15,0-.17,0-.36.28-.62.27-.28.1-.22.06-.1,0,0h0v-.05h-.05l-.16,0-.18,0v0h-.05l0-.3v-.2h0v-.09l.11-.13v0l0-.27,0-.14V37l.13-.34h-.05v-.05h.1l0,0h0v0l0-.07,0,0h.05v-.09h-.05v0l-.12,0h-.07v0l.06,0h0l-.05-.18V36l.07-.13.12-.14.07-.08,0,0,.05,0v-.09h-.05l-.09-.05-.05,0h-.06v-.05h0l.13-.06.1-.06.09-.08,0,0v-.05l0,0L22.51,35l-.09,0h-.28l0,0,.17-.09.07-.08,0,0v-.05l-.13-.15-.06-.08v0h0l.22-.16.11-.09.09-.1,0-.07v-.06l0-.09,0-.09v-.08l.67-.68v-.1l-.1,0h0l0,0-.31.1-.14.09,0,.07v.07h-.05v0h0l0-.28,0-.14v-.15l.38-.41.16-.25,0-.11v0l0,0-.08-.07-.1-.06-.09-.06,0-.05,0-.06.05-.09,0-.09V31l0-.08v-.11l0-.1,0,0h-.05v-.09l.18-.18.09-.09.05,0,0,0v0h0l-.12,0h-.13v-.05h.05v0L23,30,23,30l.06,0,0,0v-.1l0-.06.08-.15.09-.17,0-.08v-.09l.06,0h0l-.07-.1L23.27,29l0-.13,0-.14v.05h0v.05h.05l.07-.13.1-.14.09-.12,0-.06v-.05l-.1-.06,0-.05,0-.06,0,0h-.06l-.17.06h-.08l0,0v0l.23-.22.1-.13v0h0v-.05l.1.05.05,0h.05l.05-.08.07-.07.19-.11.16-.1.05-.05v-.07H24l-.13,0h-.13l-.27,0V27.2h0v0l.07-.13.05-.05.05,0v-.09h0l-.16-.06-.06,0,0,0v0h.34l0-.09v0l0,0-.06-.18.12,0,.06,0H24l0-.15,0-.07,0,0h0v-.09h-.22l-.07,0h-.07l0,0v0h-.05l0,0v0l0,0,.06,0-.12-.27v-.16l0,0,.06,0,0,0h.06L24,25.4l.07-.06,0,0v0h.05v0l-.23.07,0-.09,0,0h0v0h0v0h.05V25h.05l0,0h0v0l0-.06,0,0,0,0-.4.13v-.1h0l.05-.1,0,0v-.05h-.05l.14,0h.15l.29,0v-.05h.05l-.05-.06h0v0h0l0-.11,0,0v-.09l0,0,0,0v0L24.4,24l.09-.07.09,0v-.07l0,0h0l-.11-.08-.11,0H24l-.25,0v-.05h0l.06-.06,0,0h0l-.06-.18.12-.12.08-.13,0-.17v-.17l-.09,0h0v0h0V22.7H24v-.05l.34.06v0l.33-.08H25l.09,0h.24l.06,0,0,0v-.12h0l-.82-.07v-.23h0v.05h0v-.05h.05l-.09-.41-.11.07,0,0h-.07v0h-.05v0l.06-.17.14-.14.07-.07,0-.09v-.07l-.07,0h-.18V20.9l.17-.2.09-.11,0,0h0v-.1l-.39-.1v-.05h0l.1-.08.13,0v0h.05v-.09l.09-.06,0,0V20h.05V20h0v.05l.07.24,0,.05,0,0,.06,0h.07v0l.16-.12.08-.08,0,0v0l.09,0h.05v0h.12l.05,0v0l0-.15v-.06l0,0h0v0l-.46,0-.1,0,0,0h0l.12,0-.13-.11-.19-.13-.24-.13.49-.3.14-.19.07-.1,0,0,0,0v0h.05l.09,0,.11,0v-.1l.34.07v0H26L26,18.2l.09-.06,0,0v-.05h0l-.32-.14-.17,0h-.2l0-.14h.13l0,0,0,0v0l0-.12v0l0,0h0l0-.62.27-.12v.05h-.05v.05l.17.07.09,0,0,0v0h.05l0-.14h.05l.19,0,0,.12v.07h0v.05h.08v0h0v0h.05v.05l.05-.14,0-.19.06-.17,0-.06,0,0-.12-.13-.06-.07,0-.06-.2,0h-.1l-.08,0,0,0v0l0-.07.05-.07.06,0v0l.16.08.09,0h.09l0-.08,0,0H27v-.05H27l.08-.19.08-.08.09,0,0,0v-.2l.11-.12,0-.05h0v0h.09l-.09-.19,0-.22H27.4l-.12-.07-.07,0h-.06l0,0h.06l.09,0,0,0v0h.15l0,.19.06.19.08.17.05.18.19-.06L28,15l0,0V15l.08-.1,0,0,.05,0v0h0v0l.08.08v0h0l.2,0v-.09l.09-.08.15-.07.15,0,.06,0,0,0,.07.11,0,.12-.17.1-.15.11-.17.1-.2,0h-.05v.05h-.1v0h0l.09.08.1.07.13,0h.13v-.05l.68,0-.08-.27.07,0,0,0v0l.13.09.06.06,0,.07-.06.25,0,.13,0,0,0,0V16h.1v0l.19-.06h.13l0,0h0v0h0l-.1.1-.06,0-.06,0,0,.07h.07v.14l.19,0,.18,0,.36,0v.05l-.09,0,0,0v0h-.05v.05l.15.07.07.09.07.23,0,.11.06.09.11.06.19,0,.26,0v.09h0l-.19.06v.1l.1.05,0,0,0,.07L31,17.9V18l0,.08.08.06.22.08.21,0v.05l.12.27h-.05v0l-.15,0-.07-.11,0-.12-.11.05-.13,0,.07.23-.07,0-.06.05,0,.07,0,.08V19l0,.08.05.07.06.05.07,0h.07l.15,0,.14-.05.15,0v.09h0l-.32.25-.18.15-.05.07,0,.05-.12,0H31l0,0v0l-.48.05v-.05h0l-.05.11,0,.07V20l-.13,0h-.06v0l-.06.11,0,.13-.07.1,0,0-.06,0,0,.06,0,0h0v.05H30l0,0v.05l-.15.15-.06,0h-.06l-.14,0-.11-.08,0-.05V20.6l.05-.09,0-.05v-.05h0v0l-.12,0-.15,0-.14,0H29l-.07.06-.06.09,0,.09v.1h.26l.12,0,0,0,0,0h0v0h0l-.16.05L29,21l0,0v.11h-.27l-.25,0v.05h-.05l0-.42.24-.07-.14-.16-.06-.09,0-.1.11-.09,0-.06v-.06h.05l.06.06.08,0,.1,0H29l.09,0,.08,0,.05-.07v-.09L29,20h-.13l-.12.06-.21.05L28.43,20H28.1L28,20l-.05,0,0-.05H28L28,19.78l0-.05h0l.2-.2.13-.09.12,0,0-.19-.21,0h-.25l-.24.07-.1.05-.09.07-.18.26,0,0h0l0,0v.05h-.05l.08.08v0h0l-.23.34-.13.19,0,.08,0,.05.38-.09,0,.2v.12l0,0-.41.18V21h.05v0h.09v0h.05v0H27V21h.09l0,.14-.08.13-.22.23-.28.17-.31.08v0h.05l.35.42.18.25.05.11,0,.1-.1.14-.06.17-.09.38,0,.18-.07.16-.12.12-.08,0-.09,0-.09,0,0,0v0H26V24l.24,0,.09,0,.06.05.05,0,0,.07,0,.16-.09.76h-.2l-.21,0-.21,0h-.2v.05l0,0v.06h-.05v.05l.38.11.19,0h.22l-.21.87.11.06,0,.05h0l-.24.55-.09.09-.13.07-.38.07,0,.19H25l0,.12v.11l0,.09.05.08.08.06.09,0,.11,0h.13l0-.14.11-.17.13-.14.07,0,.07,0v0l.05,0H26l0,.23,0,.21-.07.21-.05.21v.51l-.07.3-.25,0h-.13l0,0v0h0v.1h.05v0h.15l.14,0,.06,0,0,.05,0,.06v.13l0,0-.09.07-.09.07,0,0v.06h0l.12.05.13,0V30l-.35.44-.16.26,0,.08v0h0l.14.11.08,0h.09V31h0l0,.11v.08l0,.09.05.1h-.05l-.2.2-.1.11,0,.05v.05l.1,0,.07.07,0,.1,0,.11,0,.23-.09.21-.23.23-.16.23-.1.1-.06,0h-.07v0l0,0v0l.18.06.09,0,0,0v0h.09l0-.12v-.06h0l.05-.06,0,0v0h0v0h0l-.06.16-.08.16-.07.16,0,.16-.47.09v0h-.05l.11.19,0,.06.05,0,.14,0,.22,0v.08l-.06.3,0,.17,0,0v0l-.38.07-.47.15v0l.26.15h.36l0,0h.05v.09l-.18.07v.09l.38,0-.07.22,0,.11,0,0,0,0h-.05l-.05,0-.09.06,0,.06v0h0v-.05l.15,0,0,0,0,.06-.17.73-.1.39-.08.13-.05,0,0,0v0l.2,0v.13l-.16.13-.12.15-.08.17v.2l-.33.13v0h-.05l.07.06,0,0v0l.11.07,0,0h0l-.14.06-.22,0-.39.06.11.22.09.09.05,0h.07l.05-.07v0h0v0l.16.07.09,0h.09v.09H23.9l-.11,0,0,0v0H23.7v0l0,0,0,.05.2.11.07.08,0,.11,0,.07v0h0v0l-.49-.14.07.22-.07,0-.06.05,0,.06v.07l.11,0h.05l0,0v0h.09v0h0v.1h-.05l-.42.49-.25.27-.08.07h0l-.13.06-.11.09-.08.12,0,.07v.07h.05v0h.52v-.05l0,0h-.06v0h.09l.16.12.07.06v0h0v.09l-.29.16-.1.13-.11.23-.1.23,0,.16h0l0,0V43h0l-.12.12-.16.12-.14.14,0,.06,0,.08v.12l.05.11,0,.11,0,.12.39,0v0h0l-.13.1-.07.06,0,0v0l-.18,0-.15,0-.13.05-.15,0v0h.39v.1l-.14.06-.16.11-.12.13-.07.13.07.22-.41.18.06.09.11.09.14.12h0v0l-.19,0v.09l.24,0v0h0v0l-.05.08,0,.08,0,.18.17.09.07.05h0l-.05,0-.07,0-.17.06-.15.06-.05,0v0h-.05v.09l.1.05,0,0h0l-.3.2-.17.11-.05,0,0,0H21l.08.08,0,0h0l-.13.1-.16.11-.15.12,0,.07V48l.06.07,0,.06v.13l0,.14v.16h0v.05l-.21-.05H20.1l.07.06,0,0h.05l-.38.28-.21.14-.06,0h0l-.14.06-.07-.23h-.05v0h-.1v0h-.05v0h0l-.07.15-.1.13-.14.1-.18,0v.13l0,.05,0,0v0h-.05v0h-.05v-.09h0l.08-.15.06-.07.08,0-.08-.11,0,0v0h0l.17-.17,0-.09v-.13l-.08.06,0,0v.05h0v0l-.34-.06-.12.06-.18.1L18,49h-.05l0,0v0h0l.21-.42.15-.23.06-.08,0,0v-.09h0v-.05h-.09v0l-.27.23-.16.09h-.05v0l-.29,0v0h0v0l.06-.07v-.08l0,0h0V48l0-.08.08-.15.1-.14,0-.08v-.09l-.37.13h-.57v-.1l.1-.18.07-.08,0,0H17v-.1h0l-.12,0-.06,0v-.26l0-.21.07-.34h-.05l-.16-.09-.07-.06L16.43,46l0-.08v-.09l0-.22,0-.18v-.08h.09l0,0v0l.3-.08h.16l.05,0,0,.05h.1l-.05-.09v0h0l0-.14v-.14l-.06-.11-.05-.08-.06,0-.07,0-.14,0-.15.08-.14.08-.13.05h-.07l-.05,0,0,0-.05-.08-.05-.19,0-.14.07-.12.1-.09.21-.11.07,0,0,0v0l.07,0,0,0v0h.1l0-.07,0,0h0v-.09h0v0l-.74,0,0,0,0,0,0-.1,0-.2L16,43.18,16,43l0-.17.12-.2.08-.09.05,0,.07,0v0h0v0h-.05l-.12,0-.05,0,0,0v0H16l.07-.14,0,0h0v0l0-.06,0,0,0,0-.11,0h-.13v-.09l.11-.11.06-.14,0-.16V41.3l.12-.06,0,0,0-.06-.24-.5.07-.17,0-.08.06-.08.56-.24.07,0,0-.06.06,0,.14,0,0-.15h0l-.15,0-.29,0v.05l-.55.24v0l0-.24v-.12l0-.12.06-.07.08-.07.06-.07,0-.09,0-.08,0,0-.1-.09-.1-.07,0,0,0-.06v-.19l0-.18V38l0-.2v-.2l.23-.34.05-.14,0-.06,0,0h0v0l.09-.07,0-.07,0,0v0l0-.07,0,0h-.1l-.07.09-.1.07-.11,0-.13,0v-.26l-.06-.25h0l0-.13,0-.05.06,0v-.1l-.14-.11-.09-.14,0-.18v-.18l0-.73-.1-.08,0,0v0h0l.08-.2,0-.1v-.45l-.11-.51v-.14l0-.13.06-.09.05,0h.06V33l-.13-.15,0-.08v0h0l0-.21v-.19l0-.19v-.21l0-.08-.06-.06-.06-.06,0-.07h.05l.14-.53h-.05v-.05l-.14,0-.1-.07-.06-.1,0-.14h0v0l.06-.05h0v0l.11-.09.05-.06v-.06l-.05,0h.05v-.05h0v.05h-.09v0h.05v-.46h0l0-.07,0,0h0v0h-.05l-.11-.13-.08-.06-.07,0v-.09l.49-.43v0h0l-.2-.06-.11,0h0v0H15v-.16l0-.14,0-.13v-.14l.12,0h0l0,0v0l.33-.13.23-.07V28h0v-.05h-.32l-.17,0-.14,0-.05-.06,0-.08,0-.06h0l.08-.08,0,0,0,0h0l-.07-.16,0-.08v0h0l.14-.48-.29-.07v0h0v-.05l.07-.09.07-.11,0-.13v-.11h0v-.05l-.19,0,0-.07v0h0v0l.24,0-.1-.13-.05-.07,0-.06,0,0,0-.05.2-.22,0-.09v-.08l0-.06-.08,0-.13,0H15v-.1h.1v-.05H15v0h.05v0h0l0,.07h.07v-.05h0l0-.18-.19,0,0-.19.07-.17,0-.08.06-.07.18-.13.08-.07.05,0,.05,0v-.09h-.67v-.05h.05L15,23.5l.09-.09.09,0v-.1h-.16l-.06,0,0,0v0l.32-.13,0-.19h-.05l-.2.1-.12,0h0v0h-.05l0-.12.08-.13.2-.29.19-.25.06-.09,0-.07,0-.18-.14.06-.1,0h-.1l-.1,0-.1-.06,0-.05h0l.1-.05.13,0V21.5l.06,0h0v0h.05v0l-.06,0h0v0L15,21.38l-.09,0h-.08l.52-.62v-.09h0v0h-.05l-.23.1-.13,0h-.1v-.05h0l0-.15V20.4l-.05-.29.14-.06V20l-.1-.05-.06-.07,0-.08,0-.09,0-.08.05-.08.06-.05.07,0v-.1h0V19.3l-.21,0-.08-.06-.07-.08-.07-.07,0,0h0v-.38l.65-.57-.2-.23-.19.09-.09.06,0,0v0h0v-.32h0l.1-.4,0-.22V17h0l0-.33v-.17l0-.16-.08-.13-.09-.09-.2-.18h0l-.08-.37.36-.18v0H14.5l-.16-.13-.1,0-.09,0v-.05h0V15h.15l-.08-.11,0-.05,0-.07.08-.06.05,0,.05,0V14.6l0-.06.14-.1.15-.11,0-.06v-.09h0l-.35.16-.21.05H14.1l0,0v0H14l0-.19.13-.12.07,0h0l0-.14,0-.07v0h0l.08-.25,0-.28.06-.07,0-.08v-.19h-.19l-.19,0-.08,0L14,12.78l-.05-.08,0-.09.05-.1,0,0h0v-.1l-.2,0,.06-.09v0h0l-.09-.09-.06,0h-.06V12l.47,0-.07-.14,0-.06v0h0l0-.07,0,0h0L14,11.52l-.15-.08-.17,0h-.2v0h-.05v-.05l.06-.18,0-.13.05-.12.17-.15.06-.07,0,0,.05,0v-.14l-.07-.06H13.7v0l-.18.07,0-.12v-.05l0,0h0v-.05h0v0l-.14,0-.19,0-.17,0,0,0,0-.06v0l0,0,.11,0L13,10l-.18-.18-.22-.13-.11,0h-.11V9.6h0l0-.07,0,0h0V9.4l-.28-.21L12,9.11l-.09,0h-.09L12,9.4l-.43,0v.33h0v0l-.16,0-.16,0-.29.09h-.33l0,.15v.15l0,.07.05,0,.06,0h.1l.26-.18.15-.07.14,0v.05h0v0h-.05v0h0l-.11.05-.13,0v0H11l0,.18-.05.12-.06.09-.08.06-.17.11-.08.08-.06.11-.05.51.09.2,0,.24.2,0,.1.05,0,0v0h.05v0l-.14,0h-.62l-.08.35,0,.19v.08h.1l.1,0,.1,0h.1V13l-.28.24-.34.17-.06.08,0,.08-.07.18-.11.15-.1.11-.06.15v.21l.51-.12h.27l.09,0,0,0v0l-.07,0,0,0v0L10,14.4l-.15.15-.12.14-.05.05,0,0v.14l0,.06v0h0l.1.1,0,.05,0,.08-.19.09-.23,0v.05H9.42l0,.28,0,.25.07.32-.1,0-.11.06-.07.08,0,.05v.05h0l.12,0,.06,0,0,.05h0v.05h0l-.24.23,0,.1,0,.14L9,17.26l0,0-.06,0,.22.23.14.08.15,0v.05h-.1L9.13,18,9,18.16l-.08.05-.08,0,.07.33.08.15.06,0h.08v.14L9,19l-.15.13-.14.12-.08.05.2.18.11.1.05.06.1.11,0,.05h0l-.43.45-.07.12,0,.14,0,.15,0,.18,0,.07v0h0l-.09.16,0,.08v.1h.1l.14-.06v.05h.05v.09l-.11.07-.09.08-.06.09,0,.09v.08l.05.07.09,0h.16v.05L8.66,22l-.05.05,0,0,.09.07,0,.05,0,0-.13.06-.12.09-.11.09-.1,0v-.05l0-.06v0H8.26l-.12.2,0,.1v0h0v.09l.18-.06,0,.19h0V23l-.29-.07V23H8v.14h.14l.16,0,.14.07,0,.05,0,.07-.12.1-.07.12-.12.27-.1.1L8,24l-.11.09,0,.07v.13l0,0,.07.05.08,0h0v0l.07.08,0,.05,0,0L8,24.74l-.14.13,0,.09,0,.09v.09l0,.1,0,0h0v-.05H8v0l0,0v-.06h.09v.07h.06l0,0,0,.05h-.1l-.28,0v.05h0l.11.32,0,.17,0,.16-.22.2-.1.14-.07.18,0,.19V27l.28.08.11.1,0,0H8v.1h0l-.09.09,0,.05h0l0,.09,0,0h.05v.05h0l-.13.29-.48.43v.07l0,0h0v.05l.38,0v.05l-.24.56-.13.6.28,0v0l-.07.06v.09l.07.08,0,.1-.11.11,0,.07v.07H7.43v-.05l-.09-.09,0,0h0v0l-.11.07-.1.12L7,30.47v.14H7v-.05h.05l.4,0h.31l0,0,.21.34.15.15.06.08,0,.09-.19,0L8,31.15l-.12,0H7.55l.1.14.14.14L8,31.5l.09,0h.08l0,.24-.48-.05v.09l-.34,0v.05l.1.08,0,0,0,.05.42-.18v.05H8l-.26.27-.06.13v.2L7,32.67H7l0,.12,0,.05,0,0V33h0v0l.16,0,.08,0,0,0v0h.1l-.06.1V33h0v0l.19,0v0l.26-.15.07,0h.07l.05,0,0,.08H7.85v.06l-.29.09-.11.1,0,.06v.07l.06.06,0,0h0v.05l-.31-.06-.15,0H6.91v0H7l0,.06H7v0H6.93l-.06.05h0v0l-.12-.05-.12,0,0,.13.07.1.08.08.1.05.23,0h.28l.08,0,.11,0v0h0v0h0V34l-.17.13-.1.06-.09,0v0h0l.19,0v0H7.43l-.12.11,0,.06v0h0L7,34.65v.09l.39.06,0,.15,0,0,0,0h0v0l-.18.06,0,.16-.08.12-.08.11-.06.13,0,.49h.12l0,0,0,0v0h0v.05l-.16.08L7,36.49l-.11.17,0,.09v.08H7v.09l-.5.28,0,.17.05.07,0,0h0l.18-.07v0H7v-.09l0-.08,0-.05.09,0v.35l0,.18,0,.16,0,.06-.06.06L6.76,38l-.15.12,0,.07,0,.07.34,0,.07.18H7v.05H7l-.27.22-.1.13,0,.08,0,.08.06.23.33-.08v0H7v0H7l0,.23-.08.2-.13.17-.18.12L6.42,40,6.34,40l-.07.08L6,40.9l-.3.78-.05.06-.07,0-.13.05-.15,0L5.11,42,5,42,5,42.14l-.12.21,0,.07v0l0,.05.06.09L5,42.7l0,.11,0,.32-.61.11v0l0,0,0,0h0l.06-.08h0v0l0,.07,0,0h0v.09l-.34-.06,0,.12,0,.06-.06,0H4.08l-.12,0-.12.06-.12,0,.07.06.08,0h.19V44L3.9,44l-.07.06,0,0v0H3.42l-.1,0,0,0h0l0-.06v0h0l.06-.09,0,0h0l-.18-.19L3,43.6l-.06,0H2.83v-.09h.09V43.4l0-.08,0-.07.07,0v0L3,43.12l0,0h0v-.05l.4-.43.21-.24.1-.08.08,0v-.1H3.45l-.12,0-.05,0,0,0h0l.05,0,0,0v-.07h0v0l0-.09v-.11l0-.09,0,0,0,0,0,.06,0,0h0v-.05l0-.19.08-.09,0,0,.06,0v-.09l-.21-.1-.1-.06,0,0,0-.05.06-.07,0,0h0v-.1l-.15,0v0H3.38l-.13.39-.13.18-.07.06L3,41.4l.12.18.08.09,0,0h0v0H3.19v0L3,41.72l-.2-.11-.16-.17-.05-.09,0-.11.18-.16.1-.07L3,41l-.1-.13,0-.07h0L3,40.44l.08-.17v-.05h0l-.19,0v0h0v-.05h0v0l.06-.26,0-.28L3,39.24l.07-.12L3.2,39h0V39l0,0v-.05l-.11-.08,0,0v0h0l.16-.3.06-.16V38.1l.16,0h.18l0-.14h.1l.06.13,0,.06v.16l0,.08-.14.19-.18.15-.09,0-.08,0V39l.12.07.06.08,0,.1v.11l-.08.22-.08.22,0,.27,0,.14,0,.05-.06,0,.07.14,0,.06H3.5l0,.29h.09v0l.16-.16.09-.07.1,0v-.18L4,40l.12-.18.08-.06.08,0v-.05l.1.05,0,0h.05v0l.28-.55v0l-.28,0-.12,0-.07,0H4.19v0l.09,0,0,0v0h0l-.05-.2v-.09l0,0h.06l0-.18,0-.17,0-.05,0,0,0,0v0h0l-.31-.77h0l-.23.07v0l.07.14v.09l0,0,0,0-.1,0H3.38v-.09h0l.07-.12,0-.06,0,0-.08-.13,0-.07v0h0l.19-.46.16-.23L4,36.43l.07,0v-.1l-.11-.1,0-.11V36l0-.12L4,35.62l0-.13v-.13l.14-.06-.08-.13,0-.07v0h0L4.15,35l0,0v0l.1-.19.12-.18.1-.56V33.9h0l-.07-.11,0,0v0h0l.09-.17,0-.09v0h0v-.19l0-.18h0v.05l.07.06h.08l0-.37,0-.2v-.08h0l.21-.31,0-.09V32l-.06-.09,0,0,0,0,0,0,0-.06.17-.36,0-.16V31L5,31l0-.05L5,30.88l.09,0h.06l0,0v0h0l-.09-.16-.07,0H5v0l0-.06,0-.05v-.11l0-.12V30H5l.07.06,0,0h.06l0,0,.06,0,.05,0V30l0-.28h0l0,.15-.13-.13,0-.06v0h0l.08-.14,0-.07v-.08h0v0h-.1l0,0-.06,0v0l0-.15,0-.06h0v0l.13-.27.1-.13,0,0,.07,0v-.09l-.15-.08-.1-.09-.05-.11,0-.13,0-.56v-.3l0-.14L5.24,27l.09-.08.1,0,.23,0v-.05l0-.1,0,0,0,0v-.1l-.17-.07-.13-.09-.12-.11-.14-.1v.05l-.07-.18.33-.13-.06-.14,0-.06H5.31v0h.05l0-.07,0,0,0,0v-.09H5.39l-.1,0,0,0,0,0h0l0-.1,0-.08.06,0,.13,0-.06.07,0,0v0h0l.16,0h.09l0,0v0l.08-.14L5.86,25v-.18l0-.05,0,0h0l-.1-.05,0,0,0-.05.11-.1.11-.15,0-.14v0h0v-.05l-.17,0H5.56v0h0l0-.19h0v-.05l.29,0-.08-.37v-.2l0-.06,0,0h0v-.1l-.24,0v-.1h0l0-.13,0-.11,0-.23.05-.07,0,0,0,0v-.07l0-.06.06,0,.06,0,.16,0,.07,0,.06-.05h0l-.07-.05,0,0H6V22L6.18,22l.11-.05,0,0v0h0l-.07-.08-.08-.05-.09,0h-.1l-.22,0-.22,0v0h0l.1-.17.17-.23.19-.22L6.19,21l.07,0,.33,0,.13,0,.11,0,.1.07.09.1.15.19,0,.07,0,0h0v0h.1l0-.08,0,0h0v-.19l0,0,0,0,.11,0v0h.05v-.09l-.15-.06-.14-.1-.14-.09-.14-.05-.55.15-.76,0v0h0v0l.27-.17.15,0,.18,0v-.09l0,0h0l-.1-.05,0,0,0-.05.39-.46v-.09h0l-.24-.13-.12-.05H6l-.12-.27H6v0L6.15,19l0-.12v0h0v-.05L6,18.86H6l0,0v0h0v-.37H6l.2.15.11,0h.14l0-.2,0-.09,0,0h0v.05h0V18.3h0v.05h0v.05h0l0-.31,0-.18,0-.06h0l.09.05.11,0,.1-.16.07-.06.09,0-.06-.05-.08-.06L7,17.45l0,0-.23.07v-.09h0l.11-.14L7,17.2l.08,0V17L6.93,17l-.08-.06-.1-.16-.08-.16,0-.07-.07,0-.08,0H6.22l-.21,0,0,0,0,0,0-.09,0,0h.05v-.06l0,0,.08-.07.1,0,.11,0v0l-.19.07v.05h0v.05l.33,0,.18-.27.05-.15v-.17H7l.11.12.07,0h.07v0h0v-.29l0-.13-.06-.14h0l0-.07,0,0h0V15H7.27v0h-.1l0,.06-.07,0-.18.06H6.69l-.08,0-.06-.05h0l0,0,.13-.1.13-.11,0-.06v0l.16.09.08,0h.11v.05l0,0,.06,0-.07-.16,0-.08v0h0l.11-.1.1-.09,0,0v-.13l0-.09,0-.06H7.42l0-.1,0,0v-.06H7.42v.06h-.1l-.2.28-.13.1-.16.05-.08-.17-.06-.07,0,0h0V14h.05v0l.11-.08,0,0h0v0l0-.2v-.23l0,0H7l.11-.05.11-.08.11-.07.12,0v0L7.27,13l-.09-.05H7.07v-.09h0l0,0v-.06h.1v0l.07.08,0,0V13h0v0l.06,0,0,0v0h0v.09h0l-.07.29H7.6l0,0v0L7.79,13l.06-.1,0-.1-.34-.19-.16-.12,0,0v0h.06l.08-.07,0,0,0,0h0v0l.23-.07.09.08,0,0H8v0l.15,0,0-.13v-.06l0-.06.08-.12.11-.13.13-.14.1-.15h.05l-.08-.14-.05-.17H8l-.1,0-.09,0-.06-.05,0-.08.07-.1,0,0,0,0,.12.05.13,0v0h0l.11-.12,0-.06,0-.08h0v-.05l-.12-.06,0,0v0h0l.23.06.11,0h0l.11-.09.08-.1,0-.11v-.14l0-.07,0,0h0v-.1l.08-.1,0-.12,0-.12,0-.12L9,9.34l.1-.07.1-.06.09-.07.21-.35.25-.31h.05l-.11-.05H9.6l-.11,0-.1.06-.22.15-.12.06-.12,0V8.7h0l0-.18h.05L9,8.31l.06-.1,0,0,0,0,.09.09.14.06h.06l.05,0,0,0V8.18l-.12,0-.13,0V8h.09l.28-.12v0h.05v0h0v0h.17v0l.24-.54,0-.27,0-.14h0v0h.05v0l.2-.21.11-.1,0-.06h.05v0l.14,0,0,0h.06V6h-.05l-.11,0-.13,0v0h-.05l.2-.27.13-.13.06,0,.05,0-.08-.08V5.31h0L11.1,5l.13-.16.07-.05.08,0-.08-.08v0h0l.08,0,.08,0h.17v0l.29-.19.11-.14,0-.09V4H12l0,0,0,0H12v0h0l.09,0v0l.07-.08,0-.07V3.49h.1v0h.1v0h.1l-.06-.61.23-.16M12,3.51h0m3.11.41h.14V4h0v0l-.11-.13m.78,1.67h0v0l-.06,0h0v0l0,0M8.41,9.79l.09.07.05,0h.06v0h0v0l-.15.12-.08.06-.08,0v0h0v0L8.29,10l.12-.17m3.78-.13,0,0,0,0,0,0h0v0h.09V9.66M6.76,11.12H6.9v.07h0l0,0v0l-.11-.13m.6.27.38,0,.06,0,.07,0,.06,0,.07,0v0H8l-.33.3-.2.16-.08.05-.06,0,0-.4,0-.19.08-.17m3.52.19h0l-.13.17-.08.07-.1,0,.11-.15.15-.11m2.87-.13h0m2.77-.13.06.06,0,.08v0l0,0,0,0h-.06v0h0v-.09l0,0,0,0v0m-9.22,1h0M7.13,13l.11,0,0,0h0v.05L7.13,13m8.48-.67h.12l0,0,0,0v0h-.05v.05h0v0h0v0l-.05-.05m0,.1h0m-1.57.66,0,.1v0h0v-.12m.29,0h0M7,15.48H7m9.86-.75h.1l-.1,0,0,0h0v0m10.9-.47,0,.06h0v0l-.05-.05m-.17.26h0m-.74.3.27,0,.12.06.05,0v0h0v.05l-.28,0h-.14l0,0,0,0L26.78,15l0,0v-.05l.14,0v-.05h-.05v-.09M9.62,16.5l0,0,0,.05-.06,0h0V16.5m-.13.16h.1l-.05,0h0l0,0m-3.06.57.15.05.07,0,0,0v0h0v.05l-.52,0,0-.09v0l0,0V17.3l.28-.07m20.21-1.92h.1v0l-.19.14-.11.06-.11,0v-.09h.05l.27-.17m2.82-.13h0M5.94,17.7H6l.11.2.05.08,0,0h0l-.15.1,0,0H5.93l-.09,0H5.69L5.8,18,5.92,18l0-.11V17.8h0l0-.1m-.28.55,0,0,0,0-.06,0h0v0M30,16l.34,0V16h0l-.11.09-.14.07-.3.08v-.05h.05v0l.09-.08,0,0v0H30V16m-3.84.41h0m11.5-.67.43,0v.05h0l0,.23h-.09l0,0-.06.08-.06.08,0,0,0,0v0h0l.29.06v0l.24-.12.12-.08,0,0v0l.12.05.06,0h.07v0l.15-.07,0-.06,0-.08h0v0h0l0,.07,0,0h.16l0,.12,0,.05-.06,0-.24.16-.11.1,0,0v.06l.29,0v.38l.71.07.12.07.07,0h.07l0,.14,0,.07v0h0l-.14.06v.05h0v.05l.43.06.21.08.07.06,0,.06h0l-.12,0-.13,0-.08.22,0,.07-.08.06-.06.07,0,0v0l0-.09,0,0H40l-.27.18-.13.1,0,0h0l.08.14.1.1.07,0h.07l.09,0,.08-.05.07-.05.09,0h.37l.09-.05.1,0v.05h.05v0h0v0l-.28.12.13.14.15.09.18,0h.19l.08,0,0,0,0,.06v.36l.2.33,0,.37.1.08.06,0h.05v.1h0v0l-.44-.1v0l.21.21.08.13,0,.15h0l.11-.05h.07v0h0l.07.23h0l-.11,0-.1.07-.16.19-.14.19-.06.07-.05,0v.05h0l0,.06,0,0h0v.05h-.14v.09l.39-.1.18-.1,0-.07,0-.07h.09v.29l0,.13,0,.12-.08.1-.1.08-.12.06-.15,0v.09l.41.11.22,0h.2l0,.21,0,.2-.18.07,0,0h-.05v.05h0l0,.09.06.06.18.09.2,0h.21v0l.34-.17.07-.07.06-.08.07-.08,0,0h0v-.07l0,0h0l-.07-.23.15-.1.08-.05.09,0L43.53,22l-.05-.1v0h0l.09-.18.06-.08,0,0h0v.05l.14,0v0l.15-.61.08-.21,0-.11v-.14l.12-.15.07-.07.07,0v-.09l0,0V20l0-.14.06-.1.07,0h.08l.08,0,.18.1.08,0H45v-.05l.07-.33-.59-.14v0h0l0-.12,0,0,0,0L44.55,19l.34-.39.19-.19.09-.08.1,0h.22l0-.13,0,0,.06,0V18l-.22.06-.11.05,0,0v0h-.09l-.07-.11,0,0h0l.13-.25.07-.14,0,0,0,0V17.5h0l0,.06,0,0h0v0l.12-.26.07-.19V17l.09-.1,0,0v-.05l0-.09-.06-.1h0l.09-.23.12-.19.32-.36.2-.27.26-.1.56-.3,0,0V15.1l.18.14.09.09,0,.07h0l-.09.14,0,.07v.09h.24l.2,0,.2.05h.19v-.05l.09-.09,0,0v0h0v0l.19,0V15.5h.05l0,.11v.05l0,0h0l.12.05.06,0,0,0v0h0l-.16.16-.08.09v.1l-.14-.06h-.09v.16h0v0h-.53v.05h0v0h0l0,.06,0,.05.11.08.1.06,0,0v0h0l0-.19h.69l.63-.16.2-.09.23-.07v.05l-.24.18-.11.12,0,.06v.06l.13.08,0,.06,0,.07.42-.08.23,0,.08,0h.12l0,.18-.2.13-.11.07-.1,0v.05h0l.11.08.07,0h.07v.14l-.11.06-.05,0,0,.06h-.09v-.21l0-.12h-.07l0,0v0l-.11.11-.05.07v.07h-.1V17.4l-.2,0-.18.06-.07.05-.06.06,0,.07,0,.1v.11l.05.06.07,0,.09,0,.19,0,.16-.06.25-.07.12-.06,0,0v-.06l.16,0h.18l0-.05h0v0h.05v0l.19-.11.09-.08,0,0v0h.1l0,0h.12v0h0v.09l-.24,0,0,.14.12,0h.05l0,0v0h-.09l-.45.18-.16.13-.08.06-.09,0v.05h0l.23.14.13,0h.14L51,18.3l.15-.06.33,0L51.6,18l.15-.09h.16l.22.06.1,0,.1,0-.2.17-.07.11,0,.06v.07l-.29,0-.11.16,0,.09v.09l.28,0,.28-.06,0,.15v.07h0l.17-.15.06-.09,0-.06v-.05l.72,0v0l-.55.29-.31.3-.17.12-.1.05-.1,0v0h0v0h0l0,.06,0,0h0v.09l-.06.06-.07.1,0,.1,0,0h0V20h0l0-.19.82.07.44.07.15,0,0,0v0h0l0,.14h.14l.07,0h.26l.09.17.78.15.85.08v.11h.07l.06,0,0,0v0h0v0h.76l.06,0,.07.05.06,0h.07v.05h0l-.14.09-.06.06,0,0v0l-.12,0h-.07v0l-.22.08-.25,0,.06.13.09.13.12.09.07,0h.08v-.05l.15-.05.17,0,.11-.13,0-.06v-.07h0V21h.1v0H57V21l.2-.11.08-.09,0-.05v-.06h.05l.06.06h0v0l.09,0,0,0v0l.09.05.05,0h.06v0h.12l.09,0,.09,0h.1l-.13.17,0,.14,0,.36h.09v0l.25-.1.23-.13.23-.13.26-.07v0l.13-.11.14-.09.16-.06.17,0v0h0l-.06.09v0h0l.17.32.18.06.09,0h.08v0l.19,0h.19v0l.06,0,0,0v0h0l.17.07.09,0h.09l0-.11,0,0h0v0h.08v0h.08v.05l-.08.14-.11.18,0,.09v.08l.14,0v-.05h.14v-.05h0l.07.09,0,0h0v0l.25,0,.17,0,.11-.09,0-.05v-.07h0v-.05l-.24-.11-.11-.06,0,0h0l.06,0,.07,0,.15,0v0h0v0h0v.1l0,.13,0,.07,0,0h0l.43.05v-.09l0-.06V21l0-.15.28-.08h0v0h0v-.05h0v.09l0,.05v0l0,0,0,0,.1,0h.09v0h.05l-.05.09,0,.06v.05l.14,0,0,0h0v0l.08-.09,0-.05.06,0V21l.12.18.07.09,0,0,.36-.11.24-.16.12-.08.14-.06,0,0h0l0,.1,0,.08-.15.17-.17.17-.05.09v.1h0l.17.1.07.07,0,.08h0v-.05l0-.1,0,0,0,0v.05h.09l0,.16,0,.08,0,0h0V22h0V22l.09,0,0,0v0l.14.05h.16v0h0l-.18.15-.06.09,0,.12-.47-.07-.24,0h-.12l-.11,0-.12.12-.29.18-.16.05-.18,0v-.1l.05,0h0v0h-.05v0l-.67.11v.05l0,.09v0h0l0,.1,0,0h-.06v-.25l-.06-.2-.12-.16-.09-.06-.09,0h0v.05h0l.09.16.06.08,0,0h0v.1h-.14l-.12-.09-.09,0-.07,0-.06.06-.12.14-.07.06-.08,0-.07-.05-.07,0-.14,0-.14.06-.15,0v-.09l-.06-.14.15-.12.09-.07.08,0-.1-.08-.1-.06-.09,0h-.08l-.07,0,0,.07,0,.11v.14H61v0l-.16,0h-.18l0-.19.14,0v0h0l-.07,0,0,0v0h-.1l-1,.52-.06-.23-.05-.09-.06-.07-.07-.05-.09,0h-.11l-.13,0-.18.12h-.17v.05h0l.11.12,0,.07,0,.08h0l-.07,0h-.19l-.1,0-.1-.08L58,22.52l0,0h-.05v0h0l.07.22-1.33.08-.46.19-.57.08-.27.1-.14,0H55l-.15,0h-.09l-.38.13v0h0l0-.24-.41.23v-.14l-.79.22,0-.19H53l0,0v0l.19,0-.08-.1L53,22.9l-.11,0h-.12l-.26,0-.26.05v-.05h0v-.05l.11-.16.07-.07.08,0v-.09l-.3-.07-.14-.07-.05,0,0-.06-.27.12v0l.09-.15.05-.07,0,0v0h.33l-.07-.23.1,0,0,0v0h0l-.13-.12-.06-.07,0-.07-.24.11-.27.09H51.4l-.12-.05-.11-.09,0,0h0l.09-.13.06,0,.07,0V21.1l0-.06,0,0h0v.13l0,.09.05.07,0,0h0v0h0l0-.18.09-.29,0-.17v-.05h0v0l-.23.06-.26.12-.11.08-.09.09L51,21l0,.13-.12-.05-.06,0H50.7v0l-.09.13-.06,0-.08,0-.12,0-.18-.06L50,21.12l-.06,0,0,0h.15V21l.1.05,0,0h.05v0l.12-.15.07-.08.07,0-.1-.08,0,0,0,0,.28,0,.05-.11,0,0h0v0l-.05-.1-.08-.06-.1,0h-.1l-.45,0-.11.08-.12,0v-.05l0-.13,0-.18,0-.17,0-.05h0v0h0l0-.1,0,0h0v-.1l-.46.34-.12.07-.12,0h-.06l-.05,0,0,0-.05-.06,0-.11v0l0,0h0v-.13l0-.05.07,0,0-.19V19.1l-.16,0h-.22l-.06,0,0-.06,0-.08-.17.07-.07,0H48v0l.08-.18,0-.08v0h0l-.1-.06-.11,0-.24,0h-.11l-.09,0-.07-.06,0-.11h-.09l-.08,0-.06-.06,0-.06.06-.09.07-.06.09,0,.1,0-.16-.15H47l-.23,0-.22.06-.07,0h0v0l0,.18-.15.07-.05.06,0,.08-.1.08-.08.09-.06.1v.13H46l-.06,0h0v0l0,0v.11h0l-.09.11,0,.08,0,.24-.12.1-.07,0-.08,0,.11.08.13.05H46v0h0l-.41.22V20l0,.13,0,.12-.17.22-.19.26-.06.16v.19l-.24,0v.14l.15,0-.11.16-.07.06-.09,0v.24l0,.19-.15.39-.1.34-.06.06-.09.06-.07.06,0,0v0l0,.17,0,.17.09.31L44,23.9l-.15.21,0,.1v.12h-.05v.1l-.12-.05-.12,0v0h-.05l0,.13.19,0v.05l-.11,0-.11-.07-.14-.09-.12,0-.12,0-.23,0,0,.12,0,.05,0,0h0v-.05l-.07-.08,0,0h0l-.2.13-.21.1H42.1l-.11,0-.08,0h0l-.13,0,0,0v.05h0v-.09l-.2-.34-.14-.14-.09,0h-.1v-.05h0l.48-.52v0l-.24.06v0h0v0l0-.07,0,0v0l-.33,0-.18,0,0,0,0,0h.1v-.05h0v.05l-.06-.13-.11-.2-.11-.18,0-.05,0,0-.27,0-.11,0-.11-.08h0l.15-.17.15-.14.16-.25.12-.11.06,0h.06v0h-.05v-.09h-.1l-.07,0-.11,0-.25,0-.12,0-.1.05L40,22v.14l-.38,0h-.2l-.07,0,0,0v0l.33-.26.17-.18.05-.08,0-.05-.13-.12-.12,0-.29,0-.17-.09-.07-.05h.16l.09,0,.07-.06.05-.07.07-.15,0-.05,0,0,0,.07h.07v0l.24-.22.11-.13v0H40l0-.14h0v.05h0l-.09.06,0,0v.06h-.08l-.07,0-.13,0-.27-.12-.35,0-.18,0-.06,0h0v0l.2-.07.09-.06,0,0v-.05l0-.06-.05,0L38.72,20l-.31,0-.16.26v.17l0,.13v.07l0,.06,0,.06-.08.07-.1.07-.06,0h-.06v-.26l0,0,0,0,.05,0v0l-.6-.37.08-.21.12-.18.25-.36h0l-.13-.14-.12-.09-.12,0-.1,0-.08.07-.06.12,0,.16v.19l-1.56.24h0v0h0l-.09-.47H35.3l0,0v0l0,0,0,0,.18-.18.1-.06.13,0,.19,0,0-.17-.08-.15-.08-.13,0-.14.16-.1.08-.06,0,0v0h.05v-.05l-.2,0V18l.09,0,0,0v-.05l.24,0v-.05l.1-.1.06,0,.06,0v-.09l-.25,0,0-.14v-.09h0l0-.27,0-.09.05-.08.11-.15.15-.32.43-.39v0l-.05-.06v0h0v0h.91v-.14m1.7.27h0M5.77,19.37h0m.15.12h0M25.2,17.8h.05v0l-.06.05h0l0,0,.05-.05M5.51,19.72l.29,0v.1l-.16,0-.14-.05m.67-.06h0m-.33.07h0m43.73-3.87,0,.19h-.14V16l.13-.11M16.91,19l0,0,0,.05-.06,0h0v0m32-3,.38,0V16l-.27.08h-.08l0,0,0-.05m.44.05h0m1,.48.09,0,0,0h.06v.05l-.19,0v-.14m-9.56.95h0m-34.8,3.4h0m44.76-4.2h0m-9.94,1,.11.07,0,0,0,.07-.1-.08-.07-.1M5.85,21.24h0M40.28,18l.07.05,0,0v.05h0V18l0,0m.19,0h0M28.06,19.18h.1v0h.05v.05h-.14v.05h0v-.09h.05v-.05m12.67-1.06h.09l0,.07,0,0h0v-.09m10.32-.93,0,0,0,.05v0l0,0h0l0-.14m-.56.1.19,0-.1,0h-.09M25.43,19.81l.05.08v0h0V19.9h0l0-.09m-8.69,1,.09.08v0h0v-.05h-.05v-.1m.55.19.09,0h0l0,0-.12.05h-.05v0l0-.05m14.22-1.31v.1l0,0v.05h-.1l.05-.1.07-.1m19.7-1.82v.09l0,0,0,0v-.05h.05v-.05h0v-.05M31,19.85l.36.11.19,0h.18v-.09h-.09v0l.48,0,0,.09,0,.07,0,.07,0,.08-.32,0-.31-.07v.05h0v0h-.09v.09l.29,0v.05h.05l-.13.3-.18.18-.08.1,0,.06v.06h.05v0l.29,0v0l.09,0,0,0v0h.24l0,0,0,0v-.22l.12.05.08,0,0,.06v.4l-.1-.07h0v0h-.09v.05l.18.12.09.08,0,.05.06,0,0,0h0v.1h0L32,21.55l-.26,0H31.6v.09l.14,0h0v.05h-.23l-.1,0,0,0v.05h-.05v.05l.37.19.2.14.07.06,0,.06h0v-.05h0l.06-.05h0v0h.09v.05l-.19.06v.09h0l.51.33h-.05l-.08.12,0,.06v.07L32.37,23l0,0h-.06v.1h-.05v.05l.15,0v.05l-.28.19-.15.1-.16.05,0,.06,0,0h0l.06.06,0,0H32l.19,0,.18-.05.17-.11.1-.05.11,0,.06.11,0,.06v.07l-.4.39-.46.31h-.09v0h-.05v.05h-.05v.43l.17,0h.13l.33-.05-.09.09,0,.05V25l.13.07.06.07,0,.07h0v0l-.25,0-.12,0,0,0v0l-.11.14,0,.08v0h0l.25.07.54-.11.31,0,.1,0,0,0,0,0,.07.27-.61.11h-.1l-.07.15-.11.13-.1.12-.06.15v.06l0,.05.1.06h.27l.3-.07.22-.05.13-.26.09-.13,0,0,0,0v-.05l.34,0,.11-.14,0-.07,0-.09h0l-.13.1-.07,0-.07,0v-.09l.17-.86.28-.46,0-.1,0-.09,0-.16.06-.15,0-.18v-.2l0-.24v-.11l0-.1.06-.07.11,0,0-.16,0-.11,0-.1.07-.07.15-.12.06-.06v-.07l-.07-.06,0,0,0,0,.12-.07.05,0h0v-.09h0v.05l.07,0,0,0v0l0,0h.06v-.05H35l0,0v0h.1l-.09.09,0,.05h0l.13.09.08,0h.09v.05h-.05l-.17.26-.07.14v.12l.1.12.05.06,0,.07-.28.07v.05h0v.05H35l.23.09.11,0h.05l.13-.43.07-.24,0-.08,0,0h0v-.05h0v0l.21.06h.23v0h0l.05,0,.07,0,.16,0,.15-.07.11,0v0l0,0-.08,0-.09,0h-.09v0l-.07-.23h.07l0,0v0l.1,0,0,0,0,.05.24-.07.27,0,0-.19.11-.07.13-.11.16-.14-.14-.2-.06-.11v0h0l.11,0,.05,0,0,0v0l.1-.15,0-.07,0-.07,0-.06v0h0V21h0v0h.09V21h0l0,.17.08.16.14.12.08,0h.09l-.19.64-.09.15-.1.13-.13.09-.15,0v.24l0,.09,0,0h0v0h0v0h0v0l.05-.1,0,0,0,0v-.05h0l0,.17v.08l0,0h0l-.11.06-.09,0h-.22v.1l0,.14.28-.07-.24.31-.12.18-.05.07v0h0l.12,0,.06,0,0,.06h0v.05h0l-.13.1-.07,0-.08,0v.1l.25,0v.14l-.29.12-.15,0h-.07v0l-.08-.1v-.07h0l0-.07,0,0h0v-.09h0l-.65-.27v.05h.05l0,.05V24l.07.06,0,0v0h-.12l0,0v.05h-.05v0h0l.11.13.14.07.16,0h.18l0,.16,0,.16-.14.06v0h0v.05l.29,0v.09h0V25h-.05l-.09,0h-.11l-.09,0,0,0v0l0,.2h.1V25.2h.07l0,0v0l.16.05.06,0,0,0v0l-.33.08h-.15l-.18,0-.06,0-.06-.05-.07,0-.07,0,0,.42h0v-.05h0v-.05l.29,0v.05h0l-.06.12v.06h0l0,0,.06,0-.07.06-.11.06-.1.06,0,0v0h0l-.06.12-.13.17-.14.15-.06.05-.05,0v.05h0l.06.05,0,0,0,0h-.1l0,0v0H35.4v0h0v0l.24,0v.05l-.14.13-.13.09L35,27.2l-.2,0h-.37l-.09,0-.07.07v.11h0l.15,0h.66v.47L35,28l-.15,0v.27l0,.11,0,0h0v.09H34.9l-.17,0-.08,0h0v0l-.25.3-.14.15-.07.05-.07,0,0-.09,0,0H34l-.08.07-.09,0h-.2v.05h0v.17l0,.08,0,0,0,0-.14.06v-.1l0-.07,0-.07,0-.06,0-.07V29l0,0-.06,0-.15,0-.14,0,0,0,0-.05-.16,0h-.09l0,0,0,0h-.09l-.06.11-.11.13-.12.12-.05,0H32l-.15,0v-.05h0V29L32,29l0,0h.05l-.1-.18,0-.09v0h0l.09.08.06,0h.06v-.05h0l.14-.16.08-.07.09,0v-.09h0l-.11,0-.12,0h-.24l-.49.08v.05h-.05v.05h.05v0h0v0l0,0v-.06h.14l0,.14v.15h0l-.15-.07-.07,0,0,0v0H31.3v0h0v.05l0,.14-.19,0H31l0,0,0,0v0l0,0,.34-.48.18-.54h-.09v0l-.28.1-.31,0-.15,0-.05,0v.05l-.16-.28-.07-.15V27.4h0l0-.16,0-.06,0,0h0L30.37,27l0-.05h0l.09,0h.09l.1,0h.1v0h0V27l0-.18.09,0,0,0v-.05l0,0v0l0-.11H31l.2,0,.47-.56,0-.07h-.07v-.05l-.08.07,0,0h-.05l-.08-.06-.09,0-.19,0-.2.07-.2.05,0,.15v.06l0,0h0l-.32.13-.07-.15-.06,0,0,0h0l0,0h0v0h-.09l.2-.3.08-.29h0v0h.14v-.05h0V25.5h.24l.1,0,0,0v0l.16.07.07,0h0v0l.17-.21.1-.1,0,0h0V25h0L31.18,25l-.17,0h-.18l-.19,0-.19.09V25h-.05v0h0v-.05l.08-.09,0-.05.06,0v-.09l-.41-.11-.42,0-.23.06-.07,0v.05H29.4v-.05h0v-.14l.21-.09.11-.06,0,0v0h.05l-.05-.12v-.05h0l.12-.06L30,24h.09l.07,0,.05,0,0,.06h.09v-.05l.17-.15.06-.1,0-.1h0l-.14.06v-.09l.14-.06,0,0h.06v0h.1l0-.15,0-.07,0,0h0l0-.14-.27.14-.13.11,0,.06v.06l-.14,0-.07,0h0v0h0v-.19l0-.06,0,0h-.51v-.09h.05l.09-.1.11-.08.12-.06.13,0v-.05l-.43-.1-.23,0h-.22l-.28.09-.09,0h0v.05h.09v0H28.8l0,0h0v0l-.09,0h0l0,0-.06-.14.19-.09.23,0v0h0v-.14l-.82-.06v-.22l0-.08,0,0h0v0h0l.14-.06.22-.05.22,0h.17l.1.05.06,0h.05V22h-.05v0L29,22h-.13l-.05,0-.05,0,0,.05v.06h.05l.29,0v-.09l.66.31h0l.09-.14.11-.21,0-.1v-.13l0,0-.1,0-.22,0h-.11l-.1,0-.19-.15-.1-.07-.05,0H29V21.4H29v0l.13-.07.07-.05,0,0v0l.49-.05.12,0,.1-.05L30,21l0-.09h.09l.26.31.11.55-.18.06v.1l.07,0h0v0l.4.11.07-.13,0,0,.06,0v-.23h0l.1-.17,0-.14L31,21.12l-.16-.26-.12-.1,0-.06,0-.07.09-.06,0,0h0l0,0,0,0h.08l0,0v0H31v0H31v-.05H31l-.1,0h-.11l-.22,0v0h-.05v-.09h.16l.31-.31m20.5-2h.09l0,0h0l0,0M27.7,20.39h0m.24,0H28v0h0v.05l-.15-.08m18.12-1.63.11.1,0,.05,0,.07h-.09v0l-.07-.19M31.82,20.33l.15,0v.1h-.05l-.11-.13M17,21.83l0,.09v0L17,22v-.09h0v0M45.81,19.1l.08,0v0H46l0,0h0v0h-.14l-.08,0,0-.06V19.1m-10.46,1,.33,0,.18,0,0,0H36l0,.14h0l-.19.11-.09.07,0,0v.05h0v0h0l.19.11.09.07v0h0l-.17,0-.08,0h0v0h-.05l0,.28,0,.06-.05.05-.16.11-.18.08-.14,0v0h.05l0,0,0,.06v.15h0l-.16,0h-.5l0-.09v0h0l.08-.08.1,0-.13-.37h0v0l.53,0,.14,0,.12-.05.08-.07,0-.05v0l-.16-.1-.1,0h-.09l-.19,0v0H35v-.21l0-.19,0-.07.06-.06.1,0,.13,0v0M36.73,20l.19,0v0l-.2,0M15,22.16h0m17-1.61.1,0h0l0,0,0,0,0,0L32,20.55m4.57-.44h0m15.17-1.44h0M36.52,20.26h0v.07h.06l0,0h.15l.08.05.09.13v.11l0,0-.08,0h-.65v-.06l0,0,.09-.07.17-.07-.08-.08,0,0h0l.09-.1m-4.61.49,0,.1v0h0v0l0-.09m20.84-1.84,0,0,0,.06-.06,0,0,0h0v0m.29,0h.12l.05,0,0,0v0h-.05v.09h-.1V19h-.05v-.1m-.18.16H53v.09h0v.05h-.1l0,0v-.05h0V19M24.38,21.79l.19,0v.05h-.09v.05h0v-.05h-.09v-.05h.05v-.05M53.67,19h.12l.06,0v.05h-.09l0,.15h-.05v0h0l0-.19M37.24,20.76h0m-.9.13.22.05.12,0,0,0v0h0v0l-.1,0h0l0,0-.09,0-.05,0h-.06v-.09M53.5,19.26h.13l0,0,0,0v0h0v.05l-.07,0,0,0v0l-.06,0m-.47.09h.13l0,0-.15,0m-16.2,1.73h0m15.84-1.5.07,0,0,0,0,0h-.1v0h-.09v-.1l.09-.05M24.33,22.31l0,.06h0v0l-.05-.05m2.38-.22h.09l-.1.08-.06,0h0v0h.09v-.05m25.58-2.43h0M32.43,21.73l.1.08,0,0,.06,0V22l-.16,0h-.08v0h-.1l0,.12v0h0l0,0-.06,0,0-.12v-.05h0l.26-.31M17.31,23.22h.1l-.05,0h0l0,0m14.42-1.28h0m.34,0h0m4.66-.44.14,0-.25.4-.1.09-.08.06-.06.08,0,.13h0l-.17.05-.13,0-.1-.07-.06-.1,0-.11v-.1l0,0,0,0H36l.06,0h0v0h.05v-.05l.08-.07,0,0h.05v0h.15l.06-.08.08-.07.17-.11m-4.8.55H32l0,.07,0,0h0V22m3.39-.23.23,0v0h-.05v0l-.09.07,0,0-.06,0-.06-.14,0-.05m-.13.15.16.07.09,0h.09v.09l-.37.09,0-.29M49.84,20.6h0M5.71,24.88V25h0v0l0-.1m2.35-.08h0m20.26-1.92.19,0v.05h0V23h0l0,0-.05,0V23h0l0-.1m22.87-2.17.15,0v.09h-.1l-.06-.08m-22.3,2.16H29l0,0-.15,0m.24,0h.1l-.05,0h0l0,0m6.56-.62h0m.82,0,.07.06,0,0,0,0h0v0h0v-.1m-4.09.44h0M28.76,23h.13l0,0-.15,0m11.42-1.08.1,0,0,0v.06L40.25,22l-.07-.07m-4.56.48.09,0h0v0h0l-.28.07v-.05l.19-.06m9.23-.83h0M8.19,25.21h.1l0,.07,0,0h0v-.1M58.24,20.6h.09v0h0v0l-.15-.08M23.62,23.94h.09l0,0h0l0,0m12.56-1.2h0m-6.71.69h0m-.42.08.33,0,.18,0,.06,0,0,0h.05v.05H29.6v.05l-.32-.05-.31,0v0H29v0l0-.06m11-1h.09l-.08.08,0,0h0v0l0-.05M23.58,24.08l.13,0,.05,0,0,.05h-.05v0H23.7v-.05l-.11-.13m8.8-.83.15,0-.15,0m18.41-1.71h.1l0,0h0l0,0M28.68,23.69h.15l-.07,0h-.08m1-.09h0m-1,.24.14,0-.14,0m33-3.09h0m1,.1h0m.71-.07.34,0v0l0,0-.05,0V21h0l-.18-.07-.09,0,0,0,0,0,.09-.06M29.58,24l0,.06h0v0l-.05,0m34.53-3.28,0,.06h0v0l0,0m-2.4.51h0v0h.05l-.07,0v.06l0-.06h0v0M65.23,21l0,.06,0,.07,0,.15h0v.05h-.09v-.09l-.06-.14.13-.11m.86-.08.07.08,0,.1h0v0l-.06-.14m.34,0,.14,0V21h0v.05h-.1v0l0,0,0-.05.05-.05m-1,.13h0M7.65,26.58v.14l0-.06h0v-.05m16-1.52h.1l0,.07,0,0h0v-.1m9.23-.87.09,0,0,0h.06v0H33v0h-.09v0l-.08,0v0h0v0M66,21l0,.06,0,.08h0v.05h0v0h0L66,21m-36.95,3.6.15,0,0,.14h0v0h-.05v-.05h0l0-.2M7.77,26.81l.19,0v0h0v0H7.83v0h-.1v-.05h0v-.05m24.87-2.37h0l0,0h.06v.09h-.1v.05h-.05l0-.19m32.78-3.06.18.17.06.1,0,.13H65.6v0l-.11.05h0l0,0v0h-.14v-.09h0l.12-.29m.57-.05,0,0h0l.07,0,.07,0,.17.13.18.13.09,0h.08v0h0v0l-.19.1-.09.08,0,.12-.06.19,0,.1,0,.05v.07H66.1l-.18-.36.2-.2.07-.12,0-.13-.12-.08-.1-.09,0,0v-.12l0-.06M40.88,23.8l.2,0L41,24,41,24l0,0v0h-.05l0-.28m25.6-2.38.09,0,.05,0h0v0h-.1l-.1-.13m.8-.08h0l0,0h.06v0h0l0,.05v.12l0,0h0v.05h0l-.12-.08-.07,0H67l.11-.12.07,0,.09,0v-.05M29.29,25l.29,0v.14l-.17-.05-.07-.05L29.29,25m3.33-.27.2,0v0l-.2-.08m-9.17.92h0v.05h.05l0,0h-.05v-.09m6.47-.52.07.05,0,0v0H30l-.46.33-.14.06-.13,0h-.13L29,25.6l0,0h0l.11-.09.05-.05,0-.06h.09v.1l0,0h0l.06,0,0,0,0-.05v-.06h.05v.05l.19,0,.09-.11.06,0h.08v-.05m37-3.52h.14v.14l-.09,0-.06-.08M41,24.17h0m19.32-1.69.07.05,0,0,0,.05h0v-.05h0v-.09m-2.23.26h.09l-.09,0h0v0m-14.2,1.54h0v.05h0l0,.05h-.06v-.09M32.31,25.51h0m33.48-3.18h0v.05h0l0,0-.06,0v-.1m-.66.11h0m-1.9.23,0,.1v0h0v-.12m4.28-.4h0M41.69,24.76h0m22.45-2.13.07.05,0,0v0h0v-.1l0,0m3.09-.29.23,0,.12,0,0,0v0h0v.05h0v0l-.38.08v-.09h0v0l0-.1m-1.75.21,0,.1,0,.13h-.1v-.05h0v-.09h0l0-.1m1.62-.15,0,0,0,.06-.06,0v0h0V22.4m-1.9.27h0M7.85,28.17l.07,0,0,0,0,.05h0v.05h0v0l0,0v-.05l0,0m21.69-2.06.16,0,.13.09.09.13,0,.17,0,0h-.05l-.11,0h-.13v-.09l.07-.07v0h0l-.09-.09-.06,0h-.06l0-.05v-.05l.05-.05m-12.1,1.47h.14l0,0h0l-.07,0m5.8-.55.09,0,.07.07,0,.09,0,.1h0V27.3h-.05l-.09-.09-.05,0h-.06v0l.08-.11M7.79,28.6h.1v0l0,.24H7.73v0h0l0-.13.07-.11m15.39-1.18h0m6.67-.59h0m5.27.49h.1l0,.07,0,0h0v-.09M23.19,28.55h0m7-.62h.09v0h.05V28l-.15-.08m.27.77h.12l.05,0,0,0v0h.05v0h-.05l-.14.06h-.09v0l0-.15m4.42-.42h0m-12,1.24h0m.2.07h0m8.45-.42h.15l.07,0,0,0v0l-.19.07-.18.06v-.1h0l.08-.1M7.26,33.59h.1v.05l0,0h0v0h0v0h-.1v0h0v0m.11.18h0M22.17,35h0M3.4,37.87h0m.16.17h0m14.7-1.35h0M6.88,38.2h0m17.58-.4.09,0h0v0l0,0,0,0-.05-.09m-.31,1.35h0M5,42.34l.13,0,.05,0,0,.06-.12-.05L5,42.34M18.8,41.4h.1l0,.07,0,0h0V41.4m4.77-.26.1.07,0,0h.06v0h-.09l-.12-.17m0,.27h.09l0,.07,0,0h0v-.1M4.28,43.67l.25,0v.09l-.13,0-.12-.08m19.07-1.81h.1l0,.08h0l0,0v-.1M4.07,44l.14,0-.14,0m.15,0h0m18.36-.14.15,0V44h-.1l-.06-.09m-6.16,1.24h0m5.73.21h.14l0,.15.05,0,0,0h0l-.09.12,0,.06,0,0h-.13v0h-.05v0l.06-.1,0,0,0,0-.06-.18m-.92,2v.1l0,0h-.05v-.09l.09-.06m-.48,1,.19,0-.19,0M17.8,49h0v0h0l0,0-.05,0V49m.11.23,0,.14-.05-.06v0h.05v0"/><path fill="#231815" d="M103.27,29.58v-.76h-.16c-2.18,0-2.28-.42-2.32-2.05l-.12-3.57-.18-7.27c0-.67.11-1,.37-1.24a2.76,2.76,0,0,1,1.5-.24h.16v-.92l-2.17.05-2-.05,0,.1c-1.26,2.88-2.68,5.75-4.06,8.52l-1.93,3.94-6-12.56-1.56.05-2.57-.05v.92h.16a2.19,2.19,0,0,1,1.46.33c.27.22.38.65.38,1.44L84,22.72,84,25.55c-.09,3-1.11,3.27-2.55,3.27h-.16v.92l3.19,0,3,0v-.92h-.16a2.72,2.72,0,0,1-1.74-.34c-.3-.27-.42-.81-.42-1.93l0-1.43s.15-6.69.17-7.67c.26.5.62,1.22.62,1.22,1.84,3.64,3.74,7.41,5.41,11.18l0,.09H92l0-.11A22,22,0,0,1,93,27.6L98.06,17c0,1.07.15,10.26.15,10.26,0,1-.24,1.25-.51,1.4a4,4,0,0,1-1.65.18h-.18v.92l3.48,0,3.92,0Z"/><path fill="#231815" d="M115.34,21.7a4.19,4.19,0,0,0-2.59-1,4.67,4.67,0,0,0,2.83-3.92,3.29,3.29,0,0,0-3.43-3.39c-2.11,0-3.34,1.21-4.52,2.55l-.09.11.54.68.13-.13A3.82,3.82,0,0,1,111,15.07a2.38,2.38,0,0,1,1.81.73,2.68,2.68,0,0,1,.67,1.88c0,2-1.93,3.25-3.83,3.41h-.15V22l.17,0a4.59,4.59,0,0,1,3.5.87,3.3,3.3,0,0,1,.9,2.52A3.39,3.39,0,0,1,110.6,29a2.5,2.5,0,0,1-2.29-1.24c-.27-.36-.5-.67-.9-.67a.92.92,0,0,0-.89.89c0,.82,1.45,2.07,3.62,2.07,4.6,0,6.31-3.44,6.31-5.6A3.58,3.58,0,0,0,115.34,21.7Z"/><path fill="#231815" d="M120.69,33.38a3,3,0,0,0,2.61-2.64c0-.87-.43-1.12-1.27-1.12a1.32,1.32,0,0,1-1.34-1.32c0-.95.82-1.39,1.68-1.39a2.55,2.55,0,0,1,2.28,2.67c0,2.59-1.76,3.89-3.8,4.34Z"/><path fill="#231815" d="M134,15.93c0-1.59-.87-1.62-2.07-1.64V13.7c1.06,0,2.11,0,3.13,0s2.1,0,3.24,0v.59c-1.21,0-2.08.05-2.08,1.64V27.35c0,1.59.87,1.61,2.08,1.63v.6c-1.1,0-2.08,0-3.08,0s-2.16,0-3.29,0V29c1.2,0,2.07,0,2.07-1.63Z"/><path fill="#231815" d="M142.42,22.21c0-.85-.25-1.07-1.32-1.51v-.43a31.15,31.15,0,0,0,3-1.09c.06,0,.13.05.13.23v1.48a6.65,6.65,0,0,1,3.94-1.71c1.93,0,2.62,1.41,2.62,3.18v5.87c0,.75.5.75,1.13.75h.41v.6c-.79,0-1.59,0-2.41,0s-1.64,0-2.46,0V29h.41c.64,0,1.1,0,1.1-.75V22.34c0-1.29-.8-1.93-2.1-1.93a6.05,6.05,0,0,0-2.64,1.09v6.73c0,.75.5.75,1.14.75h.41v.6c-.8,0-1.59,0-2.41,0s-1.64,0-2.46,0V29h.41c.64,0,1.09,0,1.09-.75Z"/><path fill="#231815" d="M163.23,27.55a6,6,0,0,1-4.44,2.37,4.84,4.84,0,0,1-4.52-4.71,5.76,5.76,0,0,1,5.64-6c1.16,0,3.07.36,3.07,1.57a.91.91,0,0,1-.86,1c-1,0-.91-1.84-3.05-1.84-2,0-3,2.18-3,3.91,0,2.34,1.5,4.41,4,4.41a4.2,4.2,0,0,0,2.77-1.07Z"/><path fill="#231815" d="M166.88,28.44a1.5,1.5,0,1,1,3,0,1.5,1.5,0,0,1-3,0Z"/></g></svg>
