<?xml version="1.0" encoding="UTF-8"?>
<svg id="_レイヤー_2" data-name="レイヤー 2" xmlns="http://www.w3.org/2000/svg" xmlns:xlink="http://www.w3.org/1999/xlink" viewBox="0 0 317.19 77.88">
  <defs>
    <linearGradient id="_名称未設定グラデーション_7" data-name="名称未設定グラデーション 7" x1=".03" y1="69.63" x2="67.2" y2="69.63" gradientUnits="userSpaceOnUse">
      <stop offset="0" stop-color="#a7a2a1" stop-opacity="0"/>
      <stop offset="1" stop-color="#a7a2a1"/>
    </linearGradient>
    <linearGradient id="_名称未設定グラデーション_8" data-name="名称未設定グラデーション 8" x1="60.56" y1="68.45" x2="68.65" y2="60.51" gradientUnits="userSpaceOnUse">
      <stop offset="0" stop-color="#323333"/>
      <stop offset="1" stop-color="#5f5f5f"/>
    </linearGradient>
  </defs>
  <g id="Studyplus_Logo_Horizontal">
    <g>
      <path class="#545252" d="M316.48,44.85v-1.4c0-3.92-1.81-8.59-9.82-8.59-6.49,0-10.75,2.75-10.75,8.65,0,5.03,1.99,7.42,6.72,9.06l5.14,1.81c2.22,.76,3.45,2.28,3.45,4.62,0,2.86-1.69,4.62-5.14,4.62-3.62,0-4.91-1.99-4.91-5.61v-.99h-5.61v1.17c0,6.08,2.4,9.76,10.35,9.76,6.37,0,11.28-2.86,11.28-9.58,0-4.97-2.16-7.48-6.84-9.06l-4.03-1.4c-3.33-1.17-4.44-2.16-4.44-4.62,0-2.92,1.99-4.09,4.5-4.09,3.27,0,4.15,2.34,4.15,4.85v.82h5.96Zm-33.31,22.27h5.96v-31.44h-6.31v21.97c0,3.51-2.45,5.26-5.14,5.26s-4.27-1.17-4.27-4.68v-22.56h-6.31v21.97c0,8.12,3.16,10.29,7.83,10.29,3.51,0,6.49-1.69,8.07-4.5h.18v3.68Zm-29.34,0h6.31V25.39h-6.31v41.73Zm-24.49-16.07c0-6.72,.99-11.16,5.32-11.16s5.32,4.5,5.32,11.63c0,8.71-1.64,11.4-5.26,11.4-4.44,0-5.38-4.32-5.38-11.86m-5.96,26.36h6.31v-13.97h.12c1.17,2.81,3.74,4.5,7.13,4.5,4.32,0,9.7-2.92,9.7-16.13,0-10.81-2.92-16.95-10.11-16.95-3.45,0-5.79,1.87-7.07,4.68h-.12v-3.86h-5.96v41.73Zm-29.22-41.73l8.94,32.14-.82,2.57c-.7,1.99-2.1,2.45-4.27,2.45-.7,0-1.34-.12-2.05-.23v5.03c.82,.12,1.69,.23,2.51,.23,6.49,.12,8.53-.99,10.99-9.58l8.65-32.61h-6.6l-5.03,23.61h-.12l-5.44-23.61h-6.78Zm-11.17,16.07c0,6.72-.99,11.16-5.32,11.16s-5.32-4.5-5.32-11.63c0-8.47,1.29-11.4,4.91-11.4,4.85,0,5.73,4.32,5.73,11.86m0,15.37h5.96V25.39h-6.31v13.97h-.12c-1.17-2.81-3.74-4.5-7.13-4.5-4.79,0-9.7,2.16-9.7,16.13,0,10.81,2.92,16.95,10.29,16.95,4.5,0,6.08-2.63,6.9-4.68h.12v3.86Zm-28.99,0h5.96v-31.44h-6.31v21.97c0,3.51-2.45,5.26-5.14,5.26s-4.27-1.17-4.27-4.68v-22.56h-6.31v21.97c0,8.12,3.16,10.29,7.83,10.29,3.51,0,6.49-1.69,8.06-4.5h.18v3.68Zm-38.34-26.77h4.32v19.52c0,6.43,2.1,7.6,6.37,7.6,1.99,0,3.74-.18,5.08-.53v-4.68c-.58,.12-1.34,.18-2.28,.18-2.16,0-2.86-.88-2.86-3.33v-18.76h5.14v-4.68h-5.14v-8.94h-6.31v8.94h-4.32v4.68Zm-30.68,13.85v.99c0,5.84,2.34,12.74,12.68,12.74,8.42,0,13.79-3.68,13.79-12.57,0-5.73-2.57-8.94-8.47-11.05l-4.5-1.64c-4.44-1.69-6.25-3.51-6.25-7.07,0-4.44,2.75-6.02,5.61-6.02,4.15,0,5.84,2.22,5.84,6.02v.88h6.66v-.94c0-4.32-1.11-10.99-11.81-10.99-7.83,0-12.97,4.21-12.97,11.81,0,5.96,2.63,9.12,8.71,11.45l4.56,1.58c3.74,1.11,5.96,3.04,5.96,7.42,0,3.1-2.1,6.08-6.31,6.08-4.62,0-6.84-2.57-6.84-7.66v-1.05h-6.66Z"/>
      <g>
        <polygon id="SVGID" fill="url(#_名称未設定グラデーション_7)" points=".03 72.42 67.2 68.96 .03 66.84 .03 72.42"/>
        <rect fill="#e74226" x="-2.59" y="11.36" width="35.13" height="7.22" transform="translate(-6.2 14.97) rotate(-44.98)"/>
        <rect fill="#f3b418" x="6.07" y="21.45" width="28.19" height="7.22" transform="translate(-11.81 21.59) rotate(-44.98)"/>
        <rect fill="#8dc32e" x="14.22" y="30.33" width="24.66" height="7.22" transform="translate(-16.22 28.7) rotate(-44.98)"/>
        <rect fill="#35b498" x="20.36" y="34.34" width="34.89" height="7.22" transform="translate(-15.76 37.84) rotate(-44.99)"/>
        <rect class="#3071b7" x="26.59" y="38.57" width="44.54" height="7.22" transform="translate(-15.51 46.94) rotate(-45.03)"/>
        <polygon fill="#e2caa6" points="38.2 63 67.21 67.15 63.05 38.16 38.2 63"/>
        <polygon fill="#faead5" points="49.87 51.33 67.21 67.15 63.05 38.16 49.87 51.33"/>
        <polygon fill="#efdbb3" points="44.34 56.86 67.21 67.15 56.54 44.67 44.34 56.86"/>
        <polygon id="SVGID-2" data-name="SVGID" fill="url(#_名称未設定グラデーション_8)" points="58.04 65.84 67.2 67.15 65.89 58 58.04 65.84"/>
      </g>
    </g>
  </g>
</svg>
