<?xml version="1.0" encoding="UTF-8"?>
<svg id="_レイヤー_2" data-name="レイヤー 2" xmlns="http://www.w3.org/2000/svg" viewBox="0 0 307.42 140">
  <g id="LOGO">
    <g id="logo-Y-W">
      <path d="M85.77,116.51c-25.28,0-45.11-20.45-45.11-46.51S60.49,23.49,85.77,23.49s44.76,20.95,44.76,46.51-20.16,46.51-44.76,46.51Zm0-114.08c-8.31,0-16.56,1.43-23.59,4.08-7.44,2.81-14.39,7.02-20.09,12.19-11.08,10.03-18.47,23.09-21.26,37.55V5.06H0V134.94H16.98l11.55-31.75c10.79,21.31,32.58,34.39,57.24,34.39,35.86,0,64.94-30.25,64.94-67.57S121.63,2.43,85.77,2.43Z"/>
      <g>
        <rect x="248.04" y="18.43" width="60.84" height="21.06" transform="translate(61.08 205.38) rotate(-45)"/>
        <path d="M249.94,97.4l42.59,42.59,14.89-14.89L182.31,0l-14.89,14.89,42.59,42.59c.4,.4,5.88,5.87,6.24,6.3,1.75,2.08,2.63,3.75,2.63,6.2s-.88,4.12-2.63,6.21c-.36,.43-5.84,5.92-6.24,6.31l-42.59,42.6,14.89,14.89,42.59-42.59c.4-.4,5.87-5.88,6.3-6.24,2.09-1.75,3.75-2.63,6.2-2.63s4.12,.88,6.21,2.63c.43,.36,5.92,5.84,6.31,6.24Z"/>
      </g>
    </g>
  </g>
</svg>