<?xml version="1.0" encoding="UTF-8"?>
<svg id="_レイヤー_2" data-name="レイヤー 2" xmlns="http://www.w3.org/2000/svg" viewBox="0 0 390.39 111.69">
  <g id="_レイヤー_1-2" data-name="レイヤー 1">
    <g>
      <g>
        <g>
          <path fill="#e83817" d="M69.61,22.73c-21.83,0-39.53,14.39-39.53,32.15s17.7,32.15,39.53,32.15,39.53-14.39,39.53-32.15-17.7-32.15-39.53-32.15Zm0,63.61s-1.44-31.49-33.2-48.08c0,0,30.46,15.58,65.64,.04,0,0-28.02,12.23-32.45,48.04Z"/>
          <path fill="#e83817" d="M69.61,95.27c-28.96,0-47.76-16.73-49.66-40.1h.66c2.12,14.41,14.23,35.13,49,35.13s46.89-20.72,49.01-35.13h.66c-1.9,23.37-20.7,40.1-49.66,40.1Z"/>
          <path fill="#e83817" d="M69.61,103.48c-28.11,0-54.93-15.36-59.59-48.3h.62c4.84,28.85,31.35,43.27,58.97,43.27s53.98-14.06,58.97-43.27h.66c-3.6,32.14-31.03,48.3-59.63,48.3Z"/>
          <path fill="#e83817" d="M69.61,111.69C37.8,111.69,3.05,93.89,0,55.18H.59c6.78,39.25,43.21,51.46,69.03,51.46s62.25-12.21,69.03-51.46h.59c-3.05,38.72-37.8,56.51-69.61,56.51Z"/>
        </g>
        <g>
          <path fill="#e83817" d="M10.61,30.76l1.35-2.49c.06-.11,.02-.25-.09-.31l-.61-.33c-.05-.03-.12-.04-.17-.02-.06,.02-.1,.06-.13,.11l-3.3,6.12c-.06,.11-.02,.25,.09,.31l.61,.33c.05,.03,.12,.04,.17,.02,.06-.02,.1-.06,.13-.11l1.34-2.5,6.74,3.64c.05,.03,.12,.03,.17,.02,.06-.02,.11-.06,.14-.11l.4-.74c.06-.11,.02-.25-.09-.31l-6.74-3.64Z"/>
          <path fill="#e83817" d="M20.98,22.76c-1.76-1.54-4.42-2.09-6.41,.17-.81,.92-1.2,1.97-1.13,3.06,.08,1.21,.71,2.39,1.78,3.32,1.76,1.54,4.42,2.09,6.42-.18,.8-.91,1.19-1.97,1.12-3.05-.08-1.21-.71-2.39-1.78-3.33Zm.56,3.53c.05,.75-.21,1.45-.77,2.08-1.5,1.71-3.47,1.05-4.7-.03-.84-.74-1.35-1.67-1.41-2.56-.05-.75,.21-1.45,.78-2.09,1.49-1.7,3.46-1.04,4.69,.04,.84,.74,1.36,1.67,1.41,2.56Z"/>
          <path fill="#e83817" d="M30.57,20.62l-6.12-1.44,.9-4.99c.02-.09-.03-.19-.11-.23-.08-.05-.18-.04-.26,.01l-.89,.69s-.07,.08-.09,.14l-1.13,6.27-2.51-3.25c-.08-.1-.22-.12-.32-.04l-.66,.51s-.08,.09-.09,.15c0,.06,0,.12,.05,.17l5.24,6.8c.08,.1,.22,.12,.32,.04l.66-.51s.08-.09,.09-.15c0-.06,0-.12-.05-.17l-1.74-2.25,.34-1.9,5.39,1.26c.07,.02,.14,0,.19-.04l.86-.66c.07-.05,.1-.14,.08-.23-.02-.09-.08-.15-.17-.17Z"/>
          <path fill="#e83817" d="M32.28,15.97l.54-6.03c0-.08-.03-.17-.1-.21-.07-.05-.16-.05-.24,0l-.87,.49c-.07,.04-.11,.11-.12,.18l-.35,4.86-4.34-2.22c-.07-.04-.15-.03-.22,0l-.87,.49c-.07,.04-.12,.12-.12,.2,0,.08,.05,.16,.13,.2l5.42,2.68,1.7,3.02c.03,.05,.08,.09,.14,.11,.06,.02,.12,0,.17-.02l.73-.41c.11-.06,.15-.2,.09-.31l-1.7-3.02Z"/>
          <path fill="#e83817" d="M40.48,6.65c-.05-.12-.18-.17-.3-.12l-.77,.31c-.06,.02-.1,.07-.12,.12-.02,.06-.02,.12,0,.18l2,4.92c.34,.82,.4,1.51,.18,2.04-.21,.5-.67,.89-1.41,1.19-.73,.3-1.33,.34-1.83,.13-.53-.23-.96-.76-1.29-1.59,0,0-2-4.93-2-4.93-.05-.12-.18-.17-.3-.13l-.77,.31c-.06,.02-.1,.07-.12,.12-.02,.06-.02,.12,0,.17l2.07,5.09c.83,2.03,2.57,2.73,4.68,1.88,1.08-.44,1.8-1.08,2.15-1.91,.34-.8,.31-1.73-.09-2.71l-2.07-5.09Z"/>
          <path fill="#e83817" d="M56.26,7.23l-.82,.15c-.12,.02-.19,.13-.19,.24,.1,1.27-.5,2.69-2.08,2.98-2.23,.42-3.38-1.31-3.68-2.92-.21-1.1-.03-2.15,.47-2.89,.42-.62,1.06-1.01,1.9-1.17,1.22-.23,2.31,.33,2.78,1.42,.04,.1,.15,.15,.25,.13l.82-.15c.06-.01,.12-.05,.15-.11,.03-.06,.04-.12,.02-.18-.62-1.97-2.63-2.54-4.23-2.24-1.2,.22-2.16,.82-2.77,1.71-.68,1-.92,2.32-.66,3.71,.43,2.3,2.19,4.37,5.16,3.82,2.11-.39,3.31-2.04,3.14-4.3,0-.07-.04-.12-.09-.16-.05-.04-.12-.06-.18-.04Z"/>
          <path fill="#e83817" d="M60.92,.72c-1.22,.09-2.24,.58-2.94,1.41-.79,.92-1.16,2.2-1.05,3.62,.18,2.33,1.71,4.58,4.72,4.35,1.21-.09,2.22-.58,2.93-1.4,.79-.92,1.16-2.21,1.05-3.62-.18-2.33-1.71-4.58-4.71-4.35Zm3.42,4.45c.09,1.11-.2,2.14-.78,2.82-.49,.57-1.16,.89-2.01,.95-2.26,.17-3.22-1.67-3.34-3.3-.09-1.11,.2-2.14,.78-2.82,.49-.57,1.17-.89,2.02-.96,2.26-.17,3.2,1.67,3.33,3.3Z"/>
          <path fill="#e83817" d="M73.67,7.03v-.28c-.03-.68-.19-1.56-1.03-1.98,.78-.38,1.27-1.15,1.29-2.16,.02-.69-.19-1.25-.6-1.69-.5-.52-1.29-.82-2.23-.84L67.08,0c-.12,0-.23,.1-.23,.22l-.2,8.59c0,.06,.02,.12,.06,.16,.04,.04,.1,.07,.16,.07l.84,.02c.12,0,.23-.1,.23-.22l.08-3.59,2.94,.07c1.29-.02,1.42,.9,1.48,2.3,0,0,0,.17,0,.17,.01,.39,.03,.93,.23,1.27,.04,.07,.11,.11,.19,.11l.92,.02c.09,0,.17-.05,.21-.13,.04-.08,.03-.17-.03-.24-.26-.32-.28-1.24-.29-1.8Zm-5.56-5.86l2.89,.07c.57,.01,1,.17,1.28,.46,.24,.26,.36,.61,.35,1.06-.02,.99-.9,1.43-1.7,1.41l-2.89-.07,.07-2.93Z"/>
          <path fill="#e83817" d="M79.77,.78l-3.87-.45c-.06,0-.12,0-.17,.05-.05,.04-.08,.09-.08,.15l-1,8.53c-.01,.12,.07,.24,.2,.25l.83,.1c.06,0,.12-.01,.17-.05,.05-.04,.08-.09,.08-.15l.4-3.43,2.81,.33c.87,.1,1.63-.08,2.19-.52,.52-.41,.84-1.04,.94-1.81,.19-1.64-.77-2.79-2.5-2.99Zm-2.95,.81l2.63,.31c.64,.08,1.69,.4,1.54,1.72-.05,.45-.23,.8-.51,1.02-.33,.26-.81,.36-1.38,.29l-2.63-.31,.36-3.04Z"/>
          <path fill="#e83817" d="M87.96,2.04c-1.19-.27-2.31-.1-3.23,.48-1.02,.65-1.76,1.76-2.07,3.15-.51,2.28,.29,4.88,3.23,5.54,1.19,.27,2.3,.1,3.21-.48,1.02-.65,1.76-1.77,2.07-3.15,.51-2.28-.28-4.88-3.22-5.54Zm1.96,5.26c-.24,1.09-.82,1.99-1.57,2.47-.63,.4-1.37,.51-2.2,.32-2.22-.5-2.59-2.54-2.23-4.14,.24-1.09,.82-1.99,1.57-2.46,.63-.4,1.38-.51,2.21-.32,2.21,.5,2.57,2.54,2.21,4.13Z"/>
          <path fill="#e83817" d="M98.07,12.49l.08-.27c.19-.66,.31-1.54-.36-2.19,.86-.11,1.56-.7,1.9-1.65,.5-1.43-.23-2.69-1.91-3.29l-3.79-1.34c-.06-.02-.12-.02-.17,0-.05,.03-.1,.07-.12,.13l-2.85,8.1c-.04,.12,.02,.25,.14,.29l.79,.28c.06,.02,.12,.02,.17,0,.05-.03,.1-.07,.12-.13l1.19-3.38,2.78,.98c1.24,.38,1.08,1.29,.69,2.64,0,0-.05,.17-.05,.17-.11,.38-.26,.89-.18,1.28,.02,.08,.07,.14,.15,.17l.87,.31c.08,.03,.18,0,.24-.06,.06-.06,.08-.16,.05-.24-.15-.38,.12-1.27,.28-1.8Zm-3.47-7.29l2.73,.96c1.03,.36,1.4,1.04,1.08,1.95-.13,.36-.36,.63-.69,.78-.39,.19-.88,.2-1.36,.03l-2.73-.96,.97-2.76Z"/>
          <path fill="#e83817" d="M106.07,8.81l-.84-.41c-.08-.04-.18-.03-.25,.03l-6.98,6.13c-.06,.05-.09,.13-.08,.2,0,.07,.06,.14,.12,.17l.8,.4c.08,.04,.18,.03,.25-.04l2.02-1.82,3.3,1.63-.21,2.71c0,.09,.04,.18,.13,.22l.8,.4c.07,.03,.15,.03,.21,0,.07-.04,.11-.1,.11-.18l.72-9.22c0-.09-.04-.18-.13-.22Zm-1.19,1.27l-.35,3.79-2.5-1.23,2.85-2.55Z"/>
          <path fill="#e83817" d="M114.13,14.9c.11,.07,.25,.04,.31-.06l.39-.58c.03-.05,.05-.11,.03-.17-.01-.06-.05-.11-.1-.14l-5.8-3.84c-.1-.07-.24-.04-.31,.06l-.39,.58c-.03,.05-.04,.11-.03,.17,.01,.06,.05,.11,.1,.14l2.36,1.57-4.24,6.39c-.03,.05-.04,.11-.03,.17s.05,.11,.1,.14l.7,.46c.11,.07,.25,.04,.31-.06l4.24-6.39,2.36,1.57Z"/>
          <path fill="#e83817" d="M117.69,16.05l-.65-.53s-.11-.06-.17-.05c-.06,0-.12,.04-.15,.08l-5.4,6.68c-.08,.1-.06,.24,.04,.32l.65,.53s.11,.05,.17,.05c.06,0,.11-.04,.15-.08l5.4-6.68c.08-.1,.06-.24-.03-.32Z"/>
          <path fill="#e83817" d="M122.52,20.31c-.84-.89-1.85-1.38-2.94-1.41-1.21-.04-2.44,.48-3.47,1.45-1.71,1.61-2.5,4.21-.43,6.41,.83,.88,1.84,1.37,2.93,1.4,1.21,.04,2.45-.48,3.48-1.45,1.7-1.61,2.5-4.2,.43-6.39Zm-1.32,5.46c-.82,.77-1.79,1.19-2.68,1.17-.75-.02-1.42-.35-2-.96-1.56-1.65-.72-3.55,.47-4.67,.81-.77,1.79-1.19,2.68-1.17,.75,.02,1.43,.35,2.01,.97,1.55,1.65,.71,3.54-.48,4.67Z"/>
          <path fill="#e83817" d="M130.3,31.86l-.41-.73c-.06-.11-.2-.15-.31-.09l-5.75,3.21,3.56-7.39c.03-.07,.03-.15,0-.21l-.46-.82c-.06-.11-.2-.15-.31-.09l-7.49,4.19c-.05,.03-.09,.08-.11,.14-.02,.06,0,.12,.02,.17l.41,.73c.06,.11,.2,.15,.31,.09l5.75-3.21-3.55,7.4c-.03,.07-.03,.14,0,.21l.46,.81c.06,.11,.2,.15,.31,.09l7.5-4.19c.05-.03,.09-.08,.11-.14,.02-.06,0-.12-.02-.17Z"/>
        </g>
      </g>
      <g>
        <path d="M236.75,72.4h12.39c6.23,0,10.18-2.76,10.18-8.99v-23.36c0-6.23-3.95-8.99-10.18-8.99h-28.15v-6h44.93v-7.79h-44.93v-6h-14.38v6h-44.93v7.79h44.93v6h-28.16c-6.23,0-10.18,2.76-10.18,8.99v23.36c0,6.23,3.95,8.99,10.18,8.99h12.4c-10.97,10.68-24.99,20.94-31.71,25.18h21.96c7.05-5.11,17.13-13.94,25.51-22.9v26.46h14.38v-26.46c8.38,8.96,18.46,17.79,25.51,22.9h21.96c-6.72-4.24-20.74-14.5-31.71-25.18Zm8.8-10.48c0,1.81-1.61,3.29-3.58,3.29h-20.98v-9.88h24.56v6.59Zm-3.58-23.66c1.97,0,3.58,1.48,3.58,3.3v6.59h-24.56v-9.88h20.98Zm-59.92,3.3c0-1.82,1.61-3.29,3.58-3.3h20.98v9.88h-24.56v-6.59Zm0,20.37v-6.59h24.56v9.88h-20.98c-1.97,0-3.58-1.48-3.58-3.29Z"/>
        <g>
          <path d="M378.24,72.13h-15.42c4.87,7.06,9.97,14.49,12.64,19.99h14.93c-3.01-5.84-7.32-12.39-12.15-19.99Z"/>
          <path d="M330.61,88.44v-20.25h4.92c3.45,5.36,7.97,13.27,10.56,18.96h14.88c-2.47-5.15-7.5-13.69-10.83-18.96h19.16c6.87-.03,11.34-3.3,11.34-10.18v-19.77c0-6.88-4.47-10.16-11.34-10.18h-8.47s7.99-5.78,9.28-7.07c2.6-2.6,1.4-7.91-3.42-7.91h-47.65c-2.29,0-4.35,.19-6.61,1.53-3.3,1.97-13.16,9.72-24.05,12.97v7.66h73.39c2.47,0,4.49,2.18,4.49,4.49v4.79h-77.87v7.19h77.87v4.79c0,2.31-2.01,4.49-4.49,4.49h-73.39v7.19h27.12v24.01c0,5.95,4.9,8.64,12.58,8.64h46.68v-8.72h-39.15c-3.03,0-5.03-1.52-5.03-3.68Zm20.17-67.26c-.63,.64-7.52,5.28-10.27,6.86h-27.29c-.6,0-.58-.5-.25-.65,3.7-1.74,8.11-4.32,12.95-7.73h24.3c1.07,0,1.26,.81,.56,1.52Z"/>
          <path d="M282.75,97.58h16.09c2.17-3.85,7.96-17.08,10.92-25.45h-14.01c-4.94,10.95-9.75,20.42-12.99,25.45Z"/>
        </g>
      </g>
    </g>
  </g>
</svg>
