<?xml version="1.0" encoding="UTF-8" standalone="no"?>
<!-- Created with Inkscape (http://www.inkscape.org/) -->

<svg
   version="1.1"
   id="svg2"
   width="2560"
   height="1440"
   viewBox="0 0 2560 1440"
   sodipodi:docname="youtrust_logo_fixed_rgb.ai"
   inkscape:export-filename="youtrust_logo_fixed_rgb.svg"
   inkscape:export-xdpi="96"
   inkscape:export-ydpi="96"
   xmlns:inkscape="http://www.inkscape.org/namespaces/inkscape"
   xmlns:sodipodi="http://sodipodi.sourceforge.net/DTD/sodipodi-0.dtd"
   xmlns="http://www.w3.org/2000/svg"
   xmlns:svg="http://www.w3.org/2000/svg">
  <defs
     id="defs6">
    <clipPath
       clipPathUnits="userSpaceOnUse"
       id="clipPath16">
      <path
         d="M 0,1080 H 1920 V 0 H 0 Z"
         id="path14" />
    </clipPath>
  </defs>
  <sodipodi:namedview
     id="namedview4"
     pagecolor="#ffffff"
     bordercolor="#000000"
     borderopacity="0.25"
     inkscape:showpageshadow="2"
     inkscape:pageopacity="0.0"
     inkscape:pagecheckerboard="0"
     inkscape:deskcolor="#d1d1d1"
     showgrid="false" />
  <g
     id="g8"
     inkscape:groupmode="layer"
     inkscape:label="youtrust_logo_fixed_rgb"
     transform="matrix(1.3333333,0,0,-1.3333333,0,1440)">
    <g
       id="g10">
      <g
         id="g12"
         clip-path="url(#clipPath16)">
        <g
           id="g18"
           transform="translate(786.9687,540)">
          <path
             d="m 0,0 v 0 c 0,-45.737 23.281,-62 52,-62 28.719,0 52,16.263 52,62 C 104,45.738 80.889,62 52,62 23.111,62 0,45.738 0,0 M 81,0 C 81,-30.492 65.289,-38.5 52,-38.5 38.711,-38.5 23,-30.492 23,0 23,30.492 39.289,38.623 52,38.623 64.711,38.623 81,30.492 81,0"
             style="fill:#192b2a;fill-opacity:1;fill-rule:nonzero;stroke:none"
             id="path20" />
        </g>
        <g
           id="g22"
           transform="translate(994.0474,600)">
          <path
             d="m 0,0 c -1.657,0 -3,-1.343 -3,-3 v -65 c 0,-26.5 -15,-31 -23,-31 -8,0 -23,4.5 -23,31 v 65 c 0,1.657 -1.343,3 -3,3 h -17 c -1.657,0 -3,-1.343 -3,-3 v -65 c 0,-41.5 27,-54 46,-54 19,0 46,11.5 46,54 v 65 c 0,1.657 -1.343,3 -3,3 z"
             style="fill:#192b2a;fill-opacity:1;fill-rule:nonzero;stroke:none"
             id="path24" />
        </g>
        <g
           id="g26"
           transform="translate(1354.1265,600)">
          <path
             d="m 0,0 c -1.657,0 -3,-1.343 -3,-3 v -65 c 0,-26.5 -15,-31 -23,-31 -8,0 -23,4.5 -23,31 v 65 c 0,1.657 -1.343,3 -3,3 h -17 c -1.657,0 -3,-1.343 -3,-3 v -65 c 0,-41.5 27,-54 46,-54 19,0 46,11.5 46,54 v 65 c 0,1.657 -1.343,3 -3,3 z"
             style="fill:#192b2a;fill-opacity:1;fill-rule:nonzero;stroke:none"
             id="path28" />
        </g>
        <g
           id="g30"
           transform="translate(1131.5474,597)">
          <path
             d="m 0,0 c 0,1.657 -1.343,3 -3,3 h -30.5 -23 -30.5 c -1.657,0 -3,-1.343 -3,-3 v -17 c 0,-1.657 1.343,-3 3,-3 h 30.5 v -94 c 0,-1.657 1.343,-3 3,-3 h 17 c 1.657,0 3,1.343 3,3 v 94 H -3 c 1.657,0 3,1.343 3,3 z"
             style="fill:#192b2a;fill-opacity:1;fill-rule:nonzero;stroke:none"
             id="path32" />
        </g>
        <g
           id="g34"
           transform="translate(1601.603,597)">
          <path
             d="m 0,0 c 0,1.657 -1.343,3 -3,3 h -30.5 -23 -30.5 c -1.657,0 -3,-1.343 -3,-3 v -17 c 0,-1.657 1.343,-3 3,-3 h 30.5 v -94 c 0,-1.657 1.343,-3 3,-3 h 17 c 1.657,0 3,1.343 3,3 v 94 H -3 c 1.657,0 3,1.343 3,3 z"
             style="fill:#192b2a;fill-opacity:1;fill-rule:nonzero;stroke:none"
             id="path36" />
        </g>
        <g
           id="g38"
           transform="translate(1182.0474,543)">
          <path
             d="M 0,0 V 34 H 23 C 33.198,34.095 44,30 44,17 44,4 32.374,0 23,0 Z M 67,17 C 67,36.5 56.5,57 27,57 H 0 -20 c -1.65,0 -3,-1.35 -3,-3 v -77 -37 c 0,-1.657 1.343,-3 3,-3 h 17 c 1.657,0 3,1.343 3,3 v 37 h 27 c 1.152,0 2.272,0.035 3.367,0.096 L 43.309,-60.966 C 43.722,-62.182 44.864,-63 46.149,-63 h 16.663 c 2.055,0 3.501,2.02 2.84,3.966 L 51.189,-16.498 C 62.518,-8.899 67,4.263 67,17"
             style="fill:#192b2a;fill-opacity:1;fill-rule:nonzero;stroke:none"
             id="path40" />
        </g>
        <g
           id="g42"
           transform="translate(1402.7222,508.5137)">
          <path
             d="m 0,0 15.59,8.901 c 1.485,0.848 3.387,0.29 4.155,-1.237 4.708,-9.362 13.096,-14.607 27.024,-14.607 14.593,0 20.112,5.124 20.112,11.819 0,8.927 -8.684,12.36 -26.969,17.512 C 21.1,27.709 3.381,35.435 3.381,58.269 c 0,22.662 18.774,35.217 39.871,35.217 19.122,0 33.997,-8.618 42.545,-23.783 0.818,-1.452 0.323,-3.292 -1.129,-4.111 L 69.487,57.03 c -1.417,-0.799 -3.225,-0.329 -4.047,1.074 -4.399,7.511 -10.937,11.812 -22.188,11.812 -10.197,0 -16.871,-4.093 -16.871,-10.96 0,-7.383 5.444,-11.331 24.08,-16.825 19.516,-6.009 39.42,-12.361 39.42,-36.912 0,-22.49 -17.618,-35.733 -43.816,-35.733 -23.932,0 -40.058,10.288 -47.317,26.678 C -1.877,-2.424 -1.341,-0.766 0,0"
             style="fill:#192b2a;fill-opacity:1;fill-rule:nonzero;stroke:none"
             id="path44" />
        </g>
        <g
           id="g46"
           transform="translate(750.4585,598.2476)">
          <path
             d="m 0,0 -30.557,-53.021 c -0.192,-0.333 -0.674,-0.333 -0.866,0 L -61.98,0 c -0.556,0.964 -1.92,1.752 -3.032,1.752 h -19.143 c -2.384,0 -3.358,-1.688 -2.164,-3.752 l 43.829,-75.748 v -39.5 c 0,-1.65 1.35,-3 3,-3 h 17 c 1.65,0 3,1.35 3,3 v 39.5 L 24.339,-2 c 1.194,2.064 0.221,3.752 -2.164,3.752 H 3.033 C 1.92,1.752 0.556,0.964 0,0"
             style="fill:#192b2a;fill-opacity:1;fill-rule:evenodd;stroke:none"
             id="path48" />
        </g>
        <g
           id="g50"
           transform="translate(564.146,516.1689)">
          <path
             d="m 0,0 -50.443,12.603 c -10.5,34.573 -42.622,59.736 -80.626,59.736 -23.278,0 -44.351,-9.441 -59.6,-24.701 h -10e-4 l 10e-4,-10e-4 c -10e-4,0 -10e-4,0 -10e-4,0 v 10e-4 c -9.527,-9.515 -22.682,-15.4 -37.211,-15.4 -0.662,0 -1.321,0.017 -1.977,0.041 -0.173,-2.795 -0.272,-5.61 -0.272,-8.448 0,-36.491 14.506,-69.589 38.058,-93.86 15.345,-16.105 37.002,-26.14 61.003,-26.14 23.269,0 44.335,9.434 59.583,24.684 z"
             style="fill:#157577;fill-opacity:1;fill-rule:nonzero;stroke:none"
             id="path52" />
        </g>
        <g
           id="g54"
           transform="translate(565.5586,633.8755)">
          <path
             d="m 0,0 c -15.345,16.095 -36.996,26.125 -60.99,26.125 -23.266,0 -44.329,-9.431 -59.576,-24.678 l -70.655,-70.654 c -0.097,-0.096 -0.198,-0.189 -0.295,-0.285 -0.241,-0.248 -0.488,-0.49 -0.734,-0.732 -6.606,-6.541 -14.931,-11.348 -24.241,-13.674 1.718,-3.345 3.58,-6.603 5.563,-9.778 -0.001,-0.002 -0.003,-0.005 -0.005,-0.007 0.442,-0.708 0.893,-1.409 1.348,-2.109 0.033,-0.051 0.064,-0.103 0.098,-0.155 l 0.002,0.003 c 24.057,-36.865 65.666,-61.234 112.97,-61.234 38.342,0 72.941,16.011 97.485,41.708 9.286,8.205 21.486,13.187 34.852,13.187 0.662,0 1.321,-0.016 1.977,-0.041 0.173,2.795 0.272,5.611 0.272,8.449 C 38.071,-57.377 23.56,-24.273 0,0"
             style="fill:#309da5;fill-opacity:1;fill-rule:nonzero;stroke:none"
             id="path56" />
        </g>
      </g>
    </g>
  </g>
</svg>
