<?xml version="1.0" encoding="UTF-8"?>
<svg xmlns="http://www.w3.org/2000/svg" xmlns:xlink="http://www.w3.org/1999/xlink" viewBox="0 0 1368.98 1160">
  <defs>
    <linearGradient id="_名称未設定グラデーション_18" data-name="名称未設定グラデーション 18" x1="994.4" y1="251.84" x2="644.05" y2="251.84" gradientUnits="userSpaceOnUse">
      <stop offset="0" stop-color="#f00a14"/>
      <stop offset=".15" stop-color="#f33232"/>
      <stop offset=".35" stop-color="#f76157"/>
      <stop offset=".54" stop-color="#fa8774"/>
      <stop offset=".72" stop-color="#fda289"/>
      <stop offset=".88" stop-color="#feb396"/>
      <stop offset="1" stop-color="#ffb99b"/>
    </linearGradient>
    <linearGradient id="_名称未設定グラデーション_18-2" data-name="名称未設定グラデーション 18" x1="15371.36" y1="6113.84" x2="15021" y2="6113.84" gradientTransform="translate(2837.07 16546.1) rotate(-120)" xlink:href="#_名称未設定グラデーション_18"/>
    <linearGradient id="_名称未設定グラデーション_18-3" data-name="名称未設定グラデーション 18" x1="3106.24" y1="15633.64" x2="2755.89" y2="15633.64" gradientTransform="translate(15747.88 5816.08) rotate(120)" xlink:href="#_名称未設定グラデーション_18"/>
  </defs>
  <g id="back">
    <rect fill="#fff" x="104.49" y="-104.49" width="1160" height="1368.98" transform="translate(1264.49 -104.49) rotate(90)"/>
  </g>
  <g id="logo">
    <g>
      <g>
        <path fill="url(#_名称未設定グラデーション_18)" d="M790.12,200c-36.07,0-64.65,5.87-85.88,17.84-25.91,14.6-44.97,36.71-56.69,61.75-3.63,7.75-6.52,15.82-8.68,24.09h282.67c13.52,.09,17.4-1.9,23.94-12.68l52.53-90.99h-207.88Z"/>
        <path fill="url(#_名称未設定グラデーション_18-2)" d="M503.37,380.03c18.03,31.23,37.41,53.05,58.39,65.46,25.6,15.14,54.28,20.59,81.82,18.22,8.53-.73,16.97-2.26,25.2-4.52-26.01-45.04-141.33-244.8-141.33-244.8-6.68-11.75-10.35-14.12-22.96-14.39h-105.07c6.39,11.06,93.68,162.26,103.94,180.03Z"/>
        <path fill="url(#_名称未設定グラデーション_18-3)" d="M802.66,538.35c18.03-31.23,27.24-58.92,27.49-83.3,.31-29.74-9.31-57.3-25.13-79.97-4.9-7.02-10.44-13.56-16.52-19.56-26.01,45.04-141.33,244.8-141.33,244.8-6.84,11.66-7.06,16.02-.98,27.07l52.53,90.99c6.39-11.06,93.68-162.26,103.94-180.03Z"/>
      </g>
      <g>
        <path d="M203.44,827c-2.22-4.19-3.45-4.93-7.65-4.93h-35.78l29.12,50.1c12.09,21.47,34.8,34.55,56.02,26.65l-41.71-71.82Z"/>
        <polygon points="233.79 938.31 233.79 994.82 269.33 994.82 269.33 946.94 342.63 822.07 301.41 822.07 233.79 938.31"/>
        <path d="M482.34,846.5v70.34c0,32.08-12.59,48.86-38.01,48.86s-38.01-16.78-38.01-48.86v-94.77h-35.29v94.77c0,51.33,28.63,83.17,73.3,83.17s73.54-32.08,73.3-83.17l-.25-97.97c-18.51,2.47-35.04,9.62-35.04,27.64Z"/>
        <path d="M680.04,842.8l-31.1,54.29-31.84-56.27c-7.16-12.1-15.79-18.76-31.59-18.76h-22.21v172.75h33.56v-125.87l40.23,74.28h23.94l40.23-74.28v125.87h33.56v-172.75h-18.51c-18.02,0-28.63,7.41-36.28,20.73Z"/>
        <path d="M839.49,895.86l-13.57,28.14h42.45c23.45,0,35.04-14.32,38.75-32.34h-61.7c-3.45,0-4.44,.49-5.92,4.2Z"/>
        <polygon points="782.97 994.82 911.8 994.82 911.8 962.24 816.54 962.24 816.54 854.4 911.8 854.4 911.8 822.07 782.97 822.07 782.97 994.82"/>
        <path d="M1072.97,842.8l-31.1,54.29-31.84-56.27c-7.16-12.1-15.79-18.76-31.59-18.76h-22.21v172.75h33.56v-125.87l40.23,74.28h23.94l40.23-74.28v125.87h33.56v-172.75h-18.51c-18.02,0-28.63,7.41-36.28,20.73Z"/>
        <path d="M1173.44,845.02v149.8h35.54v-176.71c-13.57,.5-35.54,6.17-35.54,26.9Z"/>
      </g>
    </g>
  </g>
</svg>
