<?xml version="1.0" encoding="UTF-8"?><!DOCTYPE svg PUBLIC "-//W3C//DTD SVG 1.1//EN" "http://www.w3.org/Graphics/SVG/1.1/DTD/svg11.dtd"><svg xmlns="http://www.w3.org/2000/svg" version="1.1" width="1600px" height="659px" style="shape-rendering:geometricPrecision; text-rendering:geometricPrecision; image-rendering:optimizeQuality; fill-rule:evenodd; clip-rule:evenodd" xmlns:xlink="http://www.w3.org/1999/xlink"><g><path style="opacity:0.986" fill="#56c3ea" d="M 260.5,170.5 C 291.174,170.167 321.841,170.5 352.5,171.5C 288.042,237.459 223.042,302.959 157.5,368C 156.5,368.667 155.5,368.667 154.5,368C 139.667,353.167 124.833,338.333 110,323.5C 109.333,322.833 109.333,322.167 110,321.5C 160.368,271.299 210.535,220.965 260.5,170.5 Z"/></g><g><path style="opacity:0.929" fill="#000000" d="M 548.5,285.5 C 555.167,285.5 561.833,285.5 568.5,285.5C 568.5,336.833 568.5,388.167 568.5,439.5C 561.833,439.5 555.167,439.5 548.5,439.5C 548.5,388.167 548.5,336.833 548.5,285.5 Z"/></g><g><path style="opacity:0.905" fill="#000000" d="M 1303.5,292.5 C 1314.98,293.083 1319.48,299.083 1317,310.5C 1311.97,317.866 1305.47,319.366 1297.5,315C 1290.75,305.028 1292.75,297.528 1303.5,292.5 Z"/></g><g><path style="opacity:0.903" fill="#000000" d="M 1480.5,292.5 C 1493.57,293.636 1497.73,300.302 1493,312.5C 1486.3,319.09 1479.63,319.09 1473,312.5C 1468.82,303.19 1471.32,296.523 1480.5,292.5 Z"/></g><g><path style="opacity:0.941" fill="#000000" d="M 444.5,293.5 C 470.5,293.5 496.5,293.5 522.5,293.5C 522.5,298.833 522.5,304.167 522.5,309.5C 503.167,309.5 483.833,309.5 464.5,309.5C 464.5,325.167 464.5,340.833 464.5,356.5C 482.5,356.5 500.5,356.5 518.5,356.5C 518.5,362.167 518.5,367.833 518.5,373.5C 500.5,373.5 482.5,373.5 464.5,373.5C 464.667,395.169 464.5,416.836 464,438.5C 457.59,439.478 451.09,439.811 444.5,439.5C 444.5,390.833 444.5,342.167 444.5,293.5 Z"/></g><g><path style="opacity:0.93" fill="#000000" d="M 1064.5,293.5 C 1071.17,293.5 1077.83,293.5 1084.5,293.5C 1084.33,316.169 1084.5,338.836 1085,361.5C 1102.79,338.711 1120.95,316.211 1139.5,294C 1147.52,293.168 1155.52,293.335 1163.5,294.5C 1146.12,314.541 1129.12,334.874 1112.5,355.5C 1131.36,383.197 1150.03,411.03 1168.5,439C 1160.83,439.667 1153.17,439.667 1145.5,439C 1129.66,415.673 1113.66,392.506 1097.5,369.5C 1093.18,373.992 1089.01,378.659 1085,383.5C 1084.5,402.164 1084.33,420.83 1084.5,439.5C 1077.83,439.5 1071.17,439.5 1064.5,439.5C 1064.5,390.833 1064.5,342.167 1064.5,293.5 Z"/></g><g><path style="opacity:0.933" fill="#000000" d="M 745.5,304.5 C 746.833,304.5 748.167,304.5 749.5,304.5C 749.5,314.5 749.5,324.5 749.5,334.5C 758.5,334.5 767.5,334.5 776.5,334.5C 776.5,339.5 776.5,344.5 776.5,349.5C 767.5,349.5 758.5,349.5 749.5,349.5C 749.333,370.169 749.5,390.836 750,411.5C 750.253,417.527 753.086,421.694 758.5,424C 763.871,424.676 769.204,424.509 774.5,423.5C 775.222,428.489 775.388,433.489 775,438.5C 764.112,442.637 753.278,442.471 742.5,438C 733.944,431.375 729.778,422.542 730,411.5C 729.5,390.836 729.333,370.169 729.5,349.5C 724.167,349.5 718.833,349.5 713.5,349.5C 713.5,344.5 713.5,339.5 713.5,334.5C 718.833,334.5 724.167,334.5 729.5,334.5C 729.169,326.14 729.502,317.807 730.5,309.5C 735.662,307.968 740.662,306.302 745.5,304.5 Z"/></g><g><path style="opacity:0.937" fill="#000000" d="M 825.5,304.5 C 826.833,304.5 828.167,304.5 829.5,304.5C 829.5,314.5 829.5,324.5 829.5,334.5C 838.167,334.5 846.833,334.5 855.5,334.5C 855.5,339.5 855.5,344.5 855.5,349.5C 846.833,349.5 838.167,349.5 829.5,349.5C 829.031,372.233 829.531,394.899 831,417.5C 832.5,420.333 834.667,422.5 837.5,424C 843.204,424.687 848.87,424.521 854.5,423.5C 854.197,428.43 854.531,433.263 855.5,438C 843.665,442.986 831.998,442.653 820.5,437C 814.222,431.61 810.722,424.777 810,416.5C 809.5,394.169 809.333,371.836 809.5,349.5C 804.167,349.5 798.833,349.5 793.5,349.5C 793.5,344.5 793.5,339.5 793.5,334.5C 798.833,334.5 804.167,334.5 809.5,334.5C 809.334,326.16 809.5,317.827 810,309.5C 815.233,307.74 820.4,306.073 825.5,304.5 Z"/></g><g><path style="opacity:0.609" fill="#57c2ea" d="M 273.5,392.5 C 273.167,392.5 272.833,392.5 272.5,392.5C 256.833,377.5 241.5,362.167 226.5,346.5C 237.631,334.868 248.965,323.368 260.5,312C 291.172,311.167 321.839,311.333 352.5,312.5C 326.146,339.188 299.812,365.854 273.5,392.5 Z"/></g><g><path style="opacity:0.927" fill="#000000" d="M 912.5,331.5 C 944.084,329.218 961.251,343.884 964,375.5C 964.667,379.833 964.667,384.167 964,388.5C 940.062,390.484 915.896,391.151 891.5,390.5C 892.486,414.153 904.82,425.82 928.5,425.5C 937.372,425.692 945.872,424.026 954,420.5C 954.945,420.905 955.612,421.572 956,422.5C 957.324,426.446 957.991,430.446 958,434.5C 951.887,437.592 945.387,439.425 938.5,440C 921.79,442.814 906.123,440.148 891.5,432C 877.927,420.348 871.26,405.515 871.5,387.5C 871.486,369.018 878.153,353.518 891.5,341C 897.848,336.171 904.848,333.005 912.5,331.5 Z M 915.5,346.5 C 935.055,346.722 945.055,356.722 945.5,376.5C 927.488,376.833 909.488,376.5 891.5,375.5C 893.689,360.673 901.689,351.007 915.5,346.5 Z"/></g><g><path style="opacity:0.93" fill="#000000" d="M 1033.5,331.5 C 1036.45,331.223 1039.28,331.556 1042,332.5C 1042.67,338.833 1042.67,345.167 1042,351.5C 1026.32,349.355 1016.32,356.021 1012,371.5C 1010.55,394.122 1010.05,416.789 1010.5,439.5C 1003.83,439.5 997.167,439.5 990.5,439.5C 990.793,404.476 990.793,369.476 990.5,334.5C 996.167,334.5 1001.83,334.5 1007.5,334.5C 1007.67,340.523 1008.17,346.523 1009,352.5C 1013.7,341.284 1021.87,334.284 1033.5,331.5 Z"/></g><g><path style="opacity:0.926" fill="#000000" d="M 1216.5,331.5 C 1244.35,329.2 1259.52,341.866 1262,369.5C 1262.23,392.85 1262.73,416.183 1263.5,439.5C 1257.5,439.5 1251.5,439.5 1245.5,439.5C 1245.08,435.165 1244.58,430.832 1244,426.5C 1229.19,442.261 1212.03,445.428 1192.5,436C 1179.92,424.282 1177.09,410.448 1184,394.5C 1190.93,384.435 1200.43,377.935 1212.5,375C 1222.38,372.845 1232.38,371.678 1242.5,371.5C 1241.8,352.282 1231.8,344.116 1212.5,347C 1205.18,347.828 1198.51,350.328 1192.5,354.5C 1190.07,349.914 1188.74,345.248 1188.5,340.5C 1197.37,335.625 1206.7,332.625 1216.5,331.5 Z M 1228.5,386.5 C 1233.17,386.5 1237.83,386.5 1242.5,386.5C 1242.67,394.174 1242.5,401.841 1242,409.5C 1236.1,423.693 1225.6,429.193 1210.5,426C 1201.53,421.136 1198.37,413.636 1201,403.5C 1202.69,398.475 1205.86,394.641 1210.5,392C 1216.43,389.523 1222.43,387.69 1228.5,386.5 Z"/></g><g><path style="opacity:0.94" fill="#000000" d="M 1381.5,331.5 C 1393.48,329.994 1404.48,332.494 1414.5,339C 1417.36,341.894 1419.86,345.061 1422,348.5C 1422.5,343.511 1422.67,338.511 1422.5,333.5C 1428.5,333.5 1434.5,333.5 1440.5,333.5C 1439.82,368.828 1439.32,404.162 1439,439.5C 1435.09,469.729 1417.76,484.729 1387,484.5C 1374.81,484.386 1363.31,481.553 1352.5,476C 1352.04,475.586 1351.71,475.086 1351.5,474.5C 1352.88,469.296 1354.71,464.296 1357,459.5C 1369.2,466.84 1382.37,469.34 1396.5,467C 1411.63,462.608 1419.47,452.441 1420,436.5C 1420.67,431.5 1420.67,426.5 1420,421.5C 1412.21,432.812 1401.38,438.479 1387.5,438.5C 1365.5,437.001 1351.33,425.667 1345,404.5C 1338.56,380.103 1344.06,358.936 1361.5,341C 1367.6,336.448 1374.27,333.281 1381.5,331.5 Z M 1390.5,347.5 C 1407.99,348.235 1417.99,357.235 1420.5,374.5C 1419.92,384.845 1419.09,395.178 1418,405.5C 1411.83,419.836 1401,425.669 1385.5,423C 1371.58,417.681 1364.08,407.514 1363,392.5C 1361.09,377.6 1365.26,364.767 1375.5,354C 1380.14,350.74 1385.14,348.573 1390.5,347.5 Z"/></g><g><path style="opacity:0.929" fill="#000000" d="M 603.5,334.5 C 610.167,334.5 616.833,334.5 623.5,334.5C 623.06,358.872 623.56,383.205 625,407.5C 629.56,422.201 639.393,427.701 654.5,424C 663.151,420.016 668.985,413.516 672,404.5C 672.5,381.169 672.667,357.836 672.5,334.5C 679.167,334.5 685.833,334.5 692.5,334.5C 692.245,369.517 692.245,404.517 692.5,439.5C 686.5,439.5 680.5,439.5 674.5,439.5C 674.666,434.156 674.499,428.823 674,423.5C 661.536,439.876 645.37,445.042 625.5,439C 611.051,431.288 603.884,419.121 604,402.5C 603.5,379.836 603.333,357.169 603.5,334.5 Z"/></g><g><path style="opacity:0.928" fill="#000000" d="M 1295.5,334.5 C 1302.17,334.5 1308.83,334.5 1315.5,334.5C 1315.5,369.5 1315.5,404.5 1315.5,439.5C 1308.83,439.5 1302.17,439.5 1295.5,439.5C 1295.5,404.5 1295.5,369.5 1295.5,334.5 Z"/></g><g><path style="opacity:0.977" fill="#000000" d="M 1473.5,334.5 C 1479.83,334.5 1486.17,334.5 1492.5,334.5C 1492.5,369.5 1492.5,404.5 1492.5,439.5C 1486.17,439.5 1479.83,439.5 1473.5,439.5C 1473.5,404.5 1473.5,369.5 1473.5,334.5 Z"/></g><g><path style="opacity:0.999" fill="#3797c8" d="M 226.5,346.5 C 241.5,362.167 256.833,377.5 272.5,392.5C 257.221,408.113 241.888,423.78 226.5,439.5C 210.701,424.202 195.035,408.702 179.5,393C 195.035,377.298 210.701,361.798 226.5,346.5 Z"/></g><g><path style="opacity:0.989" fill="#c30c22" d="M 100.5,383.5 C 132.021,380.882 151.188,394.882 158,425.5C 159.242,455.194 145.409,473.361 116.5,480C 86.8059,481.242 68.6392,467.409 62,438.5C 60.5827,409.951 73.4161,391.618 100.5,383.5 Z"/></g><g><path style="opacity:0.98" fill="#025193" d="M 272.5,392.5 C 272.833,392.5 273.167,392.5 273.5,392.5C 300.479,419.812 327.479,447.146 354.5,474.5C 323.839,475.667 293.172,475.833 262.5,475C 250.632,462.965 238.632,451.131 226.5,439.5C 241.888,423.78 257.221,408.113 272.5,392.5 Z"/></g></svg>
