<?xml version="1.0" encoding="UTF-8"?><!DOCTYPE svg PUBLIC "-//W3C//DTD SVG 1.1//EN" "http://www.w3.org/Graphics/SVG/1.1/DTD/svg11.dtd"><svg xmlns="http://www.w3.org/2000/svg" version="1.1" width="512px" height="211px" style="shape-rendering:geometricPrecision; text-rendering:geometricPrecision; image-rendering:optimizeQuality; fill-rule:evenodd; clip-rule:evenodd" xmlns:xlink="http://www.w3.org/1999/xlink"><g><path style="opacity:0.978" fill="#57c3ea" d="M 81.5,54.5 C 91.8387,54.3335 102.172,54.5002 112.5,55C 92.0286,76.4718 71.1952,97.6385 50,118.5C 44.6516,113.319 39.485,107.985 34.5,102.5C 50.1879,86.4792 65.8546,70.4792 81.5,54.5 Z"/></g><g><path style="opacity:0.838" fill="#fefffe" d="M 174.5,90.5 C 176.833,90.5 179.167,90.5 181.5,90.5C 181.5,107.167 181.5,123.833 181.5,140.5C 179.167,140.5 176.833,140.5 174.5,140.5C 174.5,123.833 174.5,107.167 174.5,90.5 Z"/></g><g><path style="opacity:0.843" fill="#fefffe" d="M 141.5,93.5 C 150.167,93.5 158.833,93.5 167.5,93.5C 167.5,95.5 167.5,97.5 167.5,99.5C 161.167,99.5 154.833,99.5 148.5,99.5C 148.5,104.167 148.5,108.833 148.5,113.5C 154.167,113.5 159.833,113.5 165.5,113.5C 165.5,115.5 165.5,117.5 165.5,119.5C 159.833,119.5 154.167,119.5 148.5,119.5C 148.5,126.5 148.5,133.5 148.5,140.5C 146.167,140.5 143.833,140.5 141.5,140.5C 141.5,124.833 141.5,109.167 141.5,93.5 Z"/></g><g><path style="opacity:0.835" fill="#fefffe" d="M 340.5,93.5 C 342.833,93.5 345.167,93.5 347.5,93.5C 347.334,100.175 347.5,106.842 348,113.5C 353.167,107 358.333,100.5 363.5,94C 366.5,93.3333 369.5,93.3333 372.5,94C 367.047,100.408 361.714,106.908 356.5,113.5C 362.167,122.167 367.833,130.833 373.5,139.5C 370.894,140.652 368.227,140.818 365.5,140C 360.79,132.747 355.957,125.58 351,118.5C 350,119.5 349,120.5 348,121.5C 347.5,127.825 347.334,134.158 347.5,140.5C 345.167,140.5 342.833,140.5 340.5,140.5C 340.5,124.833 340.5,109.167 340.5,93.5 Z"/></g><g><path style="opacity:0.735" fill="#fefffe" d="M 414.5,93.5 C 421.158,92.3445 423.158,94.8445 420.5,101C 413.75,102.469 411.75,99.9689 414.5,93.5 Z"/></g><g><path style="opacity:0.774" fill="#fefffe" d="M 471.5,93.5 C 478.145,92.9772 479.811,95.4772 476.5,101C 470.593,101.746 468.927,99.2465 471.5,93.5 Z"/></g><g><path style="opacity:0.837" fill="#fefffe" d="M 238.5,96.5 C 239.479,99.6248 239.813,102.958 239.5,106.5C 242.5,106.5 245.5,106.5 248.5,106.5C 248.5,108.167 248.5,109.833 248.5,111.5C 245.5,111.5 242.5,111.5 239.5,111.5C 239.222,118.379 239.555,125.212 240.5,132C 241.719,135.345 243.886,136.179 247,134.5C 249.559,139.048 248.226,141.382 243,141.5C 238.873,141.693 235.873,140.027 234,136.5C 232.63,128.236 232.13,119.903 232.5,111.5C 230.833,111.5 229.167,111.5 227.5,111.5C 227.5,109.833 227.5,108.167 227.5,106.5C 229.167,106.5 230.833,106.5 232.5,106.5C 232.187,103.753 232.52,101.086 233.5,98.5C 235.336,97.9724 237.003,97.3058 238.5,96.5 Z"/></g><g><path style="opacity:0.851" fill="#fefffe" d="M 263.5,96.5 C 265.402,99.3373 266.069,102.671 265.5,106.5C 268.167,106.5 270.833,106.5 273.5,106.5C 273.5,108.167 273.5,109.833 273.5,111.5C 270.833,111.5 268.167,111.5 265.5,111.5C 265.334,118.841 265.5,126.174 266,133.5C 268.075,135.648 270.408,135.982 273,134.5C 274.362,139.137 272.696,141.471 268,141.5C 263.627,141.485 260.627,139.485 259,135.5C 258.5,127.507 258.334,119.507 258.5,111.5C 256.833,111.5 255.167,111.5 253.5,111.5C 253.5,109.833 253.5,108.167 253.5,106.5C 255.167,106.5 256.833,106.5 258.5,106.5C 258.336,103.813 258.503,101.146 259,98.5C 260.622,97.9011 262.122,97.2344 263.5,96.5 Z"/></g><g><path style="opacity:0.615" fill="#58c5ea" d="M 88.5,125.5 C 87.8333,125.5 87.1667,125.5 86.5,125.5C 81.8333,120.5 77.1667,115.5 72.5,110.5C 75.6293,106.869 78.9626,103.369 82.5,100C 92.5,99.3333 102.5,99.3333 112.5,100C 104.661,108.671 96.6614,117.171 88.5,125.5 Z"/></g><g><path style="opacity:0.815" fill="#fefffe" d="M 289.5,105.5 C 303.427,104.093 309.76,110.426 308.5,124.5C 300.833,124.5 293.167,124.5 285.5,124.5C 285.537,132.035 289.37,135.702 297,135.5C 299.873,135.554 302.54,134.888 305,133.5C 307.148,135.879 306.982,138.045 304.5,140C 283.79,143.623 275.624,135.123 280,114.5C 282.406,110.592 285.572,107.592 289.5,105.5 Z M 293.5,110.5 C 298.668,111.332 301.334,114.332 301.5,119.5C 296.125,119.828 290.792,119.495 285.5,118.5C 286.579,114.087 289.246,111.421 293.5,110.5 Z"/></g><g><path style="opacity:0.833" fill="#fefffe" d="M 328.5,105.5 C 330.167,105.5 331.833,105.5 333.5,105.5C 333.5,107.833 333.5,110.167 333.5,112.5C 328.615,111.856 325.448,113.856 324,118.5C 323.5,125.826 323.334,133.159 323.5,140.5C 321.167,140.5 318.833,140.5 316.5,140.5C 316.5,129.167 316.5,117.833 316.5,106.5C 318.5,106.5 320.5,106.5 322.5,106.5C 322.343,107.873 322.51,109.207 323,110.5C 324.73,108.598 326.563,106.931 328.5,105.5 Z"/></g><g><path style="opacity:0.824" fill="#fefffe" d="M 386.5,105.5 C 392.613,104.41 397.779,106.077 402,110.5C 403.226,120.445 404.059,130.445 404.5,140.5C 402.167,140.5 399.833,140.5 397.5,140.5C 397.649,139.448 397.483,138.448 397,137.5C 392.358,141.524 387.191,142.357 381.5,140C 374.147,129.268 376.813,122.268 389.5,119C 391.81,118.503 394.143,118.337 396.5,118.5C 396.745,113.909 394.578,111.242 390,110.5C 387.081,111.187 384.248,112.187 381.5,113.5C 379.876,112.131 379.376,110.464 380,108.5C 382.166,107.269 384.333,106.269 386.5,105.5 Z M 392.5,123.5 C 394.167,123.5 395.833,123.5 397.5,123.5C 398.502,130.22 395.835,134.554 389.5,136.5C 384.923,135.079 383.423,132.079 385,127.5C 387.255,125.501 389.755,124.168 392.5,123.5 Z"/></g><g><path style="opacity:0.834" fill="#fefffe" d="M 440.5,105.5 C 445.715,104.702 450.215,106.036 454,109.5C 454.483,108.552 454.649,107.552 454.5,106.5C 456.924,106.192 459.257,106.526 461.5,107.5C 460.687,119.454 460.187,131.454 460,143.5C 457.601,151.722 452.101,155.389 443.5,154.5C 439.094,154.908 435.094,153.908 431.5,151.5C 431.953,149.435 432.953,147.768 434.5,146.5C 439.78,149.996 445.113,150.163 450.5,147C 453.097,143.912 453.931,140.412 453,136.5C 443.197,142.901 435.531,140.901 430,130.5C 428.169,123.962 428.836,117.628 432,111.5C 434.322,108.605 437.155,106.605 440.5,105.5 Z M 442.5,111.5 C 447.28,110.641 450.78,112.308 453,116.5C 453.667,120.833 453.667,125.167 453,129.5C 449.628,135.406 445.128,136.573 439.5,133C 436.669,128.559 435.836,123.726 437,118.5C 437.967,115.379 439.8,113.046 442.5,111.5 Z"/></g><g><path style="opacity:0.832" fill="#fefffe" d="M 192.5,106.5 C 194.833,106.5 197.167,106.5 199.5,106.5C 199.334,114.174 199.5,121.841 200,129.5C 203.896,137.122 208.562,137.455 214,130.5C 214.5,122.507 214.666,114.507 214.5,106.5C 216.833,106.5 219.167,106.5 221.5,106.5C 221.5,117.833 221.5,129.167 221.5,140.5C 219.5,140.5 217.5,140.5 215.5,140.5C 215.657,139.127 215.49,137.793 215,136.5C 208.741,142.631 202.241,142.965 195.5,137.5C 194.391,135.615 193.557,133.615 193,131.5C 192.5,123.173 192.334,114.84 192.5,106.5 Z"/></g><g><path style="opacity:0.839" fill="#fefffe" d="M 414.5,106.5 C 416.833,106.5 419.167,106.5 421.5,106.5C 421.5,117.833 421.5,129.167 421.5,140.5C 419.167,140.5 416.833,140.5 414.5,140.5C 414.5,129.167 414.5,117.833 414.5,106.5 Z"/></g><g><path style="opacity:0.839" fill="#fefffe" d="M 470.5,106.5 C 472.833,106.5 475.167,106.5 477.5,106.5C 477.5,117.833 477.5,129.167 477.5,140.5C 475.167,140.5 472.833,140.5 470.5,140.5C 470.5,129.167 470.5,117.833 470.5,106.5 Z"/></g><g><path style="opacity:0.998" fill="#3697c8" d="M 72.5,110.5 C 77.1667,115.5 81.8333,120.5 86.5,125.5C 81.8333,130.5 77.1667,135.5 72.5,140.5C 66.5578,136.227 61.2244,131.227 56.5,125.5C 61.6572,121.176 66.3238,116.342 70.5,111C 71.0944,110.536 71.7611,110.369 72.5,110.5 Z"/></g><g><path style="opacity:0.97" fill="#c30c22" d="M 29.5,122.5 C 46.3394,121.501 52.8394,129.168 49,145.5C 44.3514,152.499 37.8514,154.999 29.5,153C 19.211,147.343 16.711,139.177 22,128.5C 24.1337,125.847 26.6337,123.847 29.5,122.5 Z"/></g><g><path style="opacity:0.936" fill="#015192" d="M 86.5,125.5 C 87.1667,125.5 87.8333,125.5 88.5,125.5C 96.8119,134.146 105.145,142.813 113.5,151.5C 103.517,152.666 93.5166,152.832 83.5,152C 79.6295,148.298 75.9629,144.464 72.5,140.5C 77.1667,135.5 81.8333,130.5 86.5,125.5 Z"/></g></svg>
