<svg width="1601" height="900" viewBox="0 0 1601 900" fill="none" xmlns="http://www.w3.org/2000/svg">
<rect width="1600" height="900" transform="translate(0.544922)" fill="#F6EFE6"/>
<g clip-path="url(#clip0_811_86)">
<path d="M325.166 524.673C325.163 525.778 325.378 526.873 325.796 527.894C326.215 528.916 326.83 529.845 327.606 530.627C328.381 531.409 329.303 532.03 330.318 532.453C331.332 532.877 332.42 533.095 333.519 533.095C335.287 533.033 337.021 532.59 338.604 531.796C354.351 523.925 337.274 488.073 354.038 467.589C367.555 451.04 390.226 460.21 397.073 445.176C404.193 429.434 383.38 410.249 392.202 400.213C398.442 393.051 414.951 395.924 416.242 389.469C416.396 388.443 416.218 387.395 415.734 386.478C411.646 377.25 387.918 366.801 357.051 365.522C349.736 365.218 342.408 365.428 335.123 366.152C332.409 366.421 329.893 367.696 328.063 369.729C326.233 371.763 325.221 374.409 325.225 377.151L325.166 524.673Z" fill="#449593"/>
<path d="M374.069 531.324C372.051 530.501 370.181 529.351 368.533 527.92C368.064 527.265 367.67 526.559 367.359 525.814C365.814 521.879 367.359 510.407 376.729 496.731C388.681 479.356 410.942 484.059 417.807 468.986C425.632 451.65 401.396 432.799 410.805 419.005C415.636 411.902 426.453 410.328 433.339 411.587C448.694 414.322 455.189 432.012 457.673 438.742C461.429 449.608 462.046 461.323 459.453 472.528C456.675 487.771 449.154 501.732 437.975 512.394C426.982 522.686 415.832 526.385 406.403 529.514C397.851 532.137 388.901 533.203 379.976 532.662C377.95 532.525 375.958 532.073 374.069 531.324Z" fill="#F79200"/>
</g>
<g clip-path="url(#clip1_811_86)">
<path fill-rule="evenodd" clip-rule="evenodd" d="M1135.62 450.857C1133.48 448.911 1131.1 447.245 1128.54 445.899C1124.58 443.922 1120.43 442.359 1116.16 441.235C1114.48 440.759 1112.84 440.321 1111.27 439.905L1111.27 439.904C1110.12 439.598 1109.01 439.303 1107.96 439.012C1104.96 438.284 1102.06 437.201 1099.31 435.784C1098.6 435.376 1097.94 434.873 1097.36 434.289C1096.94 433.88 1096.6 433.392 1096.36 432.852C1096 432.041 1095.81 431.164 1095.79 430.275C1095.78 428.93 1096.02 427.595 1096.5 426.339C1096.92 425.182 1097.55 424.114 1098.36 423.191C1099.42 422.088 1100.72 421.247 1102.15 420.731C1104.45 419.884 1106.87 419.432 1109.31 419.393C1118.35 419.47 1127.17 422.258 1134.62 427.402L1145.64 408.236C1134.94 400.358 1121.89 396.369 1108.65 396.922C1103.56 397.037 1098.53 398.022 1093.78 399.834C1089.54 401.42 1085.69 403.913 1082.5 407.14C1079.31 410.367 1076.85 414.252 1075.29 418.527C1073.79 422.481 1073.08 426.694 1073.2 430.924C1073.3 434.734 1074.15 438.486 1075.7 441.963C1077.23 445.326 1079.41 448.345 1082.12 450.838C1084.26 452.802 1086.65 454.469 1089.22 455.796C1093.15 457.789 1097.28 459.353 1101.54 460.46C1103.04 460.88 1104.48 461.265 1105.88 461.635L1105.88 461.635L1105.88 461.636L1105.89 461.638L1105.89 461.638L1105.89 461.639C1107.23 461.995 1108.52 462.337 1109.74 462.683C1112.75 463.421 1115.67 464.518 1118.43 465.95C1119.2 466.361 1119.91 466.87 1120.56 467.465C1121 467.919 1121.36 468.444 1121.63 469.02C1122.03 469.907 1122.24 470.863 1122.26 471.833C1122.28 473.246 1122.03 474.649 1121.52 475.966C1121.12 477.125 1120.5 478.194 1119.7 479.114C1118.67 480.096 1117.44 480.836 1116.1 481.279C1113.87 482.089 1111.52 482.514 1109.15 482.538C1105.24 482.592 1101.34 482.014 1097.61 480.826C1092.44 479.518 1087.5 477.414 1082.96 474.588L1070.64 491.078C1078.46 496.883 1084.17 500.189 1090.98 502.274C1097.08 504.146 1103.44 505.029 1109.82 504.892C1114.78 504.795 1119.69 503.85 1124.33 502.097C1128.58 500.571 1132.44 498.122 1135.64 494.925C1138.83 491.728 1141.29 487.862 1142.84 483.601C1144.35 479.6 1145.06 475.343 1144.95 471.066C1144.85 467.108 1143.95 463.212 1142.31 459.614C1140.69 456.271 1138.41 453.292 1135.62 450.857ZM769.946 399.637L740.956 454.615L711.947 399.637H686.381L740.956 504.006L795.512 399.637H769.946ZM635.717 503.219V399.342H657.117V503.219H635.717ZM595.109 439.464C594.737 437.89 594.365 436.551 594.033 435.528C593.742 434.632 593.465 433.872 593.296 433.406L593.231 433.226C590.414 425.911 585.916 419.37 580.105 414.139C575.624 410.104 570.499 406.858 564.946 404.536C560.346 402.73 555.554 401.462 550.666 400.758C547.685 400.289 544.682 399.987 541.668 399.853L537.56 399.735L531.085 399.617H512.952V503.317H530.714L536.582 503.179L540.338 502.884C543.838 502.707 547.325 502.333 550.783 501.762C554.219 501.236 557.612 500.46 560.935 499.441C566.487 497.633 571.712 494.935 576.408 491.451C582.688 486.869 587.793 480.85 591.304 473.89C594.814 466.931 596.628 459.231 596.595 451.428C596.542 447.397 596.043 443.384 595.109 439.464ZM572.555 463.391C570.537 467.688 567.468 471.398 563.635 474.175C560.81 476.264 557.674 477.892 554.343 478.996C552.012 479.703 549.633 480.236 547.223 480.59C544.587 481.025 541.929 481.314 539.262 481.455L535.878 481.573H534.156V421.085H540.729C542.978 421.203 545.208 421.42 547.438 421.754C550.677 422.209 553.853 423.035 556.906 424.214C560.177 425.581 563.193 427.498 565.826 429.881C569.148 432.849 571.717 436.573 573.318 440.743C573.468 441.102 573.599 441.47 573.709 441.845C574.651 444.897 575.133 448.074 575.137 451.27C575.212 455.448 574.357 459.59 572.633 463.391H572.555ZM902.706 416.481C908.571 423.789 912.435 432.512 913.915 441.786C914.256 444.289 914.407 446.815 914.365 449.342C914.37 453.438 913.891 457.52 912.937 461.503V461.857H837.705C837.758 461.981 837.807 462.114 837.856 462.245L837.856 462.247C837.915 462.406 837.973 462.563 838.038 462.703C839.087 465.248 840.454 467.648 842.106 469.846C842.788 470.695 843.346 471.331 843.738 471.777C843.864 471.92 843.972 472.043 844.062 472.148C846.546 474.805 849.515 476.956 852.806 478.484C855.298 479.627 857.929 480.434 860.631 480.885C861.701 481.1 862.787 481.231 863.878 481.278H865.932C870.824 481.237 875.637 480.03 879.977 477.756C883.343 476.03 886.456 473.845 889.229 471.263L907.127 483.207C907.041 483.301 906.939 483.413 906.824 483.541L906.822 483.543L906.816 483.549C906.304 484.114 905.514 484.987 904.467 486.04C902.852 487.644 901.154 489.161 899.381 490.586C894.264 494.722 888.491 497.961 882.304 500.169C877.061 502.017 871.546 502.962 865.99 502.963C864.817 502.963 863.408 502.924 862.43 502.845L862.29 502.834C861.282 502.753 859.51 502.611 857.364 502.255C854.61 501.817 851.896 501.159 849.246 500.287C841.632 497.701 834.781 493.244 829.313 487.319C828.128 486.075 827.018 484.761 825.988 483.384C824.3 481.117 822.776 478.729 821.43 476.241C817.584 469.02 815.423 461.012 815.112 452.825V450.405C815.115 444.826 815.986 439.282 817.694 433.974C819.089 429.645 821 425.502 823.386 421.636C825.116 418.849 827.079 416.216 829.255 413.765C834.673 407.613 841.64 403.045 849.422 400.542C854.329 398.965 859.45 398.168 864.602 398.181C869.429 398.175 874.233 398.837 878.881 400.148C879.859 400.404 880.446 400.601 880.837 400.739C889.414 403.889 896.974 409.332 902.706 416.481ZM842.752 430.648C840.563 433.573 838.835 436.818 837.627 440.271L892.222 440.428C891.097 437.051 889.41 433.891 887.234 431.081C883.832 426.601 879.231 423.188 873.971 421.243L873.463 421.105C872.821 420.908 872.168 420.75 871.507 420.633C869.262 420.155 866.974 419.911 864.68 419.905C861.613 419.887 858.563 420.359 855.643 421.302C852.191 422.43 849.012 424.274 846.312 426.713C845.012 427.917 843.821 429.234 842.752 430.648ZM1275.76 441.786C1274.27 432.515 1270.4 423.794 1264.55 416.481C1258.81 409.331 1251.24 403.889 1242.66 400.739C1242.29 400.601 1241.7 400.404 1240.7 400.148C1236.06 398.838 1231.26 398.176 1226.44 398.181C1221.29 398.168 1216.17 398.965 1211.26 400.542C1205.15 402.552 1199.52 405.808 1194.71 410.105C1193.44 411.266 1192.23 412.526 1191.06 413.824C1188.88 416.275 1186.92 418.908 1185.19 421.695C1182.79 425.557 1180.88 429.701 1179.5 434.033C1177.78 439.338 1176.91 444.884 1176.91 450.464V452.884C1177.24 461.06 1179.43 469.051 1183.31 476.241C1184.64 478.733 1186.16 481.121 1187.85 483.384C1188.88 484.756 1189.99 486.07 1191.17 487.319C1196.64 493.244 1203.49 497.701 1211.11 500.287C1213.76 501.157 1216.48 501.815 1219.24 502.255C1221.36 502.607 1223.12 502.749 1224.11 502.83L1224.29 502.845C1225.25 502.924 1226.7 502.963 1227.87 502.963C1233.43 502.96 1238.94 502.015 1244.18 500.169C1250.37 497.958 1256.14 494.718 1261.26 490.586C1263.03 489.166 1264.72 487.648 1266.33 486.04C1267.62 484.742 1268.54 483.718 1268.99 483.207L1251.11 471.263C1248.33 473.849 1245.21 476.034 1241.84 477.756C1237.5 480.03 1232.7 481.237 1227.81 481.278H1225.68C1224.59 481.231 1223.5 481.1 1222.43 480.885C1219.73 480.435 1217.1 479.628 1214.61 478.484C1211.32 476.956 1208.35 474.805 1205.86 472.148C1205.17 471.418 1204.52 470.65 1203.91 469.846C1202.26 467.643 1200.88 465.244 1199.82 462.703C1199.76 462.567 1199.71 462.415 1199.65 462.261L1199.65 462.26C1199.61 462.124 1199.56 461.986 1199.51 461.857H1274.74V461.503C1275.68 457.519 1276.16 453.438 1276.17 449.342C1276.21 446.817 1276.07 444.291 1275.76 441.786ZM1199.47 440.271C1200.67 436.814 1202.4 433.568 1204.59 430.648C1205.65 429.234 1206.84 427.917 1208.13 426.713C1210.84 424.278 1214.01 422.435 1217.46 421.302C1220.39 420.358 1223.45 419.886 1226.52 419.905C1228.81 419.911 1231.1 420.155 1233.35 420.633C1234.01 420.75 1234.66 420.908 1235.3 421.105L1235.79 421.243C1241.06 423.183 1245.67 426.596 1249.07 431.081C1251.24 433.896 1252.93 437.055 1254.06 440.428L1199.47 440.271ZM1029.66 432.695C1029.66 451.388 1012.42 461.325 1012.42 461.325L1041.28 503.258H1017.57L989.127 465.871H974.926V503.435H953.604V399.637H985.724C991.24 399.637 1005.6 399.794 1012.97 404.044C1019.88 408.078 1029.66 414.71 1029.66 432.695ZM974.887 444.383H995.7C1003.17 444.383 1008.43 441.195 1008.43 434.761C1008.43 428.326 1007.36 420.987 992.492 420.987H974.887V444.383Z" fill="black"/>
</g>
<defs>
<clipPath id="clip0_811_86">
<rect width="135.862" height="167.708" fill="white" transform="translate(325.166 365.387)"/>
</clipPath>
<clipPath id="clip1_811_86">
<rect width="764.838" height="108.226" fill="white" transform="translate(512.952 396.871)"/>
</clipPath>
</defs>
</svg>
