<?xml version="1.0" encoding="UTF-8"?>
<!DOCTYPE svg PUBLIC "-//W3C//DTD SVG 1.1//EN" "http://www.w3.org/Graphics/SVG/1.1/DTD/svg11.dtd">
<svg xmlns="http://www.w3.org/2000/svg" version="1.1" width="812px" height="590px" style="shape-rendering:geometricPrecision; text-rendering:geometricPrecision; image-rendering:optimizeQuality; fill-rule:evenodd; clip-rule:evenodd" xmlns:xlink="http://www.w3.org/1999/xlink">
<g><path style="opacity:0.972" fill="#34b0eb" d="M 404.5,79.5 C 407.241,79.7073 409.574,80.7073 411.5,82.5C 427.809,100.476 444.809,117.809 462.5,134.5C 461.167,134.833 461.167,135.167 462.5,135.5C 462.5,135.833 462.5,136.167 462.5,136.5C 462.44,137.043 462.107,137.376 461.5,137.5C 442.096,118.43 423.096,99.0968 404.5,79.5 Z"/></g>
<g><path style="opacity:0.988" fill="#28abea" d="M 402.5,81.5 C 426.217,106.217 450.55,130.217 475.5,153.5C 477.358,155.883 478.692,158.55 479.5,161.5C 452.521,135.854 426.188,109.521 400.5,82.5C 400.842,81.6618 401.508,81.3284 402.5,81.5 Z"/></g>
<g><path style="opacity:0.994" fill="#2eaeeb" d="M 404.5,79.5 C 423.096,99.0968 442.096,118.43 461.5,137.5C 462.107,137.376 462.44,137.043 462.5,136.5C 462.833,136.5 463.167,136.5 463.5,136.5C 467.475,142.149 471.475,147.815 475.5,153.5C 450.55,130.217 426.217,106.217 402.5,81.5C 402.833,80.5 403.5,79.8333 404.5,79.5 Z"/></g>
<g><path style="opacity:0.989" fill="#21a9ea" d="M 400.5,82.5 C 426.188,109.521 452.521,135.854 479.5,161.5C 481.343,163.853 482.677,166.52 483.5,169.5C 465.903,152.905 448.57,135.905 431.5,118.5C 430.675,117.614 429.675,117.281 428.5,117.5C 427.5,117.167 426.833,116.5 426.5,115.5C 427.043,115.44 427.376,115.107 427.5,114.5C 417.45,104.115 407.117,94.1151 396.5,84.5C 397.514,83.3263 398.847,82.6596 400.5,82.5 Z"/></g>
<g><path style="opacity:0.98" fill="#3ab2eb" d="M 411.5,82.5 C 413.882,83.3507 415.882,84.684 417.5,86.5C 433.632,103.132 449.965,119.632 466.5,136C 466.272,136.399 465.938,136.565 465.5,136.5C 464.833,136.5 464.167,136.5 463.5,136.5C 463.5,135.833 463.167,135.5 462.5,135.5C 462.5,135.167 462.5,134.833 462.5,134.5C 444.809,117.809 427.809,100.476 411.5,82.5 Z"/></g>
<g><path style="opacity:0.977" fill="#17a5ea" d="M 396.5,84.5 C 407.117,94.1151 417.45,104.115 427.5,114.5C 427.376,115.107 427.043,115.44 426.5,115.5C 422.807,112.324 418.807,109.657 414.5,107.5C 407.194,100.86 400.194,93.8604 393.5,86.5C 394.29,85.5987 395.29,84.9321 396.5,84.5 Z"/></g>
<g><path style="opacity:0.977" fill="#059de8" d="M 389.5,88.5 C 395.167,94.5 400.833,100.5 406.5,106.5C 404.833,106.5 403.167,106.5 401.5,106.5C 399.436,106.313 397.436,105.813 395.5,105C 395.833,104.667 396.167,104.333 396.5,104C 395.5,103.667 394.5,103.333 393.5,103C 393.833,102.667 394.167,102.333 394.5,102C 393.5,101.667 392.5,101.333 391.5,101C 391.833,100.667 392.167,100.333 392.5,100C 391.5,99.6667 390.5,99.3333 389.5,99C 389.833,98.6667 390.167,98.3333 390.5,98C 389.5,97.6667 388.5,97.3333 387.5,97C 387.833,96.6667 388.167,96.3333 388.5,96C 386.967,94.8595 385.3,93.6928 383.5,92.5C 385.118,90.684 387.118,89.3507 389.5,88.5 Z"/></g>
<g><path style="opacity:0.984" fill="#0ca1e9" d="M 393.5,86.5 C 400.194,93.8604 407.194,100.86 414.5,107.5C 411.833,107.167 409.167,106.833 406.5,106.5C 400.833,100.5 395.167,94.5 389.5,88.5C 390.514,87.3263 391.847,86.6596 393.5,86.5 Z"/></g>
<g><path style="opacity:0.989" fill="#41b5ec" d="M 417.5,86.5 C 421.655,87.7417 425.322,89.7417 428.5,92.5C 428.062,92.4346 427.728,92.6012 427.5,93C 444.035,109.368 460.368,125.868 476.5,142.5C 472.345,141.258 468.678,139.258 465.5,136.5C 465.938,136.565 466.272,136.399 466.5,136C 449.965,119.632 433.632,103.132 417.5,86.5 Z"/></g>
<g><path style="opacity:0.968" fill="#0499e4" d="M 383.5,92.5 C 385.3,93.6928 386.967,94.8595 388.5,96C 388.167,96.3333 387.833,96.6667 387.5,97C 388.5,97.3333 389.5,97.6667 390.5,98C 390.167,98.3333 389.833,98.6667 389.5,99C 390.5,99.3333 391.5,99.6667 392.5,100C 392.167,100.333 391.833,100.667 391.5,101C 392.5,101.333 393.5,101.667 394.5,102C 394.167,102.333 393.833,102.667 393.5,103C 394.5,103.333 395.5,103.667 396.5,104C 396.167,104.333 395.833,104.667 395.5,105C 397.436,105.813 399.436,106.313 401.5,106.5C 396.245,108.789 390.912,111.122 385.5,113.5C 380.594,110.102 376.094,106.102 372,101.5C 371.517,100.552 371.351,99.552 371.5,98.5C 375.272,96.0661 379.272,94.0661 383.5,92.5 Z"/></g>
<g><path style="opacity:0.981" fill="#47b7ec" d="M 428.5,92.5 C 431.004,93.5839 433.337,94.9172 435.5,96.5C 450.622,113.134 466.622,129.634 483.5,146C 483.272,146.399 482.938,146.565 482.5,146.5C 480.118,145.649 478.118,144.316 476.5,142.5C 460.368,125.868 444.035,109.368 427.5,93C 427.728,92.6012 428.062,92.4346 428.5,92.5 Z"/></g>
<g><path style="opacity:0.985" fill="#4ebaec" d="M 435.5,96.5 C 438.634,97.9009 441.634,99.5675 444.5,101.5C 461.477,119.478 478.811,137.144 496.5,154.5C 491.571,152.225 486.904,149.559 482.5,146.5C 482.938,146.565 483.272,146.399 483.5,146C 466.622,129.634 450.622,113.134 435.5,96.5 Z"/></g>
<g><path style="opacity:0.969" fill="#0494e1" d="M 371.5,98.5 C 371.351,99.552 371.517,100.552 372,101.5C 376.094,106.102 380.594,110.102 385.5,113.5C 384.341,115.25 382.674,116.25 380.5,116.5C 374.865,112.199 369.532,107.533 364.5,102.5C 366.996,101.42 369.33,100.086 371.5,98.5 Z"/></g>
<g><path style="opacity:0.982" fill="#0491de" d="M 364.5,102.5 C 369.532,107.533 374.865,112.199 380.5,116.5C 378.664,118.588 376.331,119.921 373.5,120.5C 372.603,119.402 371.77,119.402 371,120.5C 366.631,115.963 362.131,111.63 357.5,107.5C 359.619,105.6 361.953,103.934 364.5,102.5 Z"/></g>
<g><path style="opacity:0.952" fill="#048cdb" d="M 357.5,107.5 C 362.131,111.63 366.631,115.963 371,120.5C 371.77,119.402 372.603,119.402 373.5,120.5C 369.836,123.335 365.836,125.668 361.5,127.5C 355.892,123.561 350.892,118.894 346.5,113.5C 349.678,110.742 353.345,108.742 357.5,107.5 Z"/></g>
<g><path style="opacity:0.978" fill="#60c1ee" d="M 459.5,110.5 C 462.76,111.774 465.76,113.44 468.5,115.5C 468.369,116.239 468.536,116.906 469,117.5C 491.729,140.062 514.229,162.728 536.5,185.5C 536.5,186.167 536.5,186.833 536.5,187.5C 510.5,162.167 484.833,136.5 459.5,110.5 Z"/></g>
<g><path style="opacity:0.973" fill="#66c3ee" d="M 468.5,115.5 C 471.661,116.913 474.661,118.58 477.5,120.5C 496.449,141.116 516.115,161.116 536.5,180.5C 536.5,182.167 536.5,183.833 536.5,185.5C 514.229,162.728 491.729,140.062 469,117.5C 468.536,116.906 468.369,116.239 468.5,115.5 Z"/></g>
<g><path style="opacity:0.991" fill="#1ba7ea" d="M 428.5,117.5 C 429.675,117.281 430.675,117.614 431.5,118.5C 448.57,135.905 465.903,152.905 483.5,169.5C 483.5,170.167 483.5,170.833 483.5,171.5C 483.565,171.938 483.399,172.272 483,172.5C 466.965,156.298 450.799,140.298 434.5,124.5C 432.273,122.393 430.273,120.06 428.5,117.5 Z"/></g>
<g><path style="opacity:1" fill="#58beed" d="M 444.5,101.5 C 449.701,104.263 454.701,107.263 459.5,110.5C 484.833,136.5 510.5,162.167 536.5,187.5C 536.5,188.833 536.5,190.167 536.5,191.5C 535.778,191.918 535.278,192.584 535,193.5C 528.667,186.833 522.333,180.167 516,173.5C 515.536,174.094 515.369,174.761 515.5,175.5C 514.245,171.657 512.412,167.99 510,164.5C 505.521,161.024 501.021,157.69 496.5,154.5C 478.811,137.144 461.477,119.478 444.5,101.5 Z"/></g>
<g><path style="opacity:0.965" fill="#6ec6ee" d="M 477.5,120.5 C 481.118,122.137 484.451,124.137 487.5,126.5C 502.854,143.188 519.187,159.521 536.5,175.5C 536.5,177.167 536.5,178.833 536.5,180.5C 516.115,161.116 496.449,141.116 477.5,120.5 Z"/></g>
<g><path style="opacity:0.983" fill="#0380d2" d="M 335.5,119.5 C 339.5,125.5 344.5,130.5 350.5,134.5C 358.11,143.447 366.11,152.114 374.5,160.5C 365.331,157.541 355.997,155.208 346.5,153.5C 338.062,145.563 329.728,137.396 321.5,129C 322.056,128.617 322.389,128.117 322.5,127.5C 326.63,124.597 330.963,121.93 335.5,119.5 Z"/></g>
<g><path style="opacity:0.98" fill="#15a5e9" d="M 434.5,124.5 C 450.799,140.298 466.965,156.298 483,172.5C 483.399,172.272 483.565,171.938 483.5,171.5C 484.458,173.302 485.125,175.302 485.5,177.5C 470.419,163.922 455.752,149.755 441.5,135C 440.906,134.536 440.239,134.369 439.5,134.5C 437.804,131.15 436.137,127.817 434.5,124.5 Z"/></g>
<g><path style="opacity:0.979" fill="#74c8ef" d="M 487.5,126.5 C 489.483,127.471 491.483,128.471 493.5,129.5C 507.114,144.782 521.448,159.449 536.5,173.5C 536.5,174.167 536.5,174.833 536.5,175.5C 519.187,159.521 502.854,143.188 487.5,126.5 Z"/></g>
<g><path style="opacity:0.963" fill="#037bcf" d="M 322.5,127.5 C 322.389,128.117 322.056,128.617 321.5,129C 329.728,137.396 338.062,145.563 346.5,153.5C 344.435,153.483 342.435,153.15 340.5,152.5C 333.166,144.151 325.499,136.818 317.5,130.5C 318.659,128.75 320.326,127.75 322.5,127.5 Z"/></g>
<g><path style="opacity:0.979" fill="#0379cd" d="M 317.5,130.5 C 325.499,136.818 333.166,144.151 340.5,152.5C 336.5,152.5 332.5,152.5 328.5,152.5C 321.586,147.257 315.253,141.257 309.5,134.5C 311.883,132.642 314.55,131.308 317.5,130.5 Z"/></g>
<g><path style="opacity:0.991" fill="#048ddb" d="M 382.5,131.5 C 403.798,153.299 425.298,174.965 447,196.5C 448.039,195.756 448.539,194.756 448.5,193.5C 449.833,195.5 451.167,197.5 452.5,199.5C 452.351,200.552 452.517,201.552 453,202.5C 459.667,209.167 466.333,215.833 473,222.5C 473.383,221.944 473.883,221.611 474.5,221.5C 473,225.173 471,228.506 468.5,231.5C 468.631,230.761 468.464,230.094 468,229.5C 435.299,196.965 402.799,164.299 370.5,131.5C 374.565,130.801 378.565,130.801 382.5,131.5 Z"/></g>
<g><path style="opacity:0.963" fill="#7acaef" d="M 493.5,129.5 C 495.67,131.086 498.004,132.42 500.5,133.5C 511.244,145.747 522.577,157.58 534.5,169C 535.094,169.464 535.761,169.631 536.5,169.5C 536.5,170.833 536.5,172.167 536.5,173.5C 521.448,159.449 507.114,144.782 493.5,129.5 Z"/></g>
<g><path style="opacity:0.984" fill="#0491de" d="M 382.5,131.5 C 388.532,131.125 394.198,132.125 399.5,134.5C 399.389,135.117 399.056,135.617 398.5,136C 411.366,149.38 424.366,161.88 437.5,173.5C 441.671,179.838 445.337,186.504 448.5,193.5C 448.539,194.756 448.039,195.756 447,196.5C 425.298,174.965 403.798,153.299 382.5,131.5 Z"/></g>
<g><path style="opacity:0.986" fill="#0386d7" d="M 346.5,113.5 C 350.892,118.894 355.892,123.561 361.5,127.5C 358.672,129.47 355.672,131.303 352.5,133C 356.819,133.076 361.152,132.909 365.5,132.5C 399.167,166.833 433.167,200.833 467.5,234.5C 465.646,238.221 463.313,241.554 460.5,244.5C 459.504,244.414 458.671,244.748 458,245.5C 447.17,234.839 436.67,224.173 426.5,213.5C 425.167,211.833 423.833,210.167 422.5,208.5C 411.702,197.202 400.702,186.035 389.5,175C 389.728,174.601 390.062,174.435 390.5,174.5C 394.514,174.666 398.514,174.499 402.5,174C 393.197,169.18 383.864,164.68 374.5,160.5C 366.11,152.114 358.11,143.447 350.5,134.5C 344.5,130.5 339.5,125.5 335.5,119.5C 339.034,117.234 342.7,115.234 346.5,113.5 Z"/></g>
<g><path style="opacity:0.999" fill="#038ad9" d="M 370.5,131.5 C 402.799,164.299 435.299,196.965 468,229.5C 468.464,230.094 468.631,230.761 468.5,231.5C 468.443,232.609 468.11,233.609 467.5,234.5C 433.167,200.833 399.167,166.833 365.5,132.5C 366.919,131.549 368.585,131.216 370.5,131.5 Z"/></g>
<g><path style="opacity:0.965" fill="#0273c9" d="M 309.5,134.5 C 315.253,141.257 321.586,147.257 328.5,152.5C 322.649,153.086 316.982,154.419 311.5,156.5C 306.702,152.203 302.035,147.703 297.5,143C 298.056,142.617 298.389,142.117 298.5,141.5C 301.961,138.931 305.628,136.597 309.5,134.5 Z"/></g>
<g><path style="opacity:0.946" fill="#0494e1" d="M 399.5,134.5 C 408.199,137.606 415.699,142.606 422,149.5C 428.204,156.863 433.371,164.863 437.5,173.5C 424.366,161.88 411.366,149.38 398.5,136C 399.056,135.617 399.389,135.117 399.5,134.5 Z"/></g>
<g><path style="opacity:0.988" fill="#81cdef" d="M 500.5,133.5 C 506.122,136.472 511.455,139.805 516.5,143.5C 522.833,150.5 529.5,157.167 536.5,163.5C 536.5,165.5 536.5,167.5 536.5,169.5C 535.761,169.631 535.094,169.464 534.5,169C 522.577,157.58 511.244,145.747 500.5,133.5 Z"/></g>
<g><path style="opacity:0.983" fill="#0ca1e9" d="M 439.5,134.5 C 440.239,134.369 440.906,134.536 441.5,135C 455.752,149.755 470.419,163.922 485.5,177.5C 485.5,179.833 485.5,182.167 485.5,184.5C 471.5,170.833 457.5,157.167 443.5,143.5C 441.928,140.682 440.594,137.682 439.5,134.5 Z"/></g>
<g><path style="opacity:0.969" fill="#026dc4" d="M 298.5,141.5 C 298.389,142.117 298.056,142.617 297.5,143C 302.035,147.703 306.702,152.203 311.5,156.5C 307.802,158.686 304.468,161.353 301.5,164.5C 296.535,160.037 291.702,155.37 287,150.5C 286.53,149.423 286.697,148.423 287.5,147.5C 290.678,144.742 294.345,142.742 298.5,141.5 Z"/></g>
<g><path style="opacity:0.988" fill="#059de8" d="M 443.5,143.5 C 457.5,157.167 471.5,170.833 485.5,184.5C 485.5,187.5 485.5,190.5 485.5,193.5C 484.975,192.272 483.642,191.438 481.5,191C 481.833,190.667 482.167,190.333 482.5,190C 481.5,189.667 480.5,189.333 479.5,189C 479.833,188.667 480.167,188.333 480.5,188C 479.5,187.667 478.5,187.333 477.5,187C 477.833,186.667 478.167,186.333 478.5,186C 477.5,185.667 476.5,185.333 475.5,185C 475.833,184.667 476.167,184.333 476.5,184C 475.5,183.667 474.5,183.333 473.5,183C 473.833,182.667 474.167,182.333 474.5,182C 473.5,181.667 472.5,181.333 471.5,181C 471.833,180.667 472.167,180.333 472.5,180C 471.5,179.667 470.5,179.333 469.5,179C 469.833,178.667 470.167,178.333 470.5,178C 469.5,177.667 468.5,177.333 467.5,177C 467.833,176.667 468.167,176.333 468.5,176C 467.5,175.667 466.5,175.333 465.5,175C 465.833,174.667 466.167,174.333 466.5,174C 465.5,173.667 464.5,173.333 463.5,173C 463.833,172.667 464.167,172.333 464.5,172C 463.5,171.667 462.5,171.333 461.5,171C 461.833,170.667 462.167,170.333 462.5,170C 461.5,169.667 460.5,169.333 459.5,169C 459.833,168.667 460.167,168.333 460.5,168C 459.5,167.667 458.5,167.333 457.5,167C 457.833,166.667 458.167,166.333 458.5,166C 457.5,165.667 456.5,165.333 455.5,165C 455.833,164.667 456.167,164.333 456.5,164C 455.5,163.667 454.5,163.333 453.5,163C 453.833,162.667 454.167,162.333 454.5,162C 453.5,161.667 452.5,161.333 451.5,161C 451.833,160.667 452.167,160.333 452.5,160C 451.5,159.667 450.5,159.333 449.5,159C 449.833,158.667 450.167,158.333 450.5,158C 449.333,157.5 448.5,156.667 448,155.5C 447.601,155.728 447.435,156.062 447.5,156.5C 445.796,152.383 444.463,148.049 443.5,143.5 Z"/></g>
<g><path style="opacity:0.913" fill="#8ed2f0" d="M 516.5,143.5 C 523.351,146.51 529.851,150.176 536,154.5C 536.498,157.482 536.665,160.482 536.5,163.5C 529.5,157.167 522.833,150.5 516.5,143.5 Z"/></g>
<g><path style="opacity:0.974" fill="#0269c1" d="M 287.5,147.5 C 286.697,148.423 286.53,149.423 287,150.5C 291.702,155.37 296.535,160.037 301.5,164.5C 301.167,165.5 300.5,166.167 299.5,166.5C 293.441,161.443 288.107,155.776 283.5,149.5C 284.605,148.4 285.938,147.733 287.5,147.5 Z"/></g>
<g><path style="opacity:0.967" fill="#0266bf" d="M 283.5,149.5 C 288.107,155.776 293.441,161.443 299.5,166.5C 297.343,170.94 296.01,175.606 295.5,180.5C 288.833,174.167 282.167,167.833 275.5,161.5C 275.187,158.753 275.52,156.086 276.5,153.5C 278.85,152.139 281.184,150.806 283.5,149.5 Z"/></g>
<g><path style="opacity:0.981" fill="#0499e4" d="M 485.5,193.5 C 484.59,198.832 482.923,203.832 480.5,208.5C 470.193,199.86 460.527,190.527 451.5,180.5C 450.168,172.509 448.835,164.509 447.5,156.5C 447.435,156.062 447.601,155.728 448,155.5C 448.5,156.667 449.333,157.5 450.5,158C 450.167,158.333 449.833,158.667 449.5,159C 450.5,159.333 451.5,159.667 452.5,160C 452.167,160.333 451.833,160.667 451.5,161C 452.5,161.333 453.5,161.667 454.5,162C 454.167,162.333 453.833,162.667 453.5,163C 454.5,163.333 455.5,163.667 456.5,164C 456.167,164.333 455.833,164.667 455.5,165C 456.5,165.333 457.5,165.667 458.5,166C 458.167,166.333 457.833,166.667 457.5,167C 458.5,167.333 459.5,167.667 460.5,168C 460.167,168.333 459.833,168.667 459.5,169C 460.5,169.333 461.5,169.667 462.5,170C 462.167,170.333 461.833,170.667 461.5,171C 462.5,171.333 463.5,171.667 464.5,172C 464.167,172.333 463.833,172.667 463.5,173C 464.5,173.333 465.5,173.667 466.5,174C 466.167,174.333 465.833,174.667 465.5,175C 466.5,175.333 467.5,175.667 468.5,176C 468.167,176.333 467.833,176.667 467.5,177C 468.5,177.333 469.5,177.667 470.5,178C 470.167,178.333 469.833,178.667 469.5,179C 470.5,179.333 471.5,179.667 472.5,180C 472.167,180.333 471.833,180.667 471.5,181C 472.5,181.333 473.5,181.667 474.5,182C 474.167,182.333 473.833,182.667 473.5,183C 474.5,183.333 475.5,183.667 476.5,184C 476.167,184.333 475.833,184.667 475.5,185C 476.5,185.333 477.5,185.667 478.5,186C 478.167,186.333 477.833,186.667 477.5,187C 478.5,187.333 479.5,187.667 480.5,188C 480.167,188.333 479.833,188.667 479.5,189C 480.5,189.333 481.5,189.667 482.5,190C 482.167,190.333 481.833,190.667 481.5,191C 483.642,191.438 484.975,192.272 485.5,193.5 Z"/></g>
<g><path style="opacity:0.993" fill="#0262bc" d="M 275.5,161.5 C 282.167,167.833 288.833,174.167 295.5,180.5C 295.5,181.5 295.5,182.5 295.5,183.5C 294.778,183.918 294.278,184.584 294,185.5C 287.206,179.214 281.039,172.547 275.5,165.5C 275.5,164.167 275.5,162.833 275.5,161.5 Z"/></g>
<g><path style="opacity:0.967" fill="#015fba" d="M 275.5,165.5 C 281.039,172.547 287.206,179.214 294,185.5C 294.278,184.584 294.778,183.918 295.5,183.5C 295.5,188.5 295.5,193.5 295.5,198.5C 288.078,192.081 281.411,185.081 275.5,177.5C 275.5,173.5 275.5,169.5 275.5,165.5 Z"/></g>
<g><path style="opacity:0.99" fill="#0378cc" d="M 360.5,173.5 C 372.209,183.544 383.209,194.21 393.5,205.5C 391.167,207.5 388.833,209.5 386.5,211.5C 374.368,199.869 362.368,188.035 350.5,176C 351.056,175.617 351.389,175.117 351.5,174.5C 354.518,174.296 357.518,173.963 360.5,173.5 Z"/></g>
<g><path style="opacity:0.964" fill="#037bcf" d="M 360.5,173.5 C 363.167,173.5 365.833,173.5 368.5,173.5C 368.389,174.117 368.056,174.617 367.5,175C 377.45,185.456 387.784,195.289 398.5,204.5C 396.883,205.038 395.216,205.371 393.5,205.5C 383.209,194.21 372.209,183.544 360.5,173.5 Z"/></g>
<g><path style="opacity:0.974" fill="#0380d2" d="M 368.5,173.5 C 376.019,173.175 383.352,173.508 390.5,174.5C 390.062,174.435 389.728,174.601 389.5,175C 400.702,186.035 411.702,197.202 422.5,208.5C 415.102,203.673 407.102,202.34 398.5,204.5C 387.784,195.289 377.45,185.456 367.5,175C 368.056,174.617 368.389,174.117 368.5,173.5 Z"/></g>
<g><path style="opacity:0.988" fill="#0274c9" d="M 351.5,174.5 C 351.389,175.117 351.056,175.617 350.5,176C 362.368,188.035 374.368,199.869 386.5,211.5C 384.239,214.365 382.239,217.365 380.5,220.5C 379.761,220.631 379.094,220.464 378.5,220C 364.632,205.965 350.632,192.131 336.5,178.5C 341.192,176.421 346.192,175.088 351.5,174.5 Z"/></g>
<g><path style="opacity:0.992" fill="#4ebaed" d="M 536.5,191.5 C 536.5,193.5 536.5,195.5 536.5,197.5C 529.221,191.558 522.221,185.225 515.5,178.5C 515.5,177.5 515.5,176.5 515.5,175.5C 515.369,174.761 515.536,174.094 516,173.5C 522.333,180.167 528.667,186.833 535,193.5C 535.278,192.584 535.778,191.918 536.5,191.5 Z"/></g>
<g><path style="opacity:0.967" fill="#015ab6" d="M 275.5,177.5 C 281.411,185.081 288.078,192.081 295.5,198.5C 295.5,204.5 295.5,210.5 295.5,216.5C 289.202,210.703 283.035,204.703 277,198.5C 276.617,199.056 276.117,199.389 275.5,199.5C 275.5,192.167 275.5,184.833 275.5,177.5 Z"/></g>
<g><path style="opacity:0.978" fill="#026dc4" d="M 334.5,178.5 C 348.781,194.449 363.781,209.782 379.5,224.5C 378.504,232.17 380.171,239.17 384.5,245.5C 384.103,246.525 383.437,246.692 382.5,246C 371.965,235.298 361.298,224.798 350.5,214.5C 352.281,211.777 353.948,208.943 355.5,206C 352.833,206.826 350.166,207.992 347.5,209.5C 338.554,202.222 330.221,194.222 322.5,185.5C 326.136,182.677 330.136,180.344 334.5,178.5 Z"/></g>
<g><path style="opacity:0.978" fill="#0494e1" d="M 451.5,180.5 C 460.527,190.527 470.193,199.86 480.5,208.5C 480.293,211.241 479.293,213.574 477.5,215.5C 469.167,206.5 460.5,197.833 451.5,189.5C 451.5,186.5 451.5,183.5 451.5,180.5 Z"/></g>
<g><path style="opacity:1" fill="#0270c7" d="M 334.5,178.5 C 335.167,178.5 335.833,178.5 336.5,178.5C 350.632,192.131 364.632,205.965 378.5,220C 379.094,220.464 379.761,220.631 380.5,220.5C 380.567,221.959 380.234,223.292 379.5,224.5C 363.781,209.782 348.781,194.449 334.5,178.5 Z"/></g>
<g><path style="opacity:0.981" fill="#42b5ec" d="M 515.5,178.5 C 522.221,185.225 529.221,191.558 536.5,197.5C 536.5,199.833 536.5,202.167 536.5,204.5C 528.469,198.469 521.469,191.469 515.5,183.5C 515.5,181.833 515.5,180.167 515.5,178.5 Z"/></g>
<g><path style="opacity:0.977" fill="#0269c1" d="M 322.5,185.5 C 330.221,194.222 338.554,202.222 347.5,209.5C 346.71,210.401 345.71,211.068 344.5,211.5C 336.167,203.833 328.167,195.833 320.5,187.5C 320.833,186.5 321.5,185.833 322.5,185.5 Z"/></g>
<g><path style="opacity:0.985" fill="#0266bf" d="M 320.5,187.5 C 328.167,195.833 336.167,203.833 344.5,211.5C 341.525,214.323 338.192,216.656 334.5,218.5C 326.474,212.155 318.808,204.821 311.5,196.5C 313.522,192.478 316.522,189.478 320.5,187.5 Z"/></g>
<g><path style="opacity:0.94" fill="#36b1eb" d="M 515.5,183.5 C 521.469,191.469 528.469,198.469 536.5,204.5C 536.5,206.833 536.5,209.167 536.5,211.5C 529.167,204.833 521.833,198.167 514.5,191.5C 515.265,188.904 515.599,186.237 515.5,183.5 Z"/></g>
<g><path style="opacity:0.988" fill="#0491de" d="M 451.5,189.5 C 460.5,197.833 469.167,206.5 477.5,215.5C 477.008,217.819 476.008,219.819 474.5,221.5C 473.883,221.611 473.383,221.944 473,222.5C 466.333,215.833 459.667,209.167 453,202.5C 452.517,201.552 452.351,200.552 452.5,199.5C 452.658,196.098 452.324,192.764 451.5,189.5 Z"/></g>
<g><path style="opacity:0.968" fill="#2aaceb" d="M 514.5,191.5 C 521.833,198.167 529.167,204.833 536.5,211.5C 536.5,213.5 536.5,215.5 536.5,217.5C 535.325,217.719 534.325,217.386 533.5,216.5C 526.782,209.447 519.782,202.78 512.5,196.5C 513.441,194.95 514.107,193.284 514.5,191.5 Z"/></g>
<g><path style="opacity:0.961" fill="#0262bc" d="M 311.5,196.5 C 318.808,204.821 326.474,212.155 334.5,218.5C 333.5,220.167 332.167,221.5 330.5,222.5C 323.5,214.833 316.167,207.5 308.5,200.5C 309.512,199.128 310.512,197.795 311.5,196.5 Z"/></g>
<g><path style="opacity:0.95" fill="#21a9ea" d="M 512.5,196.5 C 519.782,202.78 526.782,209.447 533.5,216.5C 534.325,217.386 535.325,217.719 536.5,217.5C 536.5,218.833 536.5,220.167 536.5,221.5C 535.325,221.719 534.325,221.386 533.5,220.5C 526.429,213.092 519.095,206.092 511.5,199.5C 512.11,198.609 512.443,197.609 512.5,196.5 Z"/></g>
<g><path style="opacity:0.97" fill="#0154b2" d="M 295.5,216.5 C 295.334,220.514 295.501,224.514 296,228.5C 296.705,225.524 297.871,222.858 299.5,220.5C 304.302,226.645 309.969,231.645 316.5,235.5C 313.471,238.859 310.471,242.192 307.5,245.5C 306.127,245.657 304.793,245.49 303.5,245C 303.833,244.667 304.167,244.333 304.5,244C 303.5,243.667 302.5,243.333 301.5,243C 301.833,242.667 302.167,242.333 302.5,242C 301.5,241.667 300.5,241.333 299.5,241C 299.833,240.667 300.167,240.333 300.5,240C 299.5,239.667 298.5,239.333 297.5,239C 297.833,238.667 298.167,238.333 298.5,238C 297.5,237.667 296.5,237.333 295.5,237C 295.833,236.667 296.167,236.333 296.5,236C 295.5,235.667 294.5,235.333 293.5,235C 293.833,234.667 294.167,234.333 294.5,234C 293.5,233.667 292.5,233.333 291.5,233C 291.833,232.667 292.167,232.333 292.5,232C 291.5,231.667 290.5,231.333 289.5,231C 289.833,230.667 290.167,230.333 290.5,230C 288.833,229 287.167,228 285.5,227C 285.833,226.667 286.167,226.333 286.5,226C 285.5,225.667 284.5,225.333 283.5,225C 283.833,224.667 284.167,224.333 284.5,224C 283.5,223.667 282.5,223.333 281.5,223C 281.833,222.667 282.167,222.333 282.5,222C 281.5,221.667 280.5,221.333 279.5,221C 279.833,220.667 280.167,220.333 280.5,220C 279.5,219.667 278.5,219.333 277.5,219C 277.833,218.667 278.167,218.333 278.5,218C 277.103,216.69 276.103,215.19 275.5,213.5C 275.5,208.833 275.5,204.167 275.5,199.5C 276.117,199.389 276.617,199.056 277,198.5C 283.035,204.703 289.202,210.703 295.5,216.5 Z"/></g>
<g><path style="opacity:0.98" fill="#015fba" d="M 308.5,200.5 C 316.167,207.5 323.5,214.833 330.5,222.5C 328.5,224.167 326.5,225.833 324.5,227.5C 317.833,221.167 311.167,214.833 304.5,208.5C 305.399,205.605 306.733,202.938 308.5,200.5 Z"/></g>
<g><path style="opacity:0.962" fill="#17a5ea" d="M 511.5,199.5 C 519.095,206.092 526.429,213.092 533.5,220.5C 534.325,221.386 535.325,221.719 536.5,221.5C 536.5,223.833 536.5,226.167 536.5,228.5C 527.588,221.093 519.088,213.093 511,204.5C 510.536,203.906 510.369,203.239 510.5,202.5C 510.557,201.391 510.89,200.391 511.5,199.5 Z"/></g>
<g><path style="opacity:0.974" fill="#0ca1e9" d="M 510.5,202.5 C 510.369,203.239 510.536,203.906 511,204.5C 519.088,213.093 527.588,221.093 536.5,228.5C 536.5,230.833 536.5,233.167 536.5,235.5C 526.833,226.167 517.167,216.833 507.5,207.5C 508.263,205.632 509.263,203.965 510.5,202.5 Z"/></g>
<g><path style="opacity:0.988" fill="#059de8" d="M 507.5,207.5 C 517.167,216.833 526.833,226.167 536.5,235.5C 536.5,237.5 536.5,239.5 536.5,241.5C 535.788,242.739 534.788,243.239 533.5,243C 533.833,242.667 534.167,242.333 534.5,242C 533.5,241.667 532.5,241.333 531.5,241C 531.833,240.667 532.167,240.333 532.5,240C 531.5,239.667 530.5,239.333 529.5,239C 529.833,238.667 530.167,238.333 530.5,238C 529.5,237.667 528.5,237.333 527.5,237C 527.833,236.667 528.167,236.333 528.5,236C 527.5,235.667 526.5,235.333 525.5,235C 525.833,234.667 526.167,234.333 526.5,234C 525.5,233.667 524.5,233.333 523.5,233C 523.833,232.667 524.167,232.333 524.5,232C 523.5,231.667 522.5,231.333 521.5,231C 521.833,230.667 522.167,230.333 522.5,230C 521.5,229.667 520.5,229.333 519.5,229C 519.833,228.667 520.167,228.333 520.5,228C 519.5,227.667 518.5,227.333 517.5,227C 517.833,226.667 518.167,226.333 518.5,226C 516.833,225 515.167,224 513.5,223C 513.833,222.667 514.167,222.333 514.5,222C 513.5,221.667 512.5,221.333 511.5,221C 511.833,220.667 512.167,220.333 512.5,220C 511.5,219.667 510.5,219.333 509.5,219C 509.833,218.667 510.167,218.333 510.5,218C 509.5,217.667 508.5,217.333 507.5,217C 507.833,216.667 508.167,216.333 508.5,216C 507.5,215.667 506.5,215.333 505.5,215C 505.833,214.667 506.167,214.333 506.5,214C 505.552,213.517 504.552,213.351 503.5,213.5C 504.475,211.205 505.808,209.205 507.5,207.5 Z"/></g>
<g><path style="opacity:0.975" fill="#015ab6" d="M 304.5,208.5 C 311.167,214.833 317.833,221.167 324.5,227.5C 322.167,230.5 319.5,233.167 316.5,235.5C 309.969,231.645 304.302,226.645 299.5,220.5C 300.655,216.203 302.321,212.203 304.5,208.5 Z"/></g>
<g><path style="opacity:0.962" fill="#0499e4" d="M 503.5,213.5 C 504.552,213.351 505.552,213.517 506.5,214C 506.167,214.333 505.833,214.667 505.5,215C 506.5,215.333 507.5,215.667 508.5,216C 508.167,216.333 507.833,216.667 507.5,217C 508.5,217.333 509.5,217.667 510.5,218C 510.167,218.333 509.833,218.667 509.5,219C 510.5,219.333 511.5,219.667 512.5,220C 512.167,220.333 511.833,220.667 511.5,221C 512.5,221.333 513.5,221.667 514.5,222C 514.167,222.333 513.833,222.667 513.5,223C 515.167,224 516.833,225 518.5,226C 518.167,226.333 517.833,226.667 517.5,227C 518.5,227.333 519.5,227.667 520.5,228C 520.167,228.333 519.833,228.667 519.5,229C 520.5,229.333 521.5,229.667 522.5,230C 522.167,230.333 521.833,230.667 521.5,231C 522.5,231.333 523.5,231.667 524.5,232C 524.167,232.333 523.833,232.667 523.5,233C 524.5,233.333 525.5,233.667 526.5,234C 526.167,234.333 525.833,234.667 525.5,235C 526.5,235.333 527.5,235.667 528.5,236C 528.167,236.333 527.833,236.667 527.5,237C 528.5,237.333 529.5,237.667 530.5,238C 530.167,238.333 529.833,238.667 529.5,239C 530.5,239.333 531.5,239.667 532.5,240C 532.167,240.333 531.833,240.667 531.5,241C 532.5,241.333 533.5,241.667 534.5,242C 534.167,242.333 533.833,242.667 533.5,243C 534.788,243.239 535.788,242.739 536.5,241.5C 536.5,249.5 536.5,257.5 536.5,265.5C 529.833,259.167 523.167,252.833 516.5,246.5C 516.666,240.824 516.499,235.157 516,229.5C 514.485,233.192 512.985,236.859 511.5,240.5C 505.441,235.443 500.107,229.776 495.5,223.5C 497.817,219.854 500.484,216.52 503.5,213.5 Z"/></g>
<g><path style="opacity:0.996" fill="#0269c1" d="M 350.5,214.5 C 361.298,224.798 371.965,235.298 382.5,246C 383.437,246.692 384.103,246.525 384.5,245.5C 385.167,245.5 385.5,245.833 385.5,246.5C 385.351,247.552 385.517,248.552 386,249.5C 397.702,261.035 409.202,272.702 420.5,284.5C 419.167,284.5 417.833,284.5 416.5,284.5C 394.45,261.449 371.783,239.116 348.5,217.5C 348.932,216.29 349.599,215.29 350.5,214.5 Z"/></g>
<g><path style="opacity:0.989" fill="#0150af" d="M 275.5,213.5 C 276.103,215.19 277.103,216.69 278.5,218C 278.167,218.333 277.833,218.667 277.5,219C 278.5,219.333 279.5,219.667 280.5,220C 280.167,220.333 279.833,220.667 279.5,221C 280.5,221.333 281.5,221.667 282.5,222C 282.167,222.333 281.833,222.667 281.5,223C 282.5,223.333 283.5,223.667 284.5,224C 284.167,224.333 283.833,224.667 283.5,225C 284.5,225.333 285.5,225.667 286.5,226C 286.167,226.333 285.833,226.667 285.5,227C 287.167,228 288.833,229 290.5,230C 290.167,230.333 289.833,230.667 289.5,231C 290.5,231.333 291.5,231.667 292.5,232C 292.167,232.333 291.833,232.667 291.5,233C 292.5,233.333 293.5,233.667 294.5,234C 294.167,234.333 293.833,234.667 293.5,235C 294.5,235.333 295.5,235.667 296.5,236C 296.167,236.333 295.833,236.667 295.5,237C 296.5,237.333 297.5,237.667 298.5,238C 298.167,238.333 297.833,238.667 297.5,239C 298.5,239.333 299.5,239.667 300.5,240C 300.167,240.333 299.833,240.667 299.5,241C 300.5,241.333 301.5,241.667 302.5,242C 302.167,242.333 301.833,242.667 301.5,243C 302.5,243.333 303.5,243.667 304.5,244C 304.167,244.333 303.833,244.667 303.5,245C 304.793,245.49 306.127,245.657 307.5,245.5C 306.66,247.853 305.326,249.853 303.5,251.5C 294.869,242.368 286.036,233.368 277,224.5C 276.802,222.618 276.302,220.952 275.5,219.5C 275.5,217.5 275.5,215.5 275.5,213.5 Z"/></g>
<g><path style="opacity:0.988" fill="#0266bf" d="M 348.5,217.5 C 371.783,239.116 394.45,261.449 416.5,284.5C 414.143,284.337 411.81,284.503 409.5,285C 416.102,288.799 422.768,292.299 429.5,295.5C 438.445,305.781 447.778,315.781 457.5,325.5C 452.781,325.888 448.114,326.555 443.5,327.5C 410.034,295.539 376.7,262.706 343.5,229C 343.598,227.715 343.598,226.549 343.5,225.5C 345.181,222.797 346.847,220.131 348.5,217.5 Z"/></g>
<g><path style="opacity:0.982" fill="#037fd2" d="M 426.5,213.5 C 436.67,224.173 447.17,234.839 458,245.5C 458.671,244.748 459.504,244.414 460.5,244.5C 459.235,247.525 457.568,250.358 455.5,253C 458.873,251.846 462.207,250.346 465.5,248.5C 465.047,249.458 464.381,250.292 463.5,251C 471.368,259.036 479.368,266.869 487.5,274.5C 484.636,277.014 481.302,278.68 477.5,279.5C 475.774,279.815 474.107,279.981 472.5,280C 458.632,265.965 444.632,252.131 430.5,238.5C 433.564,229.483 432.231,221.15 426.5,213.5 Z"/></g>
<g><path style="opacity:0.984" fill="#014dac" d="M 275.5,219.5 C 276.302,220.952 276.802,222.618 277,224.5C 286.036,233.368 294.869,242.368 303.5,251.5C 302.674,254.485 301.341,257.151 299.5,259.5C 290.755,252.756 282.755,244.756 275.5,235.5C 275.5,230.167 275.5,224.833 275.5,219.5 Z"/></g>
<g><path style="opacity:0.974" fill="#0494e1" d="M 495.5,223.5 C 500.107,229.776 505.441,235.443 511.5,240.5C 510.87,242.75 509.87,244.75 508.5,246.5C 502.44,240.445 496.774,234.111 491.5,227.5C 492.5,225.833 493.833,224.5 495.5,223.5 Z"/></g>
<g><path style="opacity:0.994" fill="#0262bc" d="M 343.5,225.5 C 343.598,226.549 343.598,227.715 343.5,229C 376.7,262.706 410.034,295.539 443.5,327.5C 440.5,327.5 437.5,327.5 434.5,327.5C 404.085,295.584 373.085,264.084 341.5,233C 340.906,232.536 340.239,232.369 339.5,232.5C 340.584,229.996 341.917,227.663 343.5,225.5 Z"/></g>
<g><path style="opacity:0.989" fill="#0491de" d="M 491.5,227.5 C 496.774,234.111 502.44,240.445 508.5,246.5C 508.204,248.403 507.537,250.07 506.5,251.5C 505.542,251.953 504.708,252.619 504,253.5C 497.833,247.333 491.667,241.167 485.5,235C 486.598,234.23 486.598,233.397 485.5,232.5C 487.475,230.863 489.475,229.196 491.5,227.5 Z"/></g>
<g><path style="opacity:0.992" fill="#015fba" d="M 339.5,232.5 C 340.239,232.369 340.906,232.536 341.5,233C 373.085,264.084 404.085,295.584 434.5,327.5C 431.055,327.806 427.389,327.806 423.5,327.5C 404.167,307.5 384.5,287.833 364.5,268.5C 362.833,265.833 361.167,263.167 359.5,260.5C 359.649,259.448 359.483,258.448 359,257.5C 358.667,258.833 358.333,260.167 358,261.5C 350.24,254.245 343.073,246.578 336.5,238.5C 336.992,236.181 337.992,234.181 339.5,232.5 Z"/></g>
<g><path style="opacity:0.962" fill="#048ddc" d="M 485.5,232.5 C 486.598,233.397 486.598,234.23 485.5,235C 491.667,241.167 497.833,247.333 504,253.5C 504.708,252.619 505.542,251.953 506.5,251.5C 505,255.173 503,258.506 500.5,261.5C 492.151,254.166 484.818,246.499 478.5,238.5C 480.808,236.529 483.142,234.529 485.5,232.5 Z"/></g>
<g><path style="opacity:0.975" fill="#0049a9" d="M 275.5,235.5 C 282.755,244.756 290.755,252.756 299.5,259.5C 298.488,262.257 297.488,264.924 296.5,267.5C 289.5,260.833 282.5,254.167 275.5,247.5C 275.5,243.5 275.5,239.5 275.5,235.5 Z"/></g>
<g><path style="opacity:0.964" fill="#015bb7" d="M 336.5,238.5 C 343.073,246.578 350.24,254.245 358,261.5C 358.333,260.167 358.667,258.833 359,257.5C 359.483,258.448 359.649,259.448 359.5,260.5C 359.5,264.833 359.5,269.167 359.5,273.5C 358.504,273.414 357.671,273.748 357,274.5C 348.579,265.574 339.746,257.241 330.5,249.5C 332.262,245.638 334.262,241.972 336.5,238.5 Z"/></g>
<g><path style="opacity:0.979" fill="#037bcf" d="M 430.5,238.5 C 444.632,252.131 458.632,265.965 472.5,280C 474.107,279.981 475.774,279.815 477.5,279.5C 475.429,280.945 473.096,281.945 470.5,282.5C 457.702,269.202 444.702,256.035 431.5,243C 430.552,242.517 429.552,242.351 428.5,242.5C 429.167,241.167 429.833,239.833 430.5,238.5 Z"/></g>
<g><path style="opacity:0.996" fill="#038ad9" d="M 478.5,238.5 C 484.818,246.499 492.151,254.166 500.5,261.5C 499.488,262.872 498.488,264.205 497.5,265.5C 490.112,257.111 482.112,249.444 473.5,242.5C 475.142,241.197 476.809,239.864 478.5,238.5 Z"/></g>
<g><path style="opacity:0.989" fill="#0379cd" d="M 428.5,242.5 C 429.552,242.351 430.552,242.517 431.5,243C 444.702,256.035 457.702,269.202 470.5,282.5C 467.135,283.04 463.802,283.706 460.5,284.5C 447.915,273.252 435.581,261.585 423.5,249.5C 425.412,247.343 427.079,245.009 428.5,242.5 Z"/></g>
<g><path style="opacity:0.986" fill="#0386d6" d="M 473.5,242.5 C 482.112,249.444 490.112,257.111 497.5,265.5C 494.789,269.212 491.456,272.212 487.5,274.5C 479.368,266.869 471.368,259.036 463.5,251C 464.381,250.292 465.047,249.458 465.5,248.5C 467.86,246.147 470.527,244.147 473.5,242.5 Z"/></g>
<g><path style="opacity:0.963" fill="#0494e1" d="M 516.5,246.5 C 523.167,252.833 529.833,259.167 536.5,265.5C 536.5,267.833 536.5,270.167 536.5,272.5C 529.221,266.558 522.221,260.225 515.5,253.5C 515.674,251.139 516.007,248.806 516.5,246.5 Z"/></g>
<g><path style="opacity:0.984" fill="#0045a7" d="M 275.5,247.5 C 282.5,254.167 289.5,260.833 296.5,267.5C 295.908,270.127 295.575,272.794 295.5,275.5C 288.555,269.892 281.888,263.892 275.5,257.5C 275.5,254.167 275.5,250.833 275.5,247.5 Z"/></g>
<g><path style="opacity:0.97" fill="#0158b4" d="M 330.5,249.5 C 339.746,257.241 348.579,265.574 357,274.5C 357.671,273.748 358.504,273.414 359.5,273.5C 359.993,275.806 360.326,278.139 360.5,280.5C 350.254,271.758 340.421,262.425 331,252.5C 330.617,253.056 330.117,253.389 329.5,253.5C 329.833,252.167 330.167,250.833 330.5,249.5 Z"/></g>
<g><path style="opacity:0.983" fill="#0274c9" d="M 423.5,249.5 C 435.581,261.585 447.915,273.252 460.5,284.5C 454.848,285.032 449.181,285.365 443.5,285.5C 443.5,284.833 443.167,284.5 442.5,284.5C 432.833,274.5 423.167,264.5 413.5,254.5C 417.117,253.358 420.45,251.692 423.5,249.5 Z"/></g>
<g><path style="opacity:0.962" fill="#026dc4" d="M 385.5,246.5 C 392.814,254.049 401.814,257.049 412.5,255.5C 412.389,256.117 412.056,256.617 411.5,257C 420.667,266.167 429.833,275.333 439,284.5C 439.986,283.829 441.153,283.829 442.5,284.5C 443.167,284.5 443.5,284.833 443.5,285.5C 435.791,285.731 428.124,285.398 420.5,284.5C 409.202,272.702 397.702,261.035 386,249.5C 385.517,248.552 385.351,247.552 385.5,246.5 Z"/></g>
<g><path style="opacity:0.983" fill="#0154b2" d="M 360.5,280.5 C 361.319,288.261 362.652,295.927 364.5,303.5C 363.448,303.649 362.448,303.483 361.5,303C 361.833,302.667 362.167,302.333 362.5,302C 361.5,301.667 360.5,301.333 359.5,301C 359.833,300.667 360.167,300.333 360.5,300C 359.5,299.667 358.5,299.333 357.5,299C 357.833,298.667 358.167,298.333 358.5,298C 357.5,297.667 356.5,297.333 355.5,297C 355.833,296.667 356.167,296.333 356.5,296C 355.5,295.667 354.5,295.333 353.5,295C 353.833,294.667 354.167,294.333 354.5,294C 353.5,293.667 352.5,293.333 351.5,293C 351.833,292.667 352.167,292.333 352.5,292C 351.5,291.667 350.5,291.333 349.5,291C 349.833,290.667 350.167,290.333 350.5,290C 349.5,289.667 348.5,289.333 347.5,289C 347.833,288.667 348.167,288.333 348.5,288C 347.5,287.667 346.5,287.333 345.5,287C 345.833,286.667 346.167,286.333 346.5,286C 345.5,285.667 344.5,285.333 343.5,285C 343.833,284.667 344.167,284.333 344.5,284C 343.5,283.667 342.5,283.333 341.5,283C 341.833,282.667 342.167,282.333 342.5,282C 341.5,281.667 340.5,281.333 339.5,281C 339.833,280.667 340.167,280.333 340.5,280C 339.5,279.667 338.5,279.333 337.5,279C 337.833,278.667 338.167,278.333 338.5,278C 337.5,277.667 336.5,277.333 335.5,277C 335.833,276.667 336.167,276.333 336.5,276C 335.5,275.667 334.5,275.333 333.5,275C 333.833,274.667 334.167,274.333 334.5,274C 333.5,273.667 332.5,273.333 331.5,273C 331.833,272.667 332.167,272.333 332.5,272C 331.5,271.667 330.5,271.333 329.5,271C 329.833,270.667 330.167,270.333 330.5,270C 329.5,269.667 328.5,269.333 327.5,269C 327.833,268.667 328.167,268.333 328.5,268C 327.584,267.722 326.918,267.222 326.5,266.5C 326.511,261.83 327.511,257.497 329.5,253.5C 330.117,253.389 330.617,253.056 331,252.5C 340.421,262.425 350.254,271.758 360.5,280.5 Z"/></g>
<g><path style="opacity:0.967" fill="#0491de" d="M 515.5,253.5 C 522.221,260.225 529.221,266.558 536.5,272.5C 536.5,274.833 536.5,277.167 536.5,279.5C 535.698,280.952 535.198,282.618 535,284.5C 529,278.5 523,272.5 517,266.5C 516.814,263.964 516.314,261.631 515.5,259.5C 515.5,257.5 515.5,255.5 515.5,253.5 Z"/></g>
<g><path style="opacity:0.888" fill="#048ddc" d="M 515.5,259.5 C 516.314,261.631 516.814,263.964 517,266.5C 523,272.5 529,278.5 535,284.5C 535.198,282.618 535.698,280.952 536.5,279.5C 536.5,287.5 536.5,295.5 536.5,303.5C 535.833,303.5 535.5,303.167 535.5,302.5C 535.662,300.473 535.495,298.473 535,296.5C 528.91,289.904 522.41,283.904 515.5,278.5C 515.5,272.167 515.5,265.833 515.5,259.5 Z"/></g>
<g><path style="opacity:1" fill="#0270c7" d="M 413.5,254.5 C 423.167,264.5 432.833,274.5 442.5,284.5C 441.153,283.829 439.986,283.829 439,284.5C 429.833,275.333 420.667,266.167 411.5,257C 412.056,256.617 412.389,256.117 412.5,255.5C 412.5,254.833 412.833,254.5 413.5,254.5 Z"/></g>
<g><path style="opacity:0.974" fill="#0150af" d="M 326.5,266.5 C 326.918,267.222 327.584,267.722 328.5,268C 328.167,268.333 327.833,268.667 327.5,269C 328.5,269.333 329.5,269.667 330.5,270C 330.167,270.333 329.833,270.667 329.5,271C 330.5,271.333 331.5,271.667 332.5,272C 332.167,272.333 331.833,272.667 331.5,273C 332.5,273.333 333.5,273.667 334.5,274C 334.167,274.333 333.833,274.667 333.5,275C 334.5,275.333 335.5,275.667 336.5,276C 336.167,276.333 335.833,276.667 335.5,277C 336.5,277.333 337.5,277.667 338.5,278C 338.167,278.333 337.833,278.667 337.5,279C 338.5,279.333 339.5,279.667 340.5,280C 340.167,280.333 339.833,280.667 339.5,281C 340.5,281.333 341.5,281.667 342.5,282C 342.167,282.333 341.833,282.667 341.5,283C 342.5,283.333 343.5,283.667 344.5,284C 344.167,284.333 343.833,284.667 343.5,285C 344.5,285.333 345.5,285.667 346.5,286C 346.167,286.333 345.833,286.667 345.5,287C 346.5,287.333 347.5,287.667 348.5,288C 348.167,288.333 347.833,288.667 347.5,289C 348.5,289.333 349.5,289.667 350.5,290C 350.167,290.333 349.833,290.667 349.5,291C 350.5,291.333 351.5,291.667 352.5,292C 352.167,292.333 351.833,292.667 351.5,293C 352.5,293.333 353.5,293.667 354.5,294C 354.167,294.333 353.833,294.667 353.5,295C 354.5,295.333 355.5,295.667 356.5,296C 356.167,296.333 355.833,296.667 355.5,297C 356.5,297.333 357.5,297.667 358.5,298C 358.167,298.333 357.833,298.667 357.5,299C 358.5,299.333 359.5,299.667 360.5,300C 360.167,300.333 359.833,300.667 359.5,301C 360.5,301.333 361.5,301.667 362.5,302C 362.167,302.333 361.833,302.667 361.5,303C 362.448,303.483 363.448,303.649 364.5,303.5C 365.697,307.095 366.697,310.761 367.5,314.5C 352.75,300.752 338.75,286.418 325.5,271.5C 325.216,269.585 325.549,267.919 326.5,266.5 Z"/></g>
<g><path style="opacity:0.968" fill="#015bb7" d="M 364.5,268.5 C 384.5,287.833 404.167,307.5 423.5,327.5C 413.828,326.444 405.162,322.944 397.5,317C 383.141,303.114 372.141,286.948 364.5,268.5 Z"/></g>
<g><path style="opacity:0.977" fill="#014cac" d="M 325.5,271.5 C 338.75,286.418 352.75,300.752 367.5,314.5C 372.059,327.779 379.725,338.946 390.5,348C 395.088,350.897 400.088,352.397 405.5,352.5C 411.167,358.5 416.833,364.5 422.5,370.5C 419.339,371.913 416.339,373.58 413.5,375.5C 385.139,346.806 356.806,318.14 328.5,289.5C 326.062,283.871 325.062,277.871 325.5,271.5 Z"/></g>
<g><path style="opacity:0.983" fill="#003ba0" d="M 275.5,273.5 C 276.167,273.5 276.5,273.833 276.5,274.5C 276.369,275.239 276.536,275.906 277,276.5C 299.368,298.701 321.535,321.035 343.5,343.5C 329.032,335.766 314.699,327.766 300.5,319.5C 292.134,310.138 283.801,300.804 275.5,291.5C 275.5,285.5 275.5,279.5 275.5,273.5 Z"/></g>
<g><path style="opacity:0.993" fill="#003ea1" d="M 276.5,274.5 C 300.551,297.55 323.884,321.217 346.5,345.5C 344.973,345.573 343.973,344.906 343.5,343.5C 321.535,321.035 299.368,298.701 277,276.5C 276.536,275.906 276.369,275.239 276.5,274.5 Z"/></g>
<g><path style="opacity:0.995" fill="#048ad9" d="M 515.5,278.5 C 522.41,283.904 528.91,289.904 535,296.5C 535.495,298.473 535.662,300.473 535.5,302.5C 528.833,296.167 522.167,289.833 515.5,283.5C 515.5,281.833 515.5,280.167 515.5,278.5 Z"/></g>
<g><path style="opacity:0.972" fill="#0386d7" d="M 515.5,283.5 C 522.167,289.833 528.833,296.167 535.5,302.5C 535.5,303.167 535.833,303.5 536.5,303.5C 532.881,306.65 528.881,309.316 524.5,311.5C 519.833,305.833 515.167,300.167 510.5,294.5C 512.467,290.904 514.134,287.237 515.5,283.5 Z"/></g>
<g><path style="opacity:0.988" fill="#0049a9" d="M 328.5,289.5 C 356.806,318.14 385.139,346.806 413.5,375.5C 411.784,377.025 409.784,378.025 407.5,378.5C 387.035,358.535 366.701,338.368 346.5,318C 345.906,317.536 345.239,317.369 344.5,317.5C 337.099,309.367 331.766,300.033 328.5,289.5 Z"/></g>
<g><path style="opacity:0.969" fill="#00379c" d="M 275.5,291.5 C 283.801,300.804 292.134,310.138 300.5,319.5C 292.528,314.845 284.528,310.178 276.5,305.5C 275.507,300.88 275.173,296.214 275.5,291.5 Z"/></g>
<g><path style="opacity:0.961" fill="#0269c1" d="M 429.5,295.5 C 431.921,295.878 434.254,296.545 436.5,297.5C 436.389,298.117 436.056,298.617 435.5,299C 444.036,307.368 452.369,315.868 460.5,324.5C 465.833,329.167 470.833,334.167 475.5,339.5C 475.158,340.338 474.492,340.672 473.5,340.5C 468.5,335.833 463.5,331.167 458.5,326.5C 458.5,325.833 458.167,325.5 457.5,325.5C 447.778,315.781 438.445,305.781 429.5,295.5 Z"/></g>
<g><path style="opacity:0.966" fill="#0380d2" d="M 510.5,294.5 C 515.167,300.167 519.833,305.833 524.5,311.5C 520.299,314.1 515.966,316.434 511.5,318.5C 506.167,313.833 501.167,308.833 496.5,303.5C 501.683,301.319 506.35,298.319 510.5,294.5 Z"/></g>
<g><path style="opacity:0.965" fill="#0041a4" d="M 275.5,257.5 C 281.888,263.892 288.555,269.892 295.5,275.5C 295.332,287.665 300.665,296.498 311.5,302C 320.075,307.428 328.742,312.595 337.5,317.5C 337.062,317.435 336.728,317.601 336.5,318C 353.368,334.701 370.035,351.535 386.5,368.5C 372.832,361.335 359.499,353.669 346.5,345.5C 323.884,321.217 300.551,297.55 276.5,274.5C 276.5,273.833 276.167,273.5 275.5,273.5C 275.5,268.167 275.5,262.833 275.5,257.5 Z"/></g>
<g><path style="opacity:0.976" fill="#026dc4" d="M 436.5,297.5 C 444.238,300.634 452.238,302.967 460.5,304.5C 468.778,314.447 477.778,323.78 487.5,332.5C 483.864,335.323 479.864,337.656 475.5,339.5C 470.833,334.167 465.833,329.167 460.5,324.5C 452.369,315.868 444.036,307.368 435.5,299C 436.056,298.617 436.389,298.117 436.5,297.5 Z"/></g>
<g><path style="opacity:0.978" fill="#0273c9" d="M 464.5,305.5 C 470.138,306.22 475.804,306.553 481.5,306.5C 486.964,312.465 492.63,318.298 498.5,324C 499.448,324.483 500.448,324.649 501.5,324.5C 497.535,326.818 493.535,329.152 489.5,331.5C 481.194,322.86 472.861,314.193 464.5,305.5 Z"/></g>
<g><path style="opacity:0.983" fill="#0379cd" d="M 496.5,303.5 C 501.167,308.833 506.167,313.833 511.5,318.5C 508.534,320.988 505.201,322.988 501.5,324.5C 500.448,324.649 499.448,324.483 498.5,324C 492.63,318.298 486.964,312.465 481.5,306.5C 486.638,306.034 491.638,305.034 496.5,303.5 Z"/></g>
<g><path style="opacity:1" fill="#0270c7" d="M 460.5,304.5 C 461.833,304.833 463.167,305.167 464.5,305.5C 472.861,314.193 481.194,322.86 489.5,331.5C 489.158,332.338 488.492,332.672 487.5,332.5C 477.778,323.78 468.778,314.447 460.5,304.5 Z"/></g>
<g><path style="opacity:0.984" fill="#0045a7" d="M 337.5,317.5 C 341.112,319.272 344.612,321.272 348,323.5C 348.667,322.833 348.667,322.167 348,321.5C 346.624,320.295 345.458,318.962 344.5,317.5C 345.239,317.369 345.906,317.536 346.5,318C 366.701,338.368 387.035,358.535 407.5,378.5C 406.399,379.598 405.066,379.765 403.5,379C 397.769,375.475 392.103,371.975 386.5,368.5C 370.035,351.535 353.368,334.701 336.5,318C 336.728,317.601 337.062,317.435 337.5,317.5 Z"/></g>
<g><path style="opacity:0.967" fill="#0266bf" d="M 458.5,326.5 C 463.5,331.167 468.5,335.833 473.5,340.5C 470.76,342.56 467.76,344.226 464.5,345.5C 463.178,345.33 462.011,345.663 461,346.5C 456.297,341.965 451.797,337.298 447.5,332.5C 451.034,330.234 454.7,328.234 458.5,326.5 Z"/></g>
<g><path style="opacity:0.96" fill="#0162bc" d="M 447.5,332.5 C 451.797,337.298 456.297,341.965 461,346.5C 462.011,345.663 463.178,345.33 464.5,345.5C 462.664,347.588 460.331,348.921 457.5,349.5C 453.167,344.5 448.5,339.833 443.5,335.5C 444.436,334.026 445.77,333.026 447.5,332.5 Z"/></g>
<g><path style="opacity:0.969" fill="#015fba" d="M 443.5,335.5 C 448.5,339.833 453.167,344.5 457.5,349.5C 455.664,351.588 453.331,352.921 450.5,353.5C 445.5,349.167 440.833,344.5 436.5,339.5C 438.336,337.412 440.669,336.079 443.5,335.5 Z"/></g>
<g><path style="opacity:0.97" fill="#015ab6" d="M 436.5,339.5 C 440.833,344.5 445.5,349.167 450.5,353.5C 446.836,356.335 442.836,358.668 438.5,360.5C 433.771,355.776 429.437,350.776 425.5,345.5C 428.678,342.742 432.345,340.742 436.5,339.5 Z"/></g>
<g><path style="opacity:0.979" fill="#0154b2" d="M 425.5,345.5 C 429.437,350.776 433.771,355.776 438.5,360.5C 435.506,363 432.173,365 428.5,366.5C 426.821,366.108 425.154,365.608 423.5,365C 423.833,364.667 424.167,364.333 424.5,364C 423.5,363.667 422.5,363.333 421.5,363C 421.833,362.667 422.167,362.333 422.5,362C 421.5,361.667 420.5,361.333 419.5,361C 419.833,360.667 420.167,360.333 420.5,360C 419.5,359.667 418.5,359.333 417.5,359C 417.833,358.667 418.167,358.333 418.5,358C 416.833,357 415.167,356 413.5,355C 413.833,354.667 414.167,354.333 414.5,354C 413.5,353.667 412.5,353.333 411.5,353C 412.416,352.722 413.082,352.222 413.5,351.5C 417.182,348.992 421.182,346.992 425.5,345.5 Z"/></g>
<g><path style="opacity:0.963" fill="#0150af" d="M 413.5,351.5 C 413.082,352.222 412.416,352.722 411.5,353C 412.5,353.333 413.5,353.667 414.5,354C 414.167,354.333 413.833,354.667 413.5,355C 415.167,356 416.833,357 418.5,358C 418.167,358.333 417.833,358.667 417.5,359C 418.5,359.333 419.5,359.667 420.5,360C 420.167,360.333 419.833,360.667 419.5,361C 420.5,361.333 421.5,361.667 422.5,362C 422.167,362.333 421.833,362.667 421.5,363C 422.5,363.333 423.5,363.667 424.5,364C 424.167,364.333 423.833,364.667 423.5,365C 425.154,365.608 426.821,366.108 428.5,366.5C 426.537,367.82 424.537,369.154 422.5,370.5C 416.833,364.5 411.167,358.5 405.5,352.5C 408.206,352.425 410.873,352.092 413.5,351.5 Z"/></g>
<g><path style="opacity:0.996" fill="#323232" d="M 79.5,439.5 C 85.5,439.5 91.5,439.5 97.5,439.5C 97.5,447.833 97.5,456.167 97.5,464.5C 117.833,464.5 138.167,464.5 158.5,464.5C 158.5,456.167 158.5,447.833 158.5,439.5C 164.833,439.5 171.167,439.5 177.5,439.5C 177.5,462.833 177.5,486.167 177.5,509.5C 171.167,509.5 164.833,509.5 158.5,509.5C 158.5,501.167 158.5,492.833 158.5,484.5C 138.167,484.5 117.833,484.5 97.5,484.5C 97.5,492.833 97.5,501.167 97.5,509.5C 91.5,509.5 85.5,509.5 79.5,509.5C 79.5,486.167 79.5,462.833 79.5,439.5 Z"/></g>
<g><path style="opacity:0.99" fill="#323232" d="M 207.5,439.5 C 229.503,439.333 251.503,439.5 273.5,440C 281.333,442.5 286.5,447.667 289,455.5C 289.667,468.167 289.667,480.833 289,493.5C 286.5,501.333 281.333,506.5 273.5,509C 251.5,509.667 229.5,509.667 207.5,509C 198.47,506.124 193.303,499.957 192,490.5C 191.333,479.833 191.333,469.167 192,458.5C 193.413,448.959 198.58,442.626 207.5,439.5 Z M 210.5,458.5 C 230.5,458.5 250.5,458.5 270.5,458.5C 270.5,469.167 270.5,479.833 270.5,490.5C 250.5,490.5 230.5,490.5 210.5,490.5C 210.5,479.833 210.5,469.167 210.5,458.5 Z"/></g>
<g><path style="opacity:0.972" fill="#323232" d="M 304.5,439.5 C 310.833,439.5 317.167,439.5 323.5,439.5C 323.334,448.506 323.5,457.506 324,466.5C 325.061,463.438 326.894,460.938 329.5,459C 341.5,452.667 353.5,446.333 365.5,440C 379.5,439.333 393.5,439.333 407.5,440C 385.5,451.333 363.5,462.667 341.5,474C 363.5,485.667 385.5,497.333 407.5,509C 393.833,509.667 380.167,509.667 366.5,509C 354.5,502.667 342.5,496.333 330.5,490C 327.96,487.795 325.793,485.295 324,482.5C 323.5,491.494 323.334,500.494 323.5,509.5C 317.167,509.5 310.833,509.5 304.5,509.5C 304.5,486.167 304.5,462.833 304.5,439.5 Z"/></g>
<g><path style="opacity:0.995" fill="#323232" d="M 414.5,439.5 C 420.5,439.5 426.5,439.5 432.5,439.5C 432.5,456.5 432.5,473.5 432.5,490.5C 452.833,490.5 473.167,490.5 493.5,490.5C 493.5,473.5 493.5,456.5 493.5,439.5C 499.5,439.5 505.5,439.5 511.5,439.5C 511.667,457.836 511.5,476.17 511,494.5C 508.167,501.333 503.333,506.167 496.5,509C 474.167,509.667 451.833,509.667 429.5,509C 422.667,506.167 417.833,501.333 415,494.5C 414.5,476.17 414.333,457.836 414.5,439.5 Z"/></g>
<g><path style="opacity:0.99" fill="#323232" d="M 524.5,439.5 C 556.833,439.5 589.167,439.5 621.5,439.5C 621.5,445.833 621.5,452.167 621.5,458.5C 608.5,458.5 595.5,458.5 582.5,458.5C 582.5,475.5 582.5,492.5 582.5,509.5C 576.167,509.5 569.833,509.5 563.5,509.5C 563.5,492.5 563.5,475.5 563.5,458.5C 550.5,458.5 537.5,458.5 524.5,458.5C 524.5,452.167 524.5,445.833 524.5,439.5 Z"/></g>
<g><path style="opacity:0.987" fill="#323232" d="M 650.5,439.5 C 672.503,439.333 694.503,439.5 716.5,440C 725.186,442.687 730.353,448.521 732,457.5C 732.667,468.833 732.667,480.167 732,491.5C 730.353,500.479 725.186,506.313 716.5,509C 694.5,509.667 672.5,509.667 650.5,509C 642.667,506.5 637.5,501.333 635,493.5C 634.333,480.833 634.333,468.167 635,455.5C 637.685,447.65 642.852,442.316 650.5,439.5 Z M 653.5,458.5 C 673.5,458.5 693.5,458.5 713.5,458.5C 713.5,469.167 713.5,479.833 713.5,490.5C 693.5,490.5 673.5,490.5 653.5,490.5C 653.5,479.833 653.5,469.167 653.5,458.5 Z"/></g>
</svg>
